#N canvas 460 274 1144 683 12;
#X obj 118 199 inlet;
#X text 645 6 Argument 1: DMX address(1~255) 2: n_chnnels 3: control_bus
4:output_bus, f 80;
#X obj 184 491 list-compare;
#X obj 238 475 list;
#X obj 184 515 == 0;
#X obj 78 482 spigot;
#X obj 116 459 tgl 15 0 empty empty empty 17 7 0 10 #fcfcfc #000000
#000000 0 1;
#X obj 203 445 t l l l b;
#X obj 88 508 bng 15 250 50 0 empty empty empty 17 7 0 10 #fcfcfc #000000
#000000;
#X text 293 473 output only when changed;
#X obj 19 555 outlet;
#X text 99 580 6 bytes;
#X obj 19 200 r light_clock;
#X obj 265 118 vsl 15 128 0 253 0 0 empty empty shutter 0 -9 0 10 #fcfcfc
#000000 #000000 0 1;
#X obj 337 149 vsl 15 128 0 253 0 0 empty empty fade 0 -9 0 10 #fcfcfc
#000000 #000000 0 1;
#X text 398 303 4;
#X text 369 303 3;
#X text 431 303 5;
#X text 460 303 6;
#X obj 472 146 vsl 15 128 0 199 0 0 empty empty iris 0 -9 0 10 #fcfcfc
#000000 #000000 0 1;
#X text 131 93 closed;
#X text 184 93 open;
#X obj 522 148 vsl 15 128 0 253 0 0 empty empty focus 0 -9 0 10 #fcfcfc
#000000 #000000 0 1;
#X obj 243 321 pack \$1 \$2 f f 0 0 0 0 f f 0 0 f f f f f f f, f 82
;
#X text 555 300 9;
#X text 584 300 10;
#X msg 156 113 19;
#X msg 188 114 20;
#X obj 621 152 vsl 15 128 0 253 0 0 empty empty pan 0 -9 0 10 #fcfcfc
#000000 #000000 0 1;
#X obj 651 154 vsl 15 128 0 253 0 0 empty empty pan_fine 0 -9 0 10
#fcfcfc #000000 #000000 0 1;
#X obj 701 155 vsl 15 128 0 253 0 0 empty empty tilt 0 -9 0 10 #fcfcfc
#000000 #000000 0 1;
#X obj 731 155 vsl 15 128 0 253 0 0 empty empty tilt_fine 0 -9 0 10
#fcfcfc #000000 #000000 0 1;
#X obj 798 155 vsl 15 128 3 245 0 0 empty empty speed 0 -9 0 10 #fcfcfc
#000000 #000000 0 1;
#X obj 869 150 vsl 15 128 3 245 0 0 empty empty effects_speed 0 -9
0 10 #fcfcfc #000000 #000000 0 1;
#X msg 996 325 10;
#X text 1025 324 reset all;
#X msg 997 349 30;
#X text 1029 349 reset pan/tilt;
#X msg 997 374 50;
#X text 1033 372 pan/tilt speed slow;
#X msg 996 300 0;
#X text 1027 300 none;
#X floatatom 155 31 0 0 254 2 ctl1 l-1-\$3 - 0;
#X floatatom 337 64 0 0 254 2 ctl2 l-2-\$3 - 0;
#X floatatom 471 67 0 0 254 2 ctl3 l-3-\$3 - 0;
#X floatatom 521 65 0 0 254 2 ctl4 l-4-\$3 - 0;
#X floatatom 606 37 0 0 254 2 ctl5 l-5-\$3 - 0;
#X floatatom 649 66 0 0 254 2 ctl6 l-6-\$3 - 0;
#X floatatom 696 36 0 0 254 2 ctl7 l-7-\$3 - 0;
#X floatatom 730 64 0 0 254 2 ctl8 l-8-\$3 - 0;
#X floatatom 798 42 0 0 254 2 ctl9 l-9-\$3 - 0;
#X floatatom 868 42 0 0 254 2 ctl10 l-0-\$3 - 0;
#X obj 155 60 sel 0 1;
#X floatatom 265 291 5 0 0 0 - - - 0;
#X obj 265 259 int;
#X obj 337 87 * 253;
#X obj 337 112 int;
#X floatatom 337 288 5 0 0 0 - - - 0;
#X obj 471 115 int;
#X obj 471 90 * 199;
#X floatatom 472 282 5 0 0 0 - - - 0;
#X obj 522 89 * 253;
#X obj 522 114 int;
#X floatatom 522 283 5 0 0 0 - - - 0;
#X floatatom 607 289 5 0 0 0 - - - 0;
#X floatatom 651 289 5 0 0 0 - - - 0;
#X obj 604 93 * 253;
#X obj 604 118 int;
#X obj 649 94 * 253;
#X obj 649 119 int;
#X obj 696 94 * 253;
#X obj 696 119 int;
#X obj 741 95 * 253;
#X obj 741 120 int;
#X floatatom 692 290 5 0 0 0 - - - 0;
#X floatatom 736 290 5 0 0 0 - - - 0;
#X obj 798 66 * 242;
#X obj 798 89 + 3;
#X obj 798 114 int;
#X floatatom 780 292 5 0 0 0 - - - 0;
#X obj 868 68 * 242;
#X obj 868 91 + 3;
#X obj 868 116 int;
#X floatatom 869 285 5 0 0 0 - - - 0;
#X obj 78 538 s Mac350-OUT-\$4;
#X connect 0 0 23 0;
#X connect 2 0 4 0;
#X connect 3 0 2 1;
#X connect 4 0 6 0;
#X connect 5 0 8 0;
#X connect 5 0 10 0;
#X connect 5 0 84 0;
#X connect 6 0 5 1;
#X connect 7 0 5 0;
#X connect 7 1 2 0;
#X connect 7 2 3 1;
#X connect 7 3 3 0;
#X connect 12 0 23 0;
#X connect 13 0 54 0;
#X connect 14 0 57 0;
#X connect 19 0 60 0;
#X connect 22 0 63 0;
#X connect 23 0 7 0;
#X connect 26 0 13 0;
#X connect 27 0 13 0;
#X connect 28 0 64 0;
#X connect 29 0 65 0;
#X connect 30 0 74 0;
#X connect 31 0 75 0;
#X connect 32 0 79 0;
#X connect 33 0 83 0;
#X connect 34 0 23 18;
#X connect 36 0 23 18;
#X connect 38 0 23 18;
#X connect 40 0 23 18;
#X connect 42 0 52 0;
#X connect 43 0 55 0;
#X connect 44 0 59 0;
#X connect 45 0 61 0;
#X connect 46 0 66 0;
#X connect 47 0 68 0;
#X connect 48 0 70 0;
#X connect 49 0 72 0;
#X connect 50 0 76 0;
#X connect 51 0 80 0;
#X connect 52 0 26 0;
#X connect 52 1 27 0;
#X connect 53 0 23 2;
#X connect 54 0 53 0;
#X connect 55 0 56 0;
#X connect 56 0 14 0;
#X connect 57 0 23 3;
#X connect 58 0 19 0;
#X connect 59 0 58 0;
#X connect 60 0 23 8;
#X connect 61 0 62 0;
#X connect 62 0 22 0;
#X connect 63 0 23 9;
#X connect 64 0 23 12;
#X connect 65 0 23 13;
#X connect 66 0 67 0;
#X connect 67 0 28 0;
#X connect 68 0 69 0;
#X connect 69 0 29 0;
#X connect 70 0 71 0;
#X connect 71 0 30 0;
#X connect 72 0 73 0;
#X connect 73 0 31 0;
#X connect 74 0 23 14;
#X connect 75 0 23 15;
#X connect 76 0 77 0;
#X connect 77 0 78 0;
#X connect 78 0 32 0;
#X connect 79 0 23 16;
#X connect 80 0 81 0;
#X connect 81 0 82 0;
#X connect 82 0 33 0;
#X connect 83 0 23 17;
