#N canvas 65 257 1920 507 10;
#X obj 530 458 t b f;
#X obj 530 480 del;
#X obj 570 480 s \$0-y;
#X obj 625 480 s \$0-x;
#N canvas 775 335 470 178 \$0-rectangle 0;
#X obj 44 92 s \$0-rectangle;
#X obj 44 114 filledpolygon c 0 0 0 0 1 0 1 1 0 1;
#X obj 44 70 struct \$0-rectangle float x float c;
#X text 42 34 This is a one pixel polygon that will be stretched to
the size of the area;
#X connect 2 0 0 0;
#X restore 480 84 pd \$0-rectangle;
#N canvas 775 140 470 155 \$0-pixel 0;
#X obj 44 50 struct \$0-pixel float x0 float y0 float x1 float y1;
#X obj 44 72 s \$0-pixel;
#X obj 44 94 drawpolygon 0 0 x0 y0 x1 y1;
#X connect 0 0 1 0;
#X restore 480 62 pd \$0-pixel;
#X obj 562 524 set \$0-pixel y1 x1;
#X obj 685 502 r \$0-pixelPointer;
#X obj 480 370 r \$0-rectangle;
#X obj 480 392 t b b;
#X obj 562 502 + 2;
#X obj 623 502 + 2;
#X obj 100 106 s pd-\$0-pixelSubpatch;
#X obj 100 128 s pd-\$0-rectangleSubpatch;
#X obj 101 42 bng 15 250 50 0 empty \$0-reset reset 17 7 0 10 -262144
-1 -1;
#X msg 512 700 const 0;
#X obj 512 436 sel;
#X obj 512 634 del;
#X obj 552 634 s \$0-y;
#X obj 608 634 s \$0-x;
#X obj 544 678 set \$0-pixel y1 x1;
#X obj 667 656 r \$0-pixelPointer;
#X obj 544 656 + 2;
#X obj 605 656 + 2;
#X obj 512 612 t b f;
#X msg 512 590 0;
#X obj 480 40 namecanvas \$0-this;
#X obj 86 1406 s \$0-this;
#X obj 66 1142 pack;
#X obj 86 1186 s pd-\$0-pixelSubpatch;
#X obj 86 1230 s pd-\$0-rectangleSubpatch;
#X obj 480 128 inlet;
#X obj 635 150 r \$0-rectanglePointer;
#X obj 34 812 t b b;
#X obj 34 1692 s \$0-this;
#X msg 34 1670 dirty 0;
#X obj 66 834 \$0;
#X obj 100 150 s pd-\$0-tablesSubpatch;
#X msg 66 1560 const 0;
#X msg 86 1164 donecanvasdialog 1 -1 2 0 \$2 \$1 0 \$1 \$2 0 0;
#X msg 86 1296 donecanvasdialog 1 -1 2 0 \$2 \$1 0 \$1 \$2 0 0;
#X msg 86 1340 donecanvasdialog 1 -1 2 0 0 \$1 \$2 \$1 \$2 0 0;
#X obj 66 900 s pd-\$0-tablesSubpatch;
#X obj 66 856 t f f;
#X msg 86 1252 donecanvasdialog 1 -1 2 0 \$2 \$1 0 \$1 \$2 100 20;
#X obj 86 1274 s pd-\$0-tablesSubpatch;
#X msg 86 1208 donecanvasdialog 1 -1 2 0 0 1 1 \$1 \$2 0 0;
#X obj 512 172 set \$0-rectangle c;
#X obj 34 40 loadbang;
#X obj 73 524 append \$0-pixel x0 y0 x1 y1;
#X msg 73 502 0 0 0 1;
#X obj 73 546 s \$0-pixelPointer;
#X msg 259 480 traverse \$1 \, bang;
#X obj 259 502 pointer;
#X obj 259 458 symbol pd-\$0-pixelSubpatch;
#X msg 215 724 traverse \$1 \, bang;
#X obj 215 746 pointer;
#X obj 215 702 symbol pd-\$0-rectangleSubpatch;
#X obj 57 768 append \$0-rectangle x c;
#X obj 57 790 s \$0-rectanglePointer;
#X obj 84 1428 r \$0-width;
#X obj 34 922 t b b;
#X obj 34 1538 t b b;
#X obj 34 1428 t b b;
#X obj 66 1450 f;
#X obj 57 238 \$1;
#X obj 138 238 \$2;
#X obj 57 260 s \$0-width;
#X obj 138 260 s \$0-height;
#X obj 66 1120 f;
#X obj 84 1098 r \$0-width;
#X obj 100 1120 r \$0-height;
#X obj 34 1098 t b b;
#X obj 34 216 t b b b;
#X obj 34 326 spigot;
#X obj 73 282 >;
#X obj 103 282 >;
#X obj 73 304 *;
#X msg 66 370 1;
#X msg 206 370 2;
#X obj 34 348 t b b;
#X obj 66 414 s \$0-arrayName1;
#X obj 206 414 s \$0-arrayName2;
#X obj 572 392 r \$0-arrayName1;
#X obj 572 546 r \$0-arrayName2;
#X msg 66 878 graph \$1-graph1;
#X msg 186 878 graph \$1-graph2;
#X obj 86 988 s pd-\$0-graph1;
#X obj 86 1076 s pd-\$0-graph2;
#X obj 512 414 array max;
#X obj 512 568 array max;
#X obj 550 722 r \$0-arrayName1;
#X obj 550 766 r \$0-arrayName2;
#X obj 532 744 s;
#X obj 532 788 s;
#X obj 125 922 r \$0-arrayName1;
#X obj 125 1010 r \$0-arrayName2;
#X obj 86 1604 s;
#X obj 86 1648 s;
#X obj 104 1582 r \$0-arrayName1;
#X obj 104 1626 r \$0-arrayName2;
#X obj 153 1450 r \$0-arrayName1;
#X obj 153 1494 r \$0-arrayName2;
#X obj 86 1472 array size;
#X obj 86 1516 array size;
#X obj 33 680 t b b b;
#X msg 86 966 pop \, array \$1 0 float 1;
#X msg 86 1054 pop \, array \$1 0 float 1;
#X obj 86 1032 symbol;
#X obj 86 944 symbol;
#X obj 86 1318 s pd-\$0-graph1;
#X obj 86 1362 s pd-\$0-graph2;
#X msg 530 502 1 0;
#X msg 512 656 1 0;
#X obj 480 942 sel change;
#X obj 480 964 pointer;
#X obj 512 1030 - 2;
#X obj 635 1030 - 2;
#X obj 480 920 unpack s p f, f 13;
#X obj 512 1008 get \$0-pixel y1 x1;
#X obj 480 898 r \$0-pixel;
#X obj 512 1162 set \$0-pixel y1 x1;
#X obj 635 1140 r \$0-pixelPointer;
#X obj 480 986 t b p;
#X msg 512 1140 1 0;
#X obj 512 1052 sel -1;
#X obj 512 1074 f;
#X obj 519 1492 r \$0-height;
#X obj 702 1492 r \$0-width;
#X obj 635 1074 f;
#X obj 635 1052 sel -2;
#X obj 564 1052 r \$0-y;
#X obj 687 1052 r \$0-x;
#X obj 490 238 inlet;
#X obj 512 282 unpack f f f;
#X obj 512 304 s \$0-setWidth;
#X obj 612 304 s \$0-setHeight;
#X obj 480 260 t b l;
#X obj 480 326 s \$0-reset;
#X obj 480 150 t f f;
#X obj 480 194 s \$0-color;
#X obj 124 724 r \$0-color;
#X obj 57 746 pack 0 999;
#N canvas 3 51 459 435 uniqueInvisible 0;
#X obj 109 195 t b f;
#X obj 109 239 list split;
#X obj 109 283 list;
#X obj 109 261 list split 1;
#X obj 51 195 sel;
#X obj 109 305 t l;
#X obj 51 327 list;
#X obj 51 151 t f f;
#X obj 51 129 t f b;
#X obj 51 173 div 2;
#X obj 109 173 mod 2;
#X msg 109 217 32 160;
#X obj 51 349 list tosymbol;
#X obj 51 371 outlet;
#X obj 51 85 inlet;
#X obj 51 107 expr \$0 * 1000 + $f1;
#X text 47 45 Generate a unique invisible name from a number;
#X connect 0 0 11 0;
#X connect 0 1 1 1;
#X connect 1 1 3 0;
#X connect 2 0 5 0;
#X connect 3 0 2 0;
#X connect 4 0 6 0;
#X connect 4 1 7 0;
#X connect 5 0 2 1;
#X connect 5 0 6 1;
#X connect 6 0 12 0;
#X connect 7 0 9 0;
#X connect 7 1 10 0;
#X connect 8 0 7 0;
#X connect 8 1 2 1;
#X connect 9 0 4 0;
#X connect 10 0 0 0;
#X connect 11 0 1 0;
#X connect 12 0 13 0;
#X connect 14 0 15 0;
#X connect 15 0 8 0;
#X restore 66 392 pd uniqueInvisible;
#N canvas 3 51 459 435 uniqueInvisible 0;
#X obj 109 195 t b f;
#X obj 109 239 list split;
#X obj 109 283 list;
#X obj 109 261 list split 1;
#X obj 51 195 sel;
#X obj 109 305 t l;
#X obj 51 327 list;
#X obj 51 151 t f f;
#X obj 51 129 t f b;
#X obj 51 173 div 2;
#X obj 109 173 mod 2;
#X msg 109 217 32 160;
#X obj 51 349 list tosymbol;
#X obj 51 371 outlet;
#X obj 51 85 inlet;
#X obj 51 107 expr \$0 * 1000 + $f1;
#X text 47 45 Generate a unique invisible name from a number;
#X connect 0 0 11 0;
#X connect 0 1 1 1;
#X connect 1 1 3 0;
#X connect 2 0 5 0;
#X connect 3 0 2 0;
#X connect 4 0 6 0;
#X connect 4 1 7 0;
#X connect 5 0 2 1;
#X connect 5 0 6 1;
#X connect 6 0 12 0;
#X connect 7 0 9 0;
#X connect 7 1 10 0;
#X connect 8 0 7 0;
#X connect 8 1 2 1;
#X connect 9 0 4 0;
#X connect 10 0 0 0;
#X connect 11 0 1 0;
#X connect 12 0 13 0;
#X connect 14 0 15 0;
#X connect 15 0 8 0;
#X restore 206 392 pd uniqueInvisible;
#X msg 611 238 300 200 1;
#X msg 686 238 300 200 2;
#X msg 536 238 300 200 0;
#X obj 575 1250 r \$0-mode;
#X obj 758 1250 r \$0-mode;
#X obj 480 1294 route 0 1 2;
#X obj 663 1294 route 0 1 2;
#X obj 687 1338 t f f;
#X obj 504 1382 t f f;
#X obj 785 1382 r \$0-height;
#X obj 968 1338 r \$0-width;
#X obj 536 1426 *;
#X obj 536 1404 expr if($f1 >= 0 && $f1 < $f2 \, 1 \, 0);
#X obj 719 1360 expr if($f1 >= 0 && $f1 < $f2 \, 1 \, 0);
#X obj 512 1096 s \$0-y;
#X obj 635 1096 s \$0-x;
#X obj 480 1250 r \$0-y;
#X obj 663 1250 r \$0-x;
#X obj 529 1316 s \$0-yOut;
#X obj 712 1316 s \$0-xOut;
#X obj 687 1382 s \$0-xOut;
#X obj 504 1470 s \$0-yOut;
#X obj 480 1558 s \$0-yOut;
#X obj 663 1558 s \$0-xOut;
#X obj 635 1602 r \$0-yOut;
#X obj 561 1602 r \$0-xOut;
#X obj 480 1118 t b b;
#X obj 480 1206 s \$0-event;
#X obj 480 678 t b b;
#X obj 480 854 s \$0-event;
#X obj 480 1602 r \$0-event;
#X msg 480 832 click;
#X msg 480 1184 motion;
#X obj 480 1624 pack s f f;
#X obj 480 1646 list trim;
#X obj 480 1536 clip 0;
#X obj 663 1536 clip 0;
#X obj 519 1514 - 1;
#X obj 702 1514 - 1;
#X obj 536 1448 s \$0-gate;
#X obj 480 810 t b b;
#X msg 564 832 1;
#X obj 564 854 s \$0-gate;
#X obj 480 1690 s \$0-out;
#X obj 480 1668 spigot;
#X obj 555 1646 r \$0-gate;
#X obj 57 194 s \$0-this;
#X msg 80 84 clear \, donecanvasdialog 1 -1 0 0 0 0 0 0 0 0 0;
#X msg 57 172 donecanvasdialog 1 -1 0 0 0 0 0 0 0 0 0 \, dirty 0;
#X obj 480 1272 list prepend 0;
#X obj 663 1272 list prepend 0;
#X obj 34 62 t b b b;
#X text 98 63 Clear everything and disable GOP for now;
#X text 86 348 Generate unique invisible names for the arrays;
#X text 102 437 Create pixel;
#X text 105 680 Create rectangle;
#X text 87 813 Create graphs;
#X text 174 1099 Activate GOP on everything;
#X text 169 1429 Set array sizes;
#X text 89 1540 Set array values to zero;
#X text 102 1670 Protect from save dialog;
#X text 590 370 Get click from rectangle;
#X text 587 415 Get x and y from array 1;
#X text 588 569 If y is zero get x from array 2;
#X text 682 679 Set pixel;
#X text 576 701 Reset arrays to zero;
#X text 677 480 Send x and y;
#X text 659 635 Send x and y;
#X text 563 943 Get change event from pixel;
#X text 649 1008 Get x and y from pixel;
#X text 669 1031 Undo shift;
#X text 698 524 Set pixel two pixels away to get the grab;
#X text 698 543 and reset afterwards to corner;
#X text 688 1096 Send x and y;
#X text 654 1162 Reset pixel to corner;
#X text 538 1185 Send motion event;
#X text 528 810 Open gate and send click event;
#X text 773 1272 Prepend mode;
#X text 750 1295 Route mode;
#X text 787 1316 Mode 2: Direct output;
#X text 609 1449 Mode 1: Only when inside the area \, otherwise close
gate;
#X text 716 1536 Mode 0: Clip values to zero/max;
#X text 89 327 Only proceed if area size is at least one square;
#X text 272 961 so nothing to draw;
#X text 136 944 Insert arrays into the graphs with zero size \,;
#X msg 86 1384 donecanvasdialog 1 -1 2 0 \$2 \$1 0 \$1 \$2 900 150
;
#X text 899 127 pixelSubpatch \, rectangleSubpatch \, tablesSubpatch
;
#X obj 194 216 r \$0-setHeight;
#X obj 94 216 r \$0-setWidth;
#X msg 761 238 0 0;
#X obj 226 260 s \$0-mode;
#X obj 226 238 \$3;
#X text 149 195 Get mode and dimensions;
#N canvas 80 95 1192 433 \$0-tablesSubpatch 0;
#X restore 900 150 pd \$0-tablesSubpatch;
#N canvas 3 51 450 300 \$0-rectangleSubpatch 0;
#X restore 900 150 pd \$0-rectangleSubpatch;
#N canvas 3 51 450 300 \$0-pixelSubpatch 0;
#X restore 900 150 pd \$0-pixelSubpatch;
#X obj 723 304 s \$0-setMode;
#X obj 302 216 r \$0-setMode;
#X obj 33 435 t b b b b;
#X obj 545 126 nbx 5 14 -1e+037 1e+037 0 0 empty empty color 0 -8 0
10 -262144 -1 -1 0 256;
#X obj 697 887 b;
#X obj 708 908 s \$0-pixelbang;
#X obj 42 577 cnv 15 200 100 empty empty empty 20 12 0 14 -261682 -66577
0;
#X obj 53 625 append \$0-point x0 y0;
#X obj 53 647 s \$0-pointPointer;
#X msg 53 603 200 200;
#N canvas 0 50 450 117 \$0-point 0;
#X obj 3 48 filledpolygon 555 0 1 x0(0:400)(0:400) y0(0:400)(0:400)
x0(0:400)(10:410) y0(0:400)(0:400) x0(0:400)(10:410) y0(0:400)(10:410)
x0(0:400)(0:400) y0(0:400)(10:410);
#X obj 4 27 s \$0-point;
#X obj 3 4 struct \$0-point float x0 float y0;
#X connect 2 0 1 0;
#X restore 655 75 pd \$0-point;
#X obj 905 583 cnv 15 400 200 empty empty empty 20 12 0 14 -261682
-66577 0;
#X floatatom 992 713 5 0 0 0 - - -, f 5;
#X floatatom 1033 713 5 0 0 0 - - -, f 5;
#X obj 916 688 unpack s f f;
#X symbolatom 916 713 10 0 0 0 - - -, f 10;
#X obj 915 663 r \$0-out;
#X obj 993 761 set \$0-point x0 y0;
#X obj 1116 739 r \$0-pointPointer;
#X obj 993 738 - 5;
#X obj 1054 740 - 5;
#X floatatom 1146 662 5 0 0 0 - - -, f 5;
#X floatatom 1199 663 5 0 0 0 - - -, f 5;
#X obj 1146 712 outlet;
#X obj 1146 686 pack f f;
#X obj 1146 638 get \$0-point x0 y0;
#X obj 1106 594 r \$0-point;
#X obj 1106 616 unpack s p f;
#X connect 0 0 1 0;
#X connect 0 1 10 0;
#X connect 0 1 2 0;
#X connect 1 0 112 0;
#X connect 7 0 6 2;
#X connect 8 0 9 0;
#X connect 9 0 173 0;
#X connect 9 1 89 0;
#X connect 10 0 6 0;
#X connect 11 0 6 1;
#X connect 14 0 196 0;
#X connect 15 0 93 0;
#X connect 15 0 94 0;
#X connect 16 0 90 0;
#X connect 16 1 0 0;
#X connect 17 0 113 0;
#X connect 21 0 20 2;
#X connect 22 0 20 0;
#X connect 23 0 20 1;
#X connect 24 0 17 0;
#X connect 24 1 22 0;
#X connect 24 1 18 0;
#X connect 25 0 24 0;
#X connect 28 0 39 0;
#X connect 28 0 44 0;
#X connect 28 0 46 0;
#X connect 28 0 40 0;
#X connect 28 0 41 0;
#X connect 28 0 230 0;
#X connect 31 0 139 0;
#X connect 32 0 47 1;
#X connect 33 0 61 0;
#X connect 33 1 36 0;
#X connect 35 0 34 0;
#X connect 36 0 43 0;
#X connect 38 0 97 0;
#X connect 38 0 98 0;
#X connect 39 0 29 0;
#X connect 40 0 110 0;
#X connect 41 0 111 0;
#X connect 43 0 85 0;
#X connect 43 1 86 0;
#X connect 44 0 45 0;
#X connect 46 0 30 0;
#X connect 48 0 196 0;
#X connect 49 0 51 0;
#X connect 50 0 49 0;
#X connect 52 0 53 0;
#X connect 53 0 49 4;
#X connect 53 0 248 2;
#X connect 54 0 52 0;
#X connect 55 0 56 0;
#X connect 56 0 58 2;
#X connect 57 0 55 0;
#X connect 58 0 59 0;
#X connect 60 0 64 1;
#X connect 61 0 72 0;
#X connect 61 1 109 0;
#X connect 61 1 108 0;
#X connect 62 0 35 0;
#X connect 62 1 38 0;
#X connect 63 0 62 0;
#X connect 63 1 64 0;
#X connect 64 0 103 0;
#X connect 64 0 104 0;
#X connect 65 0 67 0;
#X connect 65 0 75 0;
#X connect 66 0 68 0;
#X connect 66 0 76 0;
#X connect 69 0 28 0;
#X connect 70 0 69 1;
#X connect 71 0 28 1;
#X connect 72 0 63 0;
#X connect 72 1 69 0;
#X connect 73 0 74 0;
#X connect 73 1 65 0;
#X connect 73 2 66 0;
#X connect 73 2 236 0;
#X connect 74 0 80 0;
#X connect 75 0 77 0;
#X connect 76 0 77 1;
#X connect 77 0 74 1;
#X connect 78 0 143 0;
#X connect 79 0 144 0;
#X connect 80 0 243 0;
#X connect 80 1 79 0;
#X connect 80 1 78 0;
#X connect 83 0 89 2;
#X connect 84 0 90 2;
#X connect 85 0 42 0;
#X connect 86 0 42 0;
#X connect 89 0 16 0;
#X connect 89 1 11 0;
#X connect 89 1 3 0;
#X connect 90 0 25 0;
#X connect 90 1 23 0;
#X connect 90 1 19 0;
#X connect 91 0 93 1;
#X connect 92 0 94 1;
#X connect 95 0 109 1;
#X connect 96 0 108 1;
#X connect 99 0 97 1;
#X connect 100 0 98 1;
#X connect 101 0 103 1;
#X connect 102 0 104 1;
#X connect 105 0 33 0;
#X connect 105 1 142 0;
#X connect 105 2 57 0;
#X connect 106 0 87 0;
#X connect 107 0 88 0;
#X connect 108 0 107 0;
#X connect 109 0 106 0;
#X connect 112 0 6 0;
#X connect 113 0 20 0;
#X connect 114 0 115 0;
#X connect 115 0 123 0;
#X connect 116 0 125 0;
#X connect 117 0 130 0;
#X connect 118 0 114 0;
#X connect 118 1 115 1;
#X connect 119 0 116 0;
#X connect 119 1 117 0;
#X connect 120 0 118 0;
#X connect 120 0 245 0;
#X connect 122 0 121 2;
#X connect 123 0 171 0;
#X connect 123 1 119 0;
#X connect 124 0 121 0;
#X connect 125 0 126 0;
#X connect 125 1 159 0;
#X connect 126 0 159 0;
#X connect 127 0 182 0;
#X connect 128 0 183 0;
#X connect 129 0 160 0;
#X connect 130 0 129 0;
#X connect 130 1 160 0;
#X connect 131 0 126 1;
#X connect 132 0 129 1;
#X connect 133 0 137 0;
#X connect 134 0 135 0;
#X connect 134 1 136 0;
#X connect 134 2 241 0;
#X connect 137 0 138 0;
#X connect 137 1 134 0;
#X connect 139 0 140 0;
#X connect 139 1 47 0;
#X connect 141 0 142 1;
#X connect 142 0 58 0;
#X connect 143 0 81 0;
#X connect 144 0 82 0;
#X connect 145 0 137 0;
#X connect 146 0 137 0;
#X connect 147 0 137 0;
#X connect 148 0 194 1;
#X connect 149 0 195 1;
#X connect 150 0 180 0;
#X connect 150 1 153 0;
#X connect 150 2 163 0;
#X connect 151 0 181 0;
#X connect 151 1 152 0;
#X connect 151 2 164 0;
#X connect 152 0 165 0;
#X connect 152 1 158 0;
#X connect 153 0 166 0;
#X connect 153 1 157 0;
#X connect 154 0 157 1;
#X connect 155 0 158 1;
#X connect 156 0 184 0;
#X connect 157 0 156 0;
#X connect 158 0 156 1;
#X connect 161 0 194 0;
#X connect 162 0 195 0;
#X connect 169 0 178 2;
#X connect 170 0 178 1;
#X connect 171 0 177 0;
#X connect 171 1 124 0;
#X connect 173 0 185 0;
#X connect 173 1 15 0;
#X connect 175 0 178 0;
#X connect 176 0 174 0;
#X connect 177 0 172 0;
#X connect 178 0 179 0;
#X connect 179 0 189 0;
#X connect 180 0 167 0;
#X connect 181 0 168 0;
#X connect 182 0 180 2;
#X connect 183 0 181 2;
#X connect 185 0 176 0;
#X connect 185 1 186 0;
#X connect 186 0 187 0;
#X connect 189 0 188 0;
#X connect 190 0 189 1;
#X connect 192 0 12 0;
#X connect 192 0 13 0;
#X connect 192 0 37 0;
#X connect 193 0 191 0;
#X connect 194 0 150 0;
#X connect 195 0 151 0;
#X connect 196 0 73 0;
#X connect 196 1 193 0;
#X connect 196 2 192 0;
#X connect 230 0 27 0;
#X connect 232 0 66 1;
#X connect 233 0 65 1;
#X connect 234 0 137 0;
#X connect 236 0 235 0;
#X connect 242 0 236 1;
#X connect 243 0 105 0;
#X connect 243 1 250 0;
#X connect 243 2 50 0;
#X connect 243 3 54 0;
#X connect 244 0 139 0;
#X connect 245 0 246 0;
#X connect 248 0 249 0;
#X connect 250 0 248 0;
#X connect 253 0 260 0;
#X connect 254 0 261 0;
#X connect 255 0 256 0;
#X connect 255 1 253 0;
#X connect 255 2 254 0;
#X connect 257 0 255 0;
#X connect 259 0 258 2;
#X connect 260 0 258 0;
#X connect 261 0 258 1;
#X connect 262 0 265 0;
#X connect 263 0 265 1;
#X connect 265 0 264 0;
#X connect 266 0 262 0;
#X connect 266 1 263 0;
#X connect 267 0 268 0;
#X connect 268 1 266 0;
