#N canvas 0 25 1440 804 12;
#X text 24 204 Ahae;
#X text 35 227 1;
#X text 36 270 2;
#X text 35 319 3;
#X text 33 358 4;
#X text 37 405 5;
#X text 35 450 6;
#X text 33 496 7;
#X text 35 539 8;
#X text 33 587 9;
#X text 29 627 10;
#X text 28 675 11;
#X text 28 718 12;
#X text 27 765 13;
#X floatatom 1194 315 5 0 0 0 - 3-preset 3-preset-result 0;
#X floatatom 1194 363 5 0 0 0 - 4-preset 4-preset-result 0;
#X floatatom 1194 406 5 0 0 0 - 5-preset 5-preset-result 0;
#X floatatom 1194 448 5 0 0 0 - 6-preset 6-preset-result 0;
#X floatatom 1193 494 5 0 0 0 - 7-preset 7-preset-result 0;
#X floatatom 1198 542 5 0 0 0 - 8-preset 8-preset-result 0;
#X floatatom 1198 588 5 0 0 0 - 9-preset 9-preset-result 0;
#X floatatom 1197 631 5 0 0 0 - 10-preset 10-preset-result 0;
#X floatatom 1198 676 5 0 0 0 - 11-preset 11-preset-result 0;
#X floatatom 1198 721 5 0 0 0 - 12-preset 12-preset-result 0;
#X floatatom 1196 768 5 0 0 0 - 13-preset 13-preset-result 0;
#X obj 1326 101 PresetManager Ahae;
#X floatatom 1194 227 5 0 0 0 - 1-preset 1-preset-result 0;
#X obj 62 221 seq02 1;
#X obj 62 266 seq02 2;
#X floatatom 1192 271 5 0 0 0 - 2-preset 2-preset-result 0;
#X obj 62 311 seq02 3;
#X obj 62 356 seq02 4;
#X obj 62 401 seq02 5;
#X obj 60 447 seq02 6;
#X obj 62 495 seq02 7;
#X obj 62 536 seq02 8;
#X obj 62 581 seq02 9;
#X obj 62 627 seq02 10;
#X obj 60 672 seq02 11;
#X obj 62 716 seq02 12;
#X obj 62 761 seq02 13;
#X obj 1325 534 Xbee02;
#X floatatom 1345 75 5 0 0 2 Ahae\ Sequence\ Number num_seq_Ahae_timeline num_seq_Ahae 0;
#N canvas 187 186 1850 984 timeline 0;
#X obj 109 460 metro 1000;
#X obj 109 489 f;
#X obj 145 489 + 1;
#X obj 107 437 tgl 15 0 empty empty empty 17 7 0 10 #fcfcfc #000000 #000000 0 1;
#X floatatom 107 515 5 0 0 1 sec_global - sec_global 0;
#X obj 110 345 hsl 1024 8 0 3000 0 0 empty empty empty -2 -8 0 10 #fcfcfc #000000 #000000 0 1;
#X obj 122 404 t 1 b;
#X floatatom 1139 309 5 0 0 0 - sec_global - 0;
#X text 1138 336 50min;
#X obj 177 406 t 0 b;
#X floatatom 251 312 5 0 0 1 play\ from\ sec. - - 0;
#X obj 108 309 tgl 25 0 empty empty empty 17 7 0 10 #00ff04 #000000 #000000 0 1;
#X obj 140 309 bng 25 250 50 0 empty empty stop 25 7 0 10 #ff0400 #000000 #000000;
#X msg 61 311 0;
#X obj 222 309 tgl 25 0 empty empty empty 17 7 0 10 #c6ffc7 #000000 #000000 0 1;
#X obj 321 415 f;
#X obj 277 382 sel 1;
#X obj 228 364 t f f;
#X msg 221 269 0;
#X obj 126 367 s stop_global;
#X msg 192 461 1;
#X connect 0 0 1 0;
#X connect 1 0 2 0;
#X connect 1 0 4 0;
#X connect 2 0 1 1;
#X connect 3 0 0 0;
#X connect 6 0 3 0;
#X connect 6 1 20 0;
#X connect 7 0 5 0;
#X connect 9 0 3 0;
#X connect 9 1 20 0;
#X connect 10 0 15 1;
#X connect 11 0 6 0;
#X connect 12 0 9 0;
#X connect 12 0 13 0;
#X connect 12 0 18 0;
#X connect 12 0 19 0;
#X connect 13 0 11 0;
#X connect 14 0 17 0;
#X connect 15 0 1 1;
#X connect 16 0 15 0;
#X connect 17 0 3 0;
#X connect 17 1 16 0;
#X connect 18 0 14 0;
#X connect 20 0 1 1;
#X coords 0 -1 1 1 1100 60 2 100 300;
#X restore 64 29 pd timeline;
#X obj 65 192 tgl 15 0 enable_ahae_all empty All 17 7 0 10 #ffffff #000000 #000000 0 1;
#X obj 1240 106 send_oneshot;
#X obj 1325 175 global_messages;
#N canvas 103 492 1546 557 sequencer_main 0;
#N canvas 119 151 1636 834 16beat_sequencer 0;
#X obj 113 509 select 0 1 2 3 4 5 6 7 8 9 10 11 12 13 14 15, f 99;
#X obj 49 589 outlet;
#X obj 105 562 outlet;
#X obj 160 562 outlet;
#X obj 214 564 outlet;
#X obj 272 565 outlet;
#X obj 325 566 outlet;
#X obj 378 567 outlet;
#X obj 431 567 outlet;
#X obj 485 567 outlet;
#X obj 539 568 outlet;
#X obj 596 569 outlet;
#X obj 653 568 outlet;
#X obj 706 568 outlet;
#X obj 760 568 outlet;
#X obj 814 569 outlet;
#X obj 871 570 outlet;
#X obj 193 165 inlet;
#X obj 108 117 metro 10;
#X obj 108 149 f;
#X obj 138 147 + 1;
#X obj 120 303 / 100;
#X obj 119 333 int;
#X floatatom 119 365 5 0 0 0 - - - 0;
#X obj 324 241 s command_poll;
#X obj 121 392 change;
#X floatatom 154 278 5 0 0 0 - - - 0;
#X floatatom 152 226 14 0 0 2 interval\ in\ ms. - - 0;
#X obj 153 255 / 10;
#X obj 430 245 bng 15 250 50 0 empty empty empty 17 7 0 10 #fcfcfc #000000 #000000;
#X floatatom 119 184 5 0 0 0 - - - 0;
#X msg 179 128 0;
#X obj 323 188 % 10;
#X obj 324 213 sel 2;
#X obj 42 87 tgl 19 0 empty empty empty 0 -10 0 12 #fcfcfc #000000 #000000 0 1;
#X obj 113 19 inlet;
#X obj 110 44 t f b;
#X obj 200 41 bng 15 250 50 0 empty seq_end_bang seq_end_bang 17 7 0 10 #fcfcfc #000000 #000000;
#X msg 199 60 0, f 2;
#X obj 181 438 bng 19 250 50 0 beat empty beat 0 -10 0 12 #fcfcfc #000000 #000000;
#X floatatom 121 471 5 0 0 0 - - - 0;
#X obj 120 435 % 16;
#X obj 176 468 s global_bang;
#X obj 52 246 spigot;
#X obj 89 221 tgl 15 0 empty empty empty 17 7 0 10 #fcfcfc #000000 #000000 0 1;
#X msg 52 165 0;
#X obj 26 27 loadbang;
#X msg 34 55 1;
#X obj 320 162 spigot;
#X obj 357 137 tgl 15 0 empty empty empty 17 7 0 10 #fcfcfc #000000 #000000 0 1;
#X obj 355 106 r start_poll_Ahae;
#X obj 224 85 s global_clock_bang;
#X connect 0 0 1 0;
#X connect 0 1 2 0;
#X connect 0 2 3 0;
#X connect 0 3 4 0;
#X connect 0 4 5 0;
#X connect 0 5 6 0;
#X connect 0 6 7 0;
#X connect 0 7 8 0;
#X connect 0 8 9 0;
#X connect 0 9 10 0;
#X connect 0 10 11 0;
#X connect 0 11 12 0;
#X connect 0 12 13 0;
#X connect 0 13 14 0;
#X connect 0 14 15 0;
#X connect 0 15 16 0;
#X connect 17 0 27 0;
#X connect 18 0 19 0;
#X connect 19 0 20 0;
#X connect 19 0 30 0;
#X connect 20 0 19 1;
#X connect 21 0 22 0;
#X connect 22 0 23 0;
#X connect 23 0 25 0;
#X connect 25 0 39 0;
#X connect 25 0 41 0;
#X connect 26 0 21 1;
#X connect 27 0 28 0;
#X connect 28 0 26 0;
#X connect 30 0 43 0;
#X connect 30 0 48 0;
#X connect 30 0 51 0;
#X connect 31 0 19 1;
#X connect 32 0 33 0;
#X connect 33 0 24 0;
#X connect 33 0 29 0;
#X connect 34 0 18 0;
#X connect 35 0 36 0;
#X connect 36 0 44 0;
#X connect 36 1 31 0;
#X connect 37 0 38 0;
#X connect 38 0 31 0;
#X connect 38 0 45 0;
#X connect 40 0 42 0;
#X connect 40 0 0 0;
#X connect 41 0 40 0;
#X connect 43 0 21 0;
#X connect 44 0 43 1;
#X connect 45 0 44 0;
#X connect 46 0 47 0;
#X connect 47 0 34 0;
#X connect 48 0 32 0;
#X connect 49 0 48 1;
#X connect 50 0 49 0;
#X restore 173 59 pd 16beat_sequencer;
#X f 147;
#X obj 112 128 tgl 25 0 empty empty On/Off 0 -10 0 12 #faff00 #000000 #000000 0 1;
#X obj 165 135 bng 19 250 50 0 beat1 empty empty 0 -10 0 12 #00ff04 #000000 #000000;
#X obj 247 135 bng 19 250 50 0 beat2 empty empty 0 -10 0 12 #fcfcfc #000000 #000000;
#X obj 319 135 bng 19 250 50 0 beat3 empty empty 0 -10 0 12 #fcfcfc #000000 #000000;
#X obj 382 135 bng 19 250 50 0 beat4 empty empty 0 -10 0 12 #fcfcfc #000000 #000000;
#X obj 464 135 bng 19 250 50 0 beat5 empty empty 0 -10 0 12 #00ff04 #000000 #000000;
#X obj 529 135 bng 19 250 50 0 beat6 empty empty 0 -10 0 12 #fcfcfc #000000 #000000;
#X obj 593 135 bng 19 250 50 0 beat7 empty empty 0 -10 0 12 #fcfcfc #000000 #000000;
#X obj 655 135 bng 19 250 50 0 beat8 empty empty 0 -10 0 12 #fcfcfc #000000 #000000;
#X obj 730 135 bng 19 250 50 0 beat9 empty empty 0 -10 0 12 #00ff04 #000000 #000000;
#X obj 800 135 bng 19 250 50 0 beat10 empty empty 0 -10 0 12 #fcfcfc #000000 #000000;
#X obj 860 135 bng 19 250 50 0 beat11 empty empty 0 -10 0 12 #fcfcfc #000000 #000000;
#X obj 922 135 bng 19 250 50 0 beat12 empty empty 0 -10 0 12 #fcfcfc #000000 #000000;
#X obj 1004 135 bng 19 250 50 0 beat13 empty empty 0 -10 0 12 #00ff04 #000000 #000000;
#X obj 1063 135 bng 19 250 50 0 beat14 empty empty 0 -10 0 12 #fcfcfc #000000 #000000;
#X obj 1127 135 bng 19 250 50 0 beat15 empty empty 0 -10 0 12 #fcfcfc #000000 #000000;
#X obj 1190 135 bng 19 250 50 0 beat16 empty empty 0 -10 0 12 #fcfcfc #000000 #000000;
#X text 1191 113 interval in ms.;
#X obj 113 176 sel 0;
#X obj 157 177 s seq_stop;
#X obj 59 19 bng 15 250 50 0 empty seq_start_bang seq_start_bang 17 7 0 10 #fcfcfc #000000 #000000;
#X msg 59 37 1;
#X obj 317 21 bng 15 250 50 0 empty seq-end-bang seq-end-bang 17 7 0 10 #fcfcfc #000000 #000000;
#X msg 214 35 0;
#X obj 1239 134 nbx_pre Ahae Interval 1000;
#X obj 172 14 r stop_global;
#X obj 1239 165 s interval_ms;
#X connect 0 0 2 0;
#X connect 0 1 3 0;
#X connect 0 2 4 0;
#X connect 0 3 5 0;
#X connect 0 4 6 0;
#X connect 0 5 7 0;
#X connect 0 6 8 0;
#X connect 0 7 9 0;
#X connect 0 8 10 0;
#X connect 0 9 11 0;
#X connect 0 10 12 0;
#X connect 0 11 13 0;
#X connect 0 12 14 0;
#X connect 0 13 15 0;
#X connect 0 14 16 0;
#X connect 0 15 17 0;
#X connect 1 0 0 0;
#X connect 19 0 20 0;
#X connect 21 0 22 0;
#X connect 22 0 1 0;
#X connect 23 0 24 0;
#X connect 24 0 1 0;
#X connect 25 0 0 1;
#X connect 25 0 27 0;
#X connect 26 0 24 0;
#X coords 0 -1 1 1 1200 60 2 100 100;
#X restore 8 105 pd sequencer_main;
#N canvas 53 25 1387 720 Scene01 0;
#X text 73 1683 1-04 Go to the position;
#X text 1261 508 in case of sequential play set time 0 and connect right outlet to the next player's inlet;
#X text 1262 148 repetition = 0 continue the loop until other player plays;
#X obj 32 135 seq_player 0 0 0 1;
#X obj 647 193 seq_player 0 0 6 1;
#X obj 953 193 seq_player 4 15 7 1;
#X obj 642 313 seq_player 0 0 14 1;
#X obj 950 313 seq_player 0 0 15 1;
#X obj 337 371 seq_player 0 0 17 1;
#X text 1263 132 Set time 0 for the sequential play;
#X obj 64 1676 seq_player 0 0 1012 1;
#N canvas 147 280 1706 535 scene_transport 0;
#X obj 132 336 bng 50 250 50 0 empty empty Play\ squences\ from\ beginning 0 -10 0 12 #00ff04 #000000 #000000;
#X obj 189 362 bng 25 250 50 0 empty empty Stop 0 -5 0 10 #ff0400 #000000 #000000;
#X obj 189 413 s stop_global;
#X obj 248 186 / 60;
#X obj 293 185 % 60;
#X floatatom 247 365 5 0 0 1 min. - - 0;
#X floatatom 313 365 5 0 0 1 sec. - - 0;
#X obj 249 215 int;
#X obj 295 219 int;
#X obj 264 79 metro 1000;
#X obj 264 104 f;
#X obj 264 129 + 1;
#X floatatom 262 153 5 0 0 0 - - - 0;
#X obj 262 53 tgl 20 0 empty empty empty 0 -10 0 12 #fcfcfc #000000 #000000 0 1;
#X msg 313 116 1;
#X obj 263 21 t f b;
#X msg 262 -5 1;
#X obj 319 2 r stop_global;
#X obj 322 29 t b b;
#X msg 324 52 0;
#X obj 122 446 outlet;
#X connect 0 0 16 0;
#X connect 0 0 20 0;
#X connect 1 0 2 0;
#X connect 3 0 7 0;
#X connect 4 0 8 0;
#X connect 7 0 5 0;
#X connect 8 0 6 0;
#X connect 9 0 10 0;
#X connect 10 0 11 0;
#X connect 10 0 12 0;
#X connect 11 0 10 1;
#X connect 12 0 3 0;
#X connect 12 0 4 0;
#X connect 13 0 9 0;
#X connect 14 0 10 1;
#X connect 15 0 13 0;
#X connect 15 1 14 0;
#X connect 16 0 15 0;
#X connect 17 0 18 0;
#X connect 18 0 19 0;
#X connect 19 0 13 0;
#X coords 0 -1 1 1 300 100 2 100 300;
#X restore 32 23 pd scene_transport;
#X obj 338 134 seq_player 0 0 1 1;
#X obj 643 135 seq_player 0 0 2 1;
#X obj 948 135 seq_player 0 0 3 1;
#X obj 31 195 seq_player 0 0 4 1;
#X text 27 483 comment;
#X obj 640 566 seq_player 0 0 29 1;
#X obj 18 1265 seq_player 0 0 101 1;
#X obj 322 1265 seq_player 0 0 102 1;
#X obj 626 1264 seq_player 0 0 103 1;
#X obj 931 1264 seq_player 0 0 104 1;
#X obj 16 1340 seq_player 0 0 105 1;
#X obj 326 1340 seq_player 0 0 106 1;
#X obj 635 1340 seq_player 0 0 107 1;
#X obj 940 1339 seq_player 0 0 108 1;
#X obj 15 1412 seq_player 0 0 109 1;
#X obj 323 1411 seq_player 0 0 110 1;
#X obj 630 1411 seq_player 0 0 111 1;
#X obj 937 1412 seq_player 0 0 112 1;
#X obj 13 1474 seq_player 0 0 113 1;
#X obj 321 1473 seq_player 0 0 114 1;
#X obj 630 1473 seq_player 0 0 115 1;
#X obj 939 1472 seq_player 0 0 116 1;
#X obj 12 1538 seq_player 0 0 117 1;
#X obj 321 1538 seq_player 0 0 118 1;
#X obj 632 1538 seq_player 0 0 119 1;
#X obj 942 1538 seq_player 0 0 120 1;
#X obj 11 1600 seq_player 0 0 121 1;
#X obj 324 1601 seq_player 0 0 122 1;
#X obj 633 1600 seq_player 0 0 123 1;
#X text 29 563;
#X obj 337 194 seq_player 0 0 5 1;
#X obj 31 255 seq_player 0 0 8 1;
#X obj 338 256 seq_player 0 0 9 1;
#X obj 642 255 seq_player 0 0 10 1;
#X obj 950 255 seq_player 0 0 11 1;
#X obj 31 313 seq_player 0 0 12 1;
#X obj 338 313 seq_player 0 0 13 1;
#X obj 949 371 seq_player 0 0 19 1;
#X obj 641 371 seq_player 0 0 18 1;
#X obj 30 371 seq_player 0 0 16 1;
#X obj 30 428 seq_player 0 0 20 1;
#X obj 336 427 seq_player 0 0 21 1;
#X obj 642 427 seq_player 0 0 22 1;
#X obj 28 505 seq_player 0 0 23 1;
#X obj 334 505 seq_player 0 0 24 1;
#X obj 645 505 seq_player 0 0 25 1;
#X obj 953 506 seq_player 0 0 26 1;
#X obj 333 566 seq_player 0 0 28 1;
#X obj 27 566 seq_player 0 0 27 1;
#X obj 948 566 seq_player 0 0 30 1;
#X obj 27 640 seq_player 0 0 31 1;
#X obj 333 641 seq_player 0 0 31 1;
#X obj 640 640 seq_player 0 0 32 1;
#X obj 949 638 seq_player 0 0 33 1;
#X obj 26 725 seq_player 0 0 34 1;
#X obj 342 725 seq_player 0 0 35 1;
#X obj 659 724 seq_player 0 0 36 1;
#X obj 981 723 seq_player 0 0 37 1;
#X obj 25 798 seq_player 0 0 38 1;
#X obj 344 795 seq_player 0 0 39 1;
#X obj 666 794 seq_player 0 0 40 1;
#X obj 988 794 seq_player 0 0 41 1;
#X obj 23 878 seq_player 0 0 42 1;
#X obj 346 876 seq_player 0 0 43 1;
#X obj 659 874 seq_player 0 0 44 1;
#X obj 972 876 seq_player 0 0 45 1;
#X obj 23 947 seq_player 0 0 46 1;
#X obj 345 944 seq_player 0 0 47 1;
#X obj 659 940 seq_player 0 0 48 1;
#X obj 974 938 seq_player 0 0 49 1;
#X obj 25 1013 seq_player 0 0 50 1;
#X obj 340 1009 seq_player 0 0 51 1;
#X obj 664 1007 seq_player 0 0 52 1;
#X obj 977 1006 seq_player 0 0 53 1;
#X obj 29 1079 seq_player 0 0 54 1;
#X obj 347 1072 seq_player 0 0 55 1;
#X connect 3 1 12 0;
#X connect 4 1 5 0;
#X connect 5 1 43 0;
#X connect 6 1 7 0;
#X connect 7 1 51 0;
#X connect 8 1 50 0;
#X connect 11 0 3 0;
#X connect 12 1 13 0;
#X connect 13 1 14 0;
#X connect 14 1 15 0;
#X connect 15 1 42 0;
#X connect 17 1 61 0;
#X connect 18 1 19 0;
#X connect 19 1 20 0;
#X connect 20 1 21 0;
#X connect 21 1 22 0;
#X connect 22 1 23 0;
#X connect 23 1 24 0;
#X connect 24 1 25 0;
#X connect 25 1 26 0;
#X connect 26 1 27 0;
#X connect 27 1 28 0;
#X connect 28 1 29 0;
#X connect 29 1 30 0;
#X connect 30 1 31 0;
#X connect 31 1 32 0;
#X connect 32 1 33 0;
#X connect 33 1 34 0;
#X connect 34 1 35 0;
#X connect 35 1 36 0;
#X connect 36 1 37 0;
#X connect 37 1 38 0;
#X connect 38 1 39 0;
#X connect 39 1 40 0;
#X connect 42 1 4 0;
#X connect 43 1 44 0;
#X connect 44 1 45 0;
#X connect 45 1 46 0;
#X connect 46 1 47 0;
#X connect 47 1 48 0;
#X connect 48 1 6 0;
#X connect 49 1 52 0;
#X connect 50 1 49 0;
#X connect 51 1 8 0;
#X connect 52 1 53 0;
#X connect 53 1 54 0;
#X connect 54 1 55 0;
#X connect 55 1 56 0;
#X connect 56 1 57 0;
#X connect 57 1 58 0;
#X connect 58 1 60 0;
#X connect 59 1 17 0;
#X connect 60 1 59 0;
#X connect 61 1 62 0;
#X connect 62 1 63 0;
#X connect 63 1 64 0;
#X connect 64 1 65 0;
#X connect 65 1 66 0;
#X connect 66 1 67 0;
#X connect 67 1 68 0;
#X connect 68 1 69 0;
#X connect 69 1 70 0;
#X connect 70 1 71 0;
#X connect 71 1 72 0;
#X connect 72 1 73 0;
#X connect 73 1 74 0;
#X connect 74 1 75 0;
#X connect 75 1 76 0;
#X connect 76 1 77 0;
#X connect 77 1 78 0;
#X connect 78 1 79 0;
#X connect 79 1 80 0;
#X connect 80 1 81 0;
#X connect 81 1 82 0;
#X connect 82 1 83 0;
#X connect 83 1 84 0;
#X connect 84 1 85 0;
#X connect 85 1 86 0;
#X connect 86 1 87 0;
#X restore 1326 585 pd Scene01;
#X obj 1331 758 tgl 15 0 empty empty empty 17 7 0 10 #fcfcfc #000000 #000000 0 1;
#X obj 1331 779 s start_poll_Ahae;
#X text 1082 810 https://docs.google.com/spreadsheets/d/1ngclODFzF_eBLfeVdtzH1cyrrppL95gOLrjWChj10I4/edit?gid=0#gid=0;
#X obj 1325 559 Ahae_display01;
#X connect 49 0 50 0;
