#N canvas 825 301 879 330 12;
#X obj 79 131 inlet;
#X obj 67 203 / 256;
#X obj 67 228 int;
#X floatatom 67 255 5 0 0 0 - - - 0;
#X obj 118 204 % 256;
#X floatatom 118 253 5 0 0 0 - - - 0;
#X obj 54 298 outlet;
#X obj 116 294 outlet;
#X floatatom 148 59 5 0 0 0 - - - 0;
#X obj 252 24 r CRMuxXbee;
#X obj 340 23 r SetBaseYawZero;
#X obj 458 24 r SetBaseYawM025;
#X obj 151 128 spigot;
#X obj 188 80 \$1;
#X obj 189 57 loadbang;
#X obj 188 105 tgl 15 0 empty empty empty 17 7 0 10 #fcfcfc #000000 #000000 0 1;
#X obj 593 31 r DefaultPosition;
#X obj 341 48 r command50001;
#X msg 185 211 0;
#X obj 185 184 r seq_stop;
#X obj 149 24 r stop_Ahae;
#X connect 0 0 1 0;
#X connect 0 0 4 0;
#X connect 1 0 2 0;
#X connect 2 0 3 0;
#X connect 3 0 7 0;
#X connect 4 0 5 0;
#X connect 5 0 6 0;
#X connect 8 0 12 0;
#X connect 9 0 8 0;
#X connect 10 0 8 0;
#X connect 11 0 8 0;
#X connect 12 0 1 0;
#X connect 12 0 4 0;
#X connect 13 0 15 0;
#X connect 14 0 13 0;
#X connect 15 0 12 1;
#X connect 16 0 8 0;
#X connect 17 0 8 0;
#X connect 18 0 3 0;
#X connect 18 0 5 0;
#X connect 19 0 18 0;
#X connect 20 0 8 0;
