#N canvas 0 0 182 261 12;
#X obj 49 32 inlet;
#X obj 37 104 / 256;
#X obj 37 129 int;
#X floatatom 37 156 5 0 0 0 - - - 0;
#X obj 88 105 % 256;
#X floatatom 88 154 5 0 0 0 - - - 0;
#X obj 24 199 outlet;
#X obj 86 195 outlet;
#X connect 0 0 1 0;
#X connect 0 0 4 0;
#X connect 1 0 2 0;
#X connect 2 0 3 0;
#X connect 3 0 6 0;
#X connect 4 0 5 0;
#X connect 5 0 7 0;
