#N canvas 70 27 1850 984 12;
#X text 22 131 Ahae;
#X text 33 154 1;
#X text 34 197 2;
#X text 33 246 3;
#X text 31 285 4;
#X text 35 332 5;
#X text 33 377 6;
#X text 31 423 7;
#X text 33 466 8;
#X text 31 514 9;
#X text 27 554 10;
#X text 26 602 11;
#X text 26 645 12;
#X text 25 692 13;
#X obj 1296 29 PresetManager Ahae;
#X obj 60 148 seq02 1;
#X obj 60 193 seq02 2;
#X obj 60 238 seq02 3;
#X obj 60 283 seq02 4;
#X obj 60 328 seq02 5;
#X obj 58 374 seq02 6;
#X obj 60 422 seq02 7;
#X obj 60 463 seq02 8;
#X obj 60 508 seq02 9;
#X obj 60 554 seq02 10;
#X obj 58 599 seq02 11;
#X obj 60 643 seq02 12;
#X obj 60 688 seq02 13;
