#N canvas 78 89 1850 984 12;
#X declare -lib Gem;
#N canvas 548 46 961 843 16beat_sequencer 0;
#X obj 67 258 metro 1000;
#X text 151 256 ms. 10000ms. = 1sec;
#X obj 69 293 bng 19 250 50 0 empty empty empty 0 -10 0 12 #fcfcfc
#000000 #000000;
#X obj 72 223 tgl 19 0 empty empty empty 0 -10 0 12 #fcfcfc #000000
#000000 0 1;
#X obj 83 347 float;
#X floatatom 117 317 5 0 0 0 - - - 0;
#X obj 149 346 + 1;
#X floatatom 83 394 5 0 0 0 - - - 0;
#X floatatom 86 469 5 0 0 0 - - - 0;
#X obj 113 509 select 0 1 2 3 4 5 6 7 8 9 10 11 12 13 14 15, f 99
;
#X obj 47 562 outlet;
#X obj 105 562 outlet;
#X obj 160 562 outlet;
#X obj 214 564 outlet;
#X obj 272 565 outlet;
#X obj 325 566 outlet;
#X obj 378 567 outlet;
#X obj 431 567 outlet;
#X obj 485 567 outlet;
#X obj 539 568 outlet;
#X obj 596 569 outlet;
#X obj 653 568 outlet;
#X obj 706 568 outlet;
#X obj 760 568 outlet;
#X obj 814 569 outlet;
#X obj 871 570 outlet;
#X obj 36 180 inlet;
#X obj 176 192 inlet;
#X obj 85 433 % 16;
#X obj 212 312 bng 19 250 50 0 beat empty beat 0 -10 0 12 #fcfcfc #000000
#000000;
#X floatatom 179 235 5 0 0 0 - - - 0;
#X connect 0 0 2 0;
#X connect 0 0 29 0;
#X connect 2 0 4 0;
#X connect 3 0 0 0;
#X connect 4 0 6 0;
#X connect 4 0 7 0;
#X connect 5 0 4 1;
#X connect 6 0 4 1;
#X connect 7 0 28 0;
#X connect 8 0 9 0;
#X connect 9 0 10 0;
#X connect 9 1 11 0;
#X connect 9 2 12 0;
#X connect 9 3 13 0;
#X connect 9 4 14 0;
#X connect 9 5 15 0;
#X connect 9 6 16 0;
#X connect 9 7 17 0;
#X connect 9 8 18 0;
#X connect 9 9 19 0;
#X connect 9 10 20 0;
#X connect 9 11 21 0;
#X connect 9 12 22 0;
#X connect 9 13 23 0;
#X connect 9 14 24 0;
#X connect 9 15 25 0;
#X connect 26 0 3 0;
#X connect 27 0 30 0;
#X connect 28 0 8 0;
#X connect 30 0 0 1;
#X restore 60 79 pd 16beat_sequencer;
#X f 147;
#X obj 60 39 tgl 25 0 empty empty On/Off 0 -10 0 12 #faff00 #000000
#000000 0 1;
#X obj 60 114 bng 19 250 50 0 beat1 empty empty 0 -10 0 12 #00ff04
#000000 #000000;
#X obj 142 114 bng 19 250 50 0 beat2 empty empty 0 -10 0 12 #fcfcfc
#000000 #000000;
#X obj 214 114 bng 19 250 50 0 beat3 empty empty 0 -10 0 12 #fcfcfc
#000000 #000000;
#X obj 277 114 bng 19 250 50 0 beat4 empty empty 0 -10 0 12 #fcfcfc
#000000 #000000;
#X obj 359 114 bng 19 250 50 0 beat5 empty empty 0 -10 0 12 #00ff04
#000000 #000000;
#X obj 424 114 bng 19 250 50 0 beat6 empty empty 0 -10 0 12 #fcfcfc
#000000 #000000;
#X obj 488 114 bng 19 250 50 0 beat7 empty empty 0 -10 0 12 #fcfcfc
#000000 #000000;
#X obj 550 114 bng 19 250 50 0 beat8 empty empty 0 -10 0 12 #fcfcfc
#000000 #000000;
#X obj 625 114 bng 19 250 50 0 beat9 empty empty 0 -10 0 12 #00ff04
#000000 #000000;
#X obj 695 114 bng 19 250 50 0 beat10 empty empty 0 -10 0 12 #fcfcfc
#000000 #000000;
#X obj 755 114 bng 19 250 50 0 beat11 empty empty 0 -10 0 12 #fcfcfc
#000000 #000000;
#X obj 817 114 bng 19 250 50 0 beat12 empty empty 0 -10 0 12 #fcfcfc
#000000 #000000;
#X obj 899 114 bng 19 250 50 0 beat13 empty empty 0 -10 0 12 #00ff04
#000000 #000000;
#X obj 958 114 bng 19 250 50 0 beat14 empty empty 0 -10 0 12 #fcfcfc
#000000 #000000;
#X obj 1022 114 bng 19 250 50 0 beat15 empty empty 0 -10 0 12 #fcfcfc
#000000 #000000;
#X obj 1085 114 bng 19 250 50 0 beat16 empty empty 0 -10 0 12 #fcfcfc
#000000 #000000;
#X text 22 131 Ahae;
#X text 33 154 1;
#X text 34 197 2;
#X text 33 246 3;
#X text 31 285 4;
#X text 35 332 5;
#X text 33 377 6;
#X text 31 423 7;
#X text 33 466 8;
#X text 31 514 9;
#X text 27 554 10;
#X text 26 602 11;
#X text 26 645 12;
#X text 25 692 13;
#X floatatom 1192 242 5 0 0 0 - 3-preset 3-preset-result 0;
#X floatatom 1192 290 5 0 0 0 - 4-preset 4-preset-result 0;
#X floatatom 1192 333 5 0 0 0 - 5-preset 5-preset-result 0;
#X floatatom 1192 375 5 0 0 0 - 6-preset 6-preset-result 0;
#X floatatom 1191 421 5 0 0 0 - 7-preset 7-preset-result 0;
#X floatatom 1196 469 5 0 0 0 - 8-preset 8-preset-result 0;
#X floatatom 1196 515 5 0 0 0 - 9-preset 9-preset-result 0;
#X floatatom 1195 558 5 0 0 0 - 10-preset 10-preset-result 0;
#X floatatom 1196 603 5 0 0 0 - 11-preset 11-preset-result 0;
#X floatatom 1196 648 5 0 0 0 - 12-preset 12-preset-result 0;
#X floatatom 1194 695 5 0 0 0 - 13-preset 13-preset-result 0;
#X obj 1296 29 PresetManager Ahae;
#X floatatom 1192 154 5 0 0 0 - 1-preset 1-preset-result 0;
#X obj 60 148 seq02 1;
#X obj 1086 39 nbx_pre Ahae \$0 1000;
#X text 1062 14 interval in ms.;
#X obj 60 193 seq02 2;
#X floatatom 1190 198 5 0 0 0 - 2-preset 2-preset-result 0;
#X obj 60 238 seq02 3;
#X obj 60 283 seq02 4;
#X obj 60 328 seq02 5;
#X obj 58 374 seq02 6;
#X obj 60 422 seq02 7;
#X obj 60 463 seq02 8;
#X obj 60 508 seq02 9;
#X obj 60 554 seq02 10;
#X obj 58 599 seq02 11;
#X obj 60 643 seq02 12;
#X obj 60 688 seq02 13;
#X obj 1335 519 Xbee02;
#N canvas 679 109 996 831 Position 0;
#X obj 34 190 Pos 1;
#X floatatom 267 191 5 0 0 0 - 1-positionX - 0;
#X floatatom 311 191 5 0 0 0 - 1-positionY - 0;
#X obj 34 235 Pos 2;
#X text 71 148 Position;
#X text 61 170 X;
#X text 129 170 Y;
#X text 18 195 1;
#X text 19 238 2;
#X text 18 287 3;
#X text 16 326 4;
#X text 20 373 5;
#X text 18 418 6;
#X text 16 464 7;
#X text 18 507 8;
#X text 16 555 9;
#X text 12 595 10;
#X text 11 643 11;
#X text 11 686 12;
#X text 10 733 13;
#X obj 34 280 Pos 3;
#X obj 34 325 Pos 4;
#X obj 34 370 Pos 5;
#X obj 34 415 Pos 6;
#X obj 34 460 Pos 7;
#X obj 37 504 Pos 8;
#X obj 37 548 Pos 9;
#X obj 37 592 Pos 10;
#X obj 37 636 Pos 11;
#X obj 37 680 Pos 12;
#X obj 37 724 Pos 13;
#X floatatom 267 236 5 0 0 0 - 2-positionX - 0;
#X floatatom 311 236 5 0 0 0 - 2-positionY - 0;
#X floatatom 267 281 5 0 0 0 - 3-positionX - 0;
#X floatatom 311 281 5 0 0 0 - 3-positionY - 0;
#X floatatom 267 326 5 0 0 0 - 4-positionX - 0;
#X floatatom 311 326 5 0 0 0 - 4-positionY - 0;
#X floatatom 267 371 5 0 0 0 - 5-positionX - 0;
#X floatatom 311 371 5 0 0 0 - 5-positionY - 0;
#X floatatom 267 416 5 0 0 0 - 6-positionX - 0;
#X floatatom 311 416 5 0 0 0 - 6-positionY - 0;
#X floatatom 267 461 5 0 0 0 - 7-positionX - 0;
#X floatatom 311 461 5 0 0 0 - 7-positionY - 0;
#X floatatom 267 506 5 0 0 0 - 8-positionX - 0;
#X floatatom 311 506 5 0 0 0 - 8-positionY - 0;
#X floatatom 267 551 5 0 0 0 - 9-positionX - 0;
#X floatatom 311 551 5 0 0 0 - 9-positionY - 0;
#X floatatom 267 596 5 0 0 0 - 10-positionX - 0;
#X floatatom 311 596 5 0 0 0 - 10-positionY - 0;
#X floatatom 267 641 5 0 0 0 - 11-positionX - 0;
#X floatatom 311 641 5 0 0 0 - 11-positionY - 0;
#X floatatom 267 683 5 0 0 0 - 12-positionX - 0;
#X floatatom 311 683 5 0 0 0 - 12-positionY - 0;
#X floatatom 267 728 5 0 0 0 - 13-positionX - 0;
#X floatatom 311 728 5 0 0 0 - 13-positionY - 0;
#X floatatom 357 190 5 0 0 0 - 1-heading - 0;
#X text 187 163 heading;
#X obj 21 5 PresetManager Position;
#X text 346 7 GEM object;
#X obj 352 36 cnv 15 100 60 empty empty empty 20 12 0 14 #bcbcbc #404040
0;
#N canvas 601 466 450 300 gemwin 0;
#X obj 132 136 gemwin;
#X obj 67 89 outlet;
#X obj 67 10 inlet;
#X obj 67 41 route create;
#X msg 67 70 set destroy;
#X msg 142 68 set create;
#X msg 132 112 create \, 1;
#X msg 198 112 destroy;
#X msg 286 106 color 1 1 1;
#X obj 286 78 loadbang;
#X msg 289 134 dimen 512 512;
#X connect 2 0 3 0;
#X connect 3 0 4 0;
#X connect 3 0 6 0;
#X connect 3 1 5 0;
#X connect 3 1 7 0;
#X connect 4 0 1 0;
#X connect 5 0 1 0;
#X connect 6 0 0 0;
#X connect 7 0 0 0;
#X connect 8 0 0 0;
#X connect 9 0 8 0;
#X connect 9 0 10 0;
#X connect 10 0 0 0;
#X restore 357 75 pd gemwin;
#X msg 357 56 destroy;
#X text 353 35 Create window:;
#X obj 422 7 declare -lib Gem;
#X obj 498 101 ahae_plotter 1;
#X obj 497 131 ahae_plotter 2;
#X obj 498 159 ahae_plotter 3;
#X obj 497 189 ahae_plotter 4;
#X obj 614 100 ahae_plotter 5;
#X obj 613 130 ahae_plotter 6;
#X obj 613 158 ahae_plotter 7;
#X obj 613 188 ahae_plotter 8;
#X obj 728 100 ahae_plotter 9;
#X obj 727 130 ahae_plotter 10;
#X obj 727 158 ahae_plotter 11;
#X obj 727 188 ahae_plotter 12;
#X obj 845 101 ahae_plotter 13;
#X floatatom 41 94 5 0 0 2 Position\ Number - num_preset_pos 0;
#X connect 60 0 61 0;
#X connect 61 0 60 0;
#X restore 1361 605 pd Position;
#X floatatom 1315 115 5 0 0 2 Ahae\ Sequence\ Number - num_seq_Ahae
0;
#N canvas 187 186 1850 984 timeline 0;
#X obj 109 460 metro 1000;
#X obj 109 489 f;
#X obj 145 489 + 1;
#X obj 107 437 tgl 15 0 empty empty empty 17 7 0 10 #fcfcfc #000000
#000000 0 1;
#X floatatom 107 515 5 0 0 0 - - sec_global 0;
#X obj 110 345 hsl 1024 8 0 3000 0 0 empty empty empty -2 -8 0 10 #fcfcfc
#000000 #000000 0 1;
#X msg 192 461 0;
#X obj 122 404 t 1 b;
#X floatatom 1139 309 5 0 0 0 - sec_global - 0;
#X text 1138 336 50min;
#X obj 177 406 t 0 b;
#X floatatom 192 312 5 0 0 1 play\ from\ sec. - - 0;
#X obj 108 309 tgl 25 0 empty empty empty 17 7 0 10 #00ff04 #000000
#000000 0 1;
#X obj 140 309 bng 25 250 50 0 empty empty stop 25 7 0 10 #ff0400 #000000
#000000;
#X connect 0 0 1 0;
#X connect 1 0 2 0;
#X connect 1 0 4 0;
#X connect 2 0 1 1;
#X connect 3 0 0 0;
#X connect 6 0 1 1;
#X connect 7 0 3 0;
#X connect 7 1 6 0;
#X connect 8 0 5 0;
#X connect 10 0 3 0;
#X connect 10 1 6 0;
#X connect 11 0 1 1;
#X connect 12 0 7 0;
#X connect 13 0 10 0;
#X coords 0 -1 1 1 1100 60 2 100 300;
#X restore 57 756 pd timeline;
#X obj 1336 259 bng 50 250 50 0 empty empty STOP\ ALL\ AHAE -25 -15
0 15 #ff0400 #000000 #000000;
#N canvas 0 0 547 304 global_message 0;
#X obj 53 134 inlet;
#X obj 51 214 s stop_global;
#X obj 158 134 inlet;
#X obj 158 216 s CRMuxXbee;
#X msg 158 186 50002;
#X obj 246 133 inlet;
#X obj 246 215 s SetBaseYawZero;
#X msg 246 185 50003;
#X obj 366 133 inlet;
#X obj 366 215 s SetBaseYawM025;
#X msg 366 185 50004;
#X msg 51 184 50000;
#X connect 0 0 11 0;
#X connect 2 0 4 0;
#X connect 4 0 3 0;
#X connect 5 0 7 0;
#X connect 7 0 6 0;
#X connect 8 0 10 0;
#X connect 10 0 9 0;
#X connect 11 0 1 0;
#X restore 1336 391 pd global_message;
#X obj 1374 329 bng 25 250 50 0 empty empty CRMuxXbee 0 -5 0 10 #ff8300
#000000 #000000;
#X obj 1413 344 bng 25 250 50 0 empty empty SetBaseYawZero 0 -5 0 10
#faff00 #000000 #000000;
#X obj 1452 358 bng 25 250 50 0 empty empty SetBaseYawZero 0 -5 0 10
#feffc6 #000000 #000000;
#X obj 1335 481 tgl 25 0 empty empty Send\ Data -5 -5 0 10 #fcfcfc
#000000 #000000 0 1;
#X connect 0 0 2 0;
#X connect 0 1 3 0;
#X connect 0 2 4 0;
#X connect 0 3 5 0;
#X connect 0 4 6 0;
#X connect 0 5 7 0;
#X connect 0 6 8 0;
#X connect 0 7 9 0;
#X connect 0 8 10 0;
#X connect 0 9 11 0;
#X connect 0 10 12 0;
#X connect 0 11 13 0;
#X connect 0 12 14 0;
#X connect 0 13 15 0;
#X connect 0 14 16 0;
#X connect 0 15 17 0;
#X connect 1 0 0 0;
#X connect 46 0 0 1;
#X connect 65 0 66 0;
#X connect 67 0 66 1;
#X connect 68 0 66 2;
#X connect 69 0 66 3;
#X connect 70 0 61 0;
