#N canvas 1022 98 759 842 12;
#X declare -lib Gem;
#X obj 27 196 Pos 1;
#X obj 27 241 Pos 2;
#X text 64 154 Position;
#X text 54 176 X;
#X text 122 176 Y;
#X text 11 201 1;
#X text 12 244 2;
#X text 11 293 3;
#X text 9 332 4;
#X text 13 379 5;
#X text 11 424 6;
#X text 9 470 7;
#X text 11 513 8;
#X text 9 561 9;
#X text 5 601 10;
#X text 4 649 11;
#X text 4 692 12;
#X text 3 739 13;
#X obj 27 286 Pos 3;
#X obj 27 331 Pos 4;
#X obj 27 376 Pos 5;
#X obj 27 421 Pos 6;
#X obj 27 466 Pos 7;
#X obj 30 510 Pos 8;
#X obj 30 554 Pos 9;
#X obj 30 598 Pos 10;
#X obj 30 642 Pos 11;
#X obj 30 686 Pos 12;
#X obj 30 730 Pos 13;
#X obj 30 53 PresetManager Position;
#X text 346 7 GEM object;
#X obj 352 36 cnv 15 100 60 empty empty empty 20 12 0 14 #bcbcbc #404040 0;
#N canvas 601 466 450 300 gemwin 0;
#X obj 132 136 gemwin;
#X obj 67 89 outlet;
#X obj 67 10 inlet;
#X obj 67 41 route create;
#X msg 67 70 set destroy;
#X msg 142 68 set create;
#X msg 132 112 create \, 1;
#X msg 198 112 destroy;
#X msg 286 106 color 1 1 1;
#X obj 286 78 loadbang;
#X msg 289 134 dimen 512 512;
#X connect 2 0 3 0;
#X connect 3 0 4 0;
#X connect 3 0 6 0;
#X connect 3 1 5 0;
#X connect 3 1 7 0;
#X connect 4 0 1 0;
#X connect 5 0 1 0;
#X connect 6 0 0 0;
#X connect 7 0 0 0;
#X connect 8 0 0 0;
#X connect 9 0 8 0;
#X connect 9 0 10 0;
#X connect 10 0 0 0;
#X restore 357 75 pd gemwin;
#X msg 357 56 create;
#X text 353 35 Create window:;
#X obj 422 7 declare -lib Gem;
#X obj 874 161 ahae_plotter 1;
#X obj 873 191 ahae_plotter 2;
#X obj 874 219 ahae_plotter 3;
#X obj 873 249 ahae_plotter 4;
#X obj 990 160 ahae_plotter 5;
#X obj 989 190 ahae_plotter 6;
#X obj 989 218 ahae_plotter 7;
#X obj 989 248 ahae_plotter 8;
#X obj 1104 160 ahae_plotter 9;
#X obj 1103 190 ahae_plotter 10;
#X obj 1103 218 ahae_plotter 11;
#X obj 1103 248 ahae_plotter 12;
#X obj 1221 161 ahae_plotter 13;
#X floatatom 45 29 5 0 0 2 Position\ Number - num_seq_Position 0;
#X text 179 158 Heading in degree;
#X obj 290 167 bng 20 250 50 0 send_position_preset empty send_pos. 0 -10 0 12 #fcfcfc #000000 #000000;
#X obj 362 167 bng 20 250 50 0 send_heading_preset empty send_heading 0 -10 0 12 #fcfcfc #000000 #000000;
#X connect 32 0 33 0;
#X connect 33 0 32 0;
