#N canvas 60 20 1816 785 12;
#N canvas 548 46 961 843 16beat_sequencer 0;
#X obj 67 258 metro 1000;
#X text 151 256 ms. 10000ms. = 1sec;
#X obj 69 293 bng 19 250 50 0 empty empty empty 0 -10 0 12 #fcfcfc
#000000 #000000;
#X obj 72 223 tgl 19 0 empty empty empty 0 -10 0 12 #fcfcfc #000000
#000000 0 1;
#X obj 83 347 float;
#X floatatom 117 317 5 0 0 0 - - - 0;
#X obj 149 346 + 1;
#X floatatom 83 394 5 0 0 0 - - - 0;
#X floatatom 86 469 5 0 0 0 - - - 0;
#X obj 113 509 select 0 1 2 3 4 5 6 7 8 9 10 11 12 13 14 15, f 99
;
#X obj 47 562 outlet;
#X obj 105 562 outlet;
#X obj 160 562 outlet;
#X obj 214 564 outlet;
#X obj 272 565 outlet;
#X obj 325 566 outlet;
#X obj 378 567 outlet;
#X obj 431 567 outlet;
#X obj 485 567 outlet;
#X obj 539 568 outlet;
#X obj 596 569 outlet;
#X obj 653 568 outlet;
#X obj 706 568 outlet;
#X obj 760 568 outlet;
#X obj 814 569 outlet;
#X obj 871 570 outlet;
#X obj 36 180 inlet;
#X obj 176 192 inlet;
#X obj 85 433 % 16;
#X obj 212 312 bng 19 250 50 0 beat empty beat 0 -10 0 12 #fcfcfc #000000
#000000;
#X floatatom 179 235 5 0 0 0 - - - 0;
#X connect 0 0 2 0;
#X connect 0 0 29 0;
#X connect 2 0 4 0;
#X connect 3 0 0 0;
#X connect 4 0 6 0;
#X connect 4 0 7 0;
#X connect 5 0 4 1;
#X connect 6 0 4 1;
#X connect 7 0 28 0;
#X connect 8 0 9 0;
#X connect 9 0 10 0;
#X connect 9 1 11 0;
#X connect 9 2 12 0;
#X connect 9 3 13 0;
#X connect 9 4 14 0;
#X connect 9 5 15 0;
#X connect 9 6 16 0;
#X connect 9 7 17 0;
#X connect 9 8 18 0;
#X connect 9 9 19 0;
#X connect 9 10 20 0;
#X connect 9 11 21 0;
#X connect 9 12 22 0;
#X connect 9 13 23 0;
#X connect 9 14 24 0;
#X connect 9 15 25 0;
#X connect 26 0 3 0;
#X connect 27 0 30 0;
#X connect 28 0 8 0;
#X connect 30 0 0 1;
#X restore 60 79 pd 16beat_sequencer;
#X f 147;
#X obj 60 39 tgl 25 0 empty empty On/Off 0 -10 0 12 #faff00 #000000
#000000 0 1;
#X obj 60 114 bng 19 250 50 0 beat1 empty empty 0 -10 0 12 #00ff04
#000000 #000000;
#X obj 142 114 bng 19 250 50 0 beat2 empty empty 0 -10 0 12 #fcfcfc
#000000 #000000;
#X obj 214 114 bng 19 250 50 0 beat3 empty empty 0 -10 0 12 #fcfcfc
#000000 #000000;
#X obj 277 114 bng 19 250 50 0 beat4 empty empty 0 -10 0 12 #fcfcfc
#000000 #000000;
#X obj 359 114 bng 19 250 50 0 beat5 empty empty 0 -10 0 12 #00ff04
#000000 #000000;
#X obj 424 114 bng 19 250 50 0 beat6 empty empty 0 -10 0 12 #fcfcfc
#000000 #000000;
#X obj 488 114 bng 19 250 50 0 beat7 empty empty 0 -10 0 12 #fcfcfc
#000000 #000000;
#X obj 550 114 bng 19 250 50 0 beat8 empty empty 0 -10 0 12 #fcfcfc
#000000 #000000;
#X obj 625 114 bng 19 250 50 0 beat9 empty empty 0 -10 0 12 #00ff04
#000000 #000000;
#X obj 695 114 bng 19 250 50 0 beat10 empty empty 0 -10 0 12 #fcfcfc
#000000 #000000;
#X obj 755 114 bng 19 250 50 0 beat11 empty empty 0 -10 0 12 #fcfcfc
#000000 #000000;
#X obj 817 114 bng 19 250 50 0 beat12 empty empty 0 -10 0 12 #fcfcfc
#000000 #000000;
#X obj 899 114 bng 19 250 50 0 beat13 empty empty 0 -10 0 12 #00ff04
#000000 #000000;
#X obj 958 114 bng 19 250 50 0 beat14 empty empty 0 -10 0 12 #fcfcfc
#000000 #000000;
#X obj 1022 114 bng 19 250 50 0 beat15 empty empty 0 -10 0 12 #fcfcfc
#000000 #000000;
#X obj 1085 114 bng 19 250 50 0 beat16 empty empty 0 -10 0 12 #fcfcfc
#000000 #000000;
#X text 22 131 Ahae;
#X text 33 154 1;
#X text 34 197 2;
#X text 33 246 3;
#X text 31 285 4;
#X text 35 332 5;
#X text 33 377 6;
#X text 31 423 7;
#X text 33 466 8;
#X text 31 514 9;
#X text 27 554 10;
#X text 26 602 11;
#X text 26 645 12;
#X text 25 692 13;
#X floatatom 1192 242 5 0 0 0 - 3-preset 3-preset-result 0;
#X floatatom 1192 290 5 0 0 0 - 4-preset 4-preset-result 0;
#X floatatom 1192 333 5 0 0 0 - 5-preset 5-preset-result 0;
#X floatatom 1192 375 5 0 0 0 - 6-preset 6-preset-result 0;
#X floatatom 1191 421 5 0 0 0 - 7-preset 7-preset-result 0;
#X floatatom 1196 469 5 0 0 0 - 8-preset 8-preset-result 0;
#X floatatom 1196 515 5 0 0 0 - 9-preset 9-preset-result 0;
#X floatatom 1195 558 5 0 0 0 - 10-preset 10-preset-result 0;
#X floatatom 1196 603 5 0 0 0 - 11-preset 11-preset-result 0;
#X floatatom 1196 648 5 0 0 0 - 12-preset 12-preset-result 0;
#X floatatom 1194 695 5 0 0 0 - 13-preset 13-preset-result 0;
#X obj 1296 29 PresetManager Ahae;
#X floatatom 1192 154 5 0 0 0 - 1-preset 1-preset-result 0;
#X obj 60 148 seq02 1;
#X obj 1086 39 nbx_pre Ahae \$0 1000;
#X text 1062 14 interval in ms.;
#X obj 60 193 seq02 2;
#X floatatom 1190 198 5 0 0 0 - 2-preset 2-preset-result 0;
#X obj 60 238 seq02 3;
#X obj 60 283 seq02 4;
#X obj 60 328 seq02 5;
#X obj 60 418 seq02 6;
#X obj 60 373 seq02 7;
#X obj 60 463 seq02 8;
#X obj 60 508 seq02 9;
#X obj 60 598 seq02 10;
#X obj 60 553 seq02 11;
#X obj 60 643 seq02 12;
#X obj 60 688 seq02 13;
#X obj 1180 26 Xbee02;
#X obj 1181 76 Gem_visualizer;
#N canvas 676 71 472 805 Position 1;
#X obj 34 190 Pos 1;
#X floatatom 267 191 5 0 0 0 - 1-positionX - 0;
#X floatatom 311 191 5 0 0 0 - 1-positionY - 0;
#X obj 34 235 Pos 2;
#X text 71 148 Position;
#X text 61 170 X;
#X text 129 170 Y;
#X text 18 195 1;
#X text 19 238 2;
#X text 18 287 3;
#X text 16 326 4;
#X text 20 373 5;
#X text 18 418 6;
#X text 16 464 7;
#X text 18 507 8;
#X text 16 555 9;
#X text 12 595 10;
#X text 11 643 11;
#X text 11 686 12;
#X text 10 733 13;
#X obj 34 280 Pos 3;
#X obj 34 325 Pos 4;
#X obj 34 370 Pos 5;
#X obj 34 415 Pos 6;
#X obj 34 460 Pos 7;
#X obj 37 504 Pos 8;
#X obj 37 548 Pos 9;
#X obj 37 592 Pos 10;
#X obj 37 636 Pos 11;
#X obj 37 680 Pos 12;
#X obj 37 724 Pos 13;
#X floatatom 267 236 5 0 0 0 - 2-positionX - 0;
#X floatatom 311 236 5 0 0 0 - 2-positionY - 0;
#X floatatom 267 281 5 0 0 0 - 3-positionX - 0;
#X floatatom 311 281 5 0 0 0 - 3-positionY - 0;
#X floatatom 267 326 5 0 0 0 - 4-positionX - 0;
#X floatatom 311 326 5 0 0 0 - 4-positionY - 0;
#X floatatom 267 371 5 0 0 0 - 5-positionX - 0;
#X floatatom 311 371 5 0 0 0 - 5-positionY - 0;
#X floatatom 267 416 5 0 0 0 - 6-positionX - 0;
#X floatatom 311 416 5 0 0 0 - 6-positionY - 0;
#X floatatom 267 461 5 0 0 0 - 7-positionX - 0;
#X floatatom 311 461 5 0 0 0 - 7-positionY - 0;
#X floatatom 267 506 5 0 0 0 - 8-positionX - 0;
#X floatatom 311 506 5 0 0 0 - 8-positionY - 0;
#X floatatom 267 551 5 0 0 0 - 9-positionX - 0;
#X floatatom 311 551 5 0 0 0 - 9-positionY - 0;
#X floatatom 267 596 5 0 0 0 - 10-positionX - 0;
#X floatatom 311 596 5 0 0 0 - 10-positionY - 0;
#X floatatom 267 641 5 0 0 0 - 11-positionX - 0;
#X floatatom 311 641 5 0 0 0 - 11-positionY - 0;
#X floatatom 267 683 5 0 0 0 - 12-positionX - 0;
#X floatatom 311 683 5 0 0 0 - 12-positionY - 0;
#X floatatom 267 728 5 0 0 0 - 13-positionX - 0;
#X floatatom 311 728 5 0 0 0 - 13-positionY - 0;
#X floatatom 357 190 5 0 0 0 - 1-heading - 0;
#X text 187 163 heading;
#X obj 35 52 PresetManager Position;
#X restore 1181 51 pd Position;
#X connect 0 0 2 0;
#X connect 0 1 3 0;
#X connect 0 2 4 0;
#X connect 0 3 5 0;
#X connect 0 4 6 0;
#X connect 0 5 7 0;
#X connect 0 6 8 0;
#X connect 0 7 9 0;
#X connect 0 8 10 0;
#X connect 0 9 11 0;
#X connect 0 10 12 0;
#X connect 0 11 13 0;
#X connect 0 12 14 0;
#X connect 0 13 15 0;
#X connect 0 14 16 0;
#X connect 0 15 17 0;
#X connect 1 0 0 0;
#X connect 46 0 0 1;
