#N canvas 138 92 1550 858 12;
#X text 24 204 Ahae;
#X text 35 227 1;
#X text 36 270 2;
#X text 35 319 3;
#X text 33 358 4;
#X text 37 405 5;
#X text 35 450 6;
#X text 33 496 7;
#X text 35 539 8;
#X text 33 587 9;
#X text 29 627 10;
#X text 28 675 11;
#X text 28 718 12;
#X text 27 765 13;
#X floatatom 1194 315 5 0 0 0 - 3-preset 3-preset-result 0;
#X floatatom 1194 363 5 0 0 0 - 4-preset 4-preset-result 0;
#X floatatom 1194 406 5 0 0 0 - 5-preset 5-preset-result 0;
#X floatatom 1194 448 5 0 0 0 - 6-preset 6-preset-result 0;
#X floatatom 1193 494 5 0 0 0 - 7-preset 7-preset-result 0;
#X floatatom 1198 542 5 0 0 0 - 8-preset 8-preset-result 0;
#X floatatom 1198 588 5 0 0 0 - 9-preset 9-preset-result 0;
#X floatatom 1197 631 5 0 0 0 - 10-preset 10-preset-result 0;
#X floatatom 1198 676 5 0 0 0 - 11-preset 11-preset-result 0;
#X floatatom 1198 721 5 0 0 0 - 12-preset 12-preset-result 0;
#X floatatom 1196 768 5 0 0 0 - 13-preset 13-preset-result 0;
#X obj 1326 101 PresetManager Ahae;
#X floatatom 1194 227 5 0 0 0 - 1-preset 1-preset-result 0;
#X obj 62 221 seq02 1;
#X obj 62 266 seq02 2;
#X floatatom 1192 271 5 0 0 0 - 2-preset 2-preset-result 0;
#X obj 62 311 seq02 3;
#X obj 62 356 seq02 4;
#X obj 62 401 seq02 5;
#X obj 60 447 seq02 6;
#X obj 62 495 seq02 7;
#X obj 62 536 seq02 8;
#X obj 62 581 seq02 9;
#X obj 62 627 seq02 10;
#X obj 60 672 seq02 11;
#X obj 62 716 seq02 12;
#X obj 62 761 seq02 13;
#X obj 1325 534 Xbee02;
#X floatatom 1345 75 5 0 0 2 Ahae\ Sequence\ Number num_seq_Ahae_timeline
num_seq_Ahae 0;
#N canvas 187 186 1850 984 timeline 0;
#X obj 109 460 metro 1000;
#X obj 109 489 f;
#X obj 145 489 + 1;
#X obj 107 437 tgl 15 0 empty empty empty 17 7 0 10 #fcfcfc #000000
#000000 0 1;
#X floatatom 107 515 5 0 0 1 sec_global - sec_global 0;
#X obj 110 345 hsl 1024 8 0 3000 0 0 empty empty empty -2 -8 0 10 #fcfcfc
#000000 #000000 0 1;
#X msg 192 461 0;
#X obj 122 404 t 1 b;
#X floatatom 1139 309 5 0 0 0 - sec_global - 0;
#X text 1138 336 50min;
#X obj 177 406 t 0 b;
#X floatatom 251 312 5 0 0 1 play\ from\ sec. - - 0;
#X obj 108 309 tgl 25 0 empty empty empty 17 7 0 10 #00ff04 #000000
#000000 0 1;
#X obj 140 309 bng 25 250 50 0 empty empty stop 25 7 0 10 #ff0400 #000000
#000000;
#X msg 61 311 0;
#X obj 222 309 tgl 25 0 empty empty empty 17 7 0 10 #c6ffc7 #000000
#000000 0 1;
#X obj 321 415 f;
#X obj 277 382 sel 1;
#X obj 228 364 t f f;
#X msg 221 269 0;
#X connect 0 0 1 0;
#X connect 1 0 2 0;
#X connect 1 0 4 0;
#X connect 2 0 1 1;
#X connect 3 0 0 0;
#X connect 6 0 1 1;
#X connect 7 0 3 0;
#X connect 7 1 6 0;
#X connect 8 0 5 0;
#X connect 10 0 3 0;
#X connect 10 1 6 0;
#X connect 11 0 16 1;
#X connect 12 0 7 0;
#X connect 13 0 10 0;
#X connect 13 0 14 0;
#X connect 13 0 19 0;
#X connect 14 0 12 0;
#X connect 15 0 18 0;
#X connect 16 0 1 1;
#X connect 17 0 16 0;
#X connect 18 0 3 0;
#X connect 18 1 17 0;
#X connect 19 0 15 0;
#X coords 0 -1 1 1 1100 60 2 100 300;
#X restore 64 29 pd timeline;
#X obj 65 192 tgl 15 0 enable_ahae_all empty All 17 7 0 10 #ffffff
#000000 #000000 0 1;
#X obj 1240 106 send_oneshot;
#X obj 1325 175 global_messages;
#N canvas 900 359 764 394 sequence_player 0;
#X obj 29 14 seq_player 0 1 1 1;
#X obj 27 79 seq_player 0 30 6 2;
#X obj 27 148 seq_player 1 30 7 1;
#X obj 459 56 seq_player 20 30 20 2;
#X restore 1326 560 pd sequence_player;
#N canvas 148 446 1546 557 sequencer_main 0;
#N canvas 144 120 1263 818 16beat_sequencer 0;
#X obj 67 258 metro 1000;
#X text 151 256 ms. 10000ms. = 1sec;
#X obj 69 293 bng 19 250 50 0 empty empty empty 0 -10 0 12 #fcfcfc
#000000 #000000;
#X obj 43 205 tgl 19 0 empty empty empty 0 -10 0 12 #fcfcfc #000000
#000000 0 1;
#X obj 83 347 float;
#X floatatom 117 317 5 0 0 0 - - - 0;
#X obj 149 346 + 1;
#X floatatom 83 394 5 0 0 0 - - - 0;
#X floatatom 86 469 5 0 0 0 - - - 0;
#X obj 113 509 select 0 1 2 3 4 5 6 7 8 9 10 11 12 13 14 15, f 99
;
#X obj 47 562 outlet;
#X obj 105 562 outlet;
#X obj 160 562 outlet;
#X obj 214 564 outlet;
#X obj 272 565 outlet;
#X obj 325 566 outlet;
#X obj 378 567 outlet;
#X obj 431 567 outlet;
#X obj 485 567 outlet;
#X obj 539 568 outlet;
#X obj 596 569 outlet;
#X obj 653 568 outlet;
#X obj 706 568 outlet;
#X obj 760 568 outlet;
#X obj 814 569 outlet;
#X obj 871 570 outlet;
#X obj 65 135 inlet;
#X obj 176 192 inlet;
#X obj 85 433 % 16;
#X obj 212 312 bng 19 250 50 0 beat empty beat 0 -10 0 12 #fcfcfc #000000
#000000;
#X floatatom 179 235 5 0 0 0 - - - 0;
#X obj 175 450 s global_bang;
#X obj 56 168 t f b;
#X msg 115 287 0;
#X obj 713 217 / 16;
#X obj 715 242 int;
#X obj 123 64 bng 15 250 50 0 empty seq_end_bang seq_end_bang 17 7
0 10 #fcfcfc #000000 #000000;
#X obj 764 216 r num_repetition;
#X floatatom 715 269 5 0 0 0 - - - 0;
#X obj 668 427 bng 15 250 50 0 seq_end_bang empty seq_end_bang 17 7
0 10 #fcfcfc #000000 #000000;
#X msg 150 154 0;
#X obj 764 261 - 1;
#X text 863 274 stop after 16th beat;
#X obj 655 320 == 15;
#X obj 741 322 ==;
#X obj 664 352 tgl 15 0 empty empty empty 17 7 0 10 #fcfcfc #000000
#000000 0 1;
#X obj 681 351 tgl 15 0 empty empty empty 17 7 0 10 #fcfcfc #000000
#000000 0 1;
#X msg 813 263 1;
#X msg 646 256 0;
#X obj 664 374 +;
#X obj 668 400 sel 2;
#X connect 0 0 2 0;
#X connect 0 0 29 0;
#X connect 2 0 4 0;
#X connect 3 0 0 0;
#X connect 4 0 6 0;
#X connect 4 0 7 0;
#X connect 5 0 4 1;
#X connect 6 0 4 1;
#X connect 7 0 28 0;
#X connect 7 0 34 0;
#X connect 8 0 9 0;
#X connect 8 0 31 0;
#X connect 8 0 43 0;
#X connect 9 0 10 0;
#X connect 9 1 11 0;
#X connect 9 2 12 0;
#X connect 9 3 13 0;
#X connect 9 4 14 0;
#X connect 9 5 15 0;
#X connect 9 6 16 0;
#X connect 9 7 17 0;
#X connect 9 8 18 0;
#X connect 9 9 19 0;
#X connect 9 10 20 0;
#X connect 9 11 21 0;
#X connect 9 12 22 0;
#X connect 9 13 23 0;
#X connect 9 14 24 0;
#X connect 9 15 25 0;
#X connect 26 0 32 0;
#X connect 27 0 30 0;
#X connect 28 0 8 0;
#X connect 30 0 0 1;
#X connect 32 0 3 0;
#X connect 32 1 33 0;
#X connect 33 0 5 0;
#X connect 34 0 35 0;
#X connect 35 0 38 0;
#X connect 36 0 40 0;
#X connect 36 0 33 0;
#X connect 37 0 41 0;
#X connect 38 0 44 0;
#X connect 40 0 3 0;
#X connect 41 0 44 1;
#X connect 43 0 45 0;
#X connect 44 0 46 0;
#X connect 45 0 49 0;
#X connect 46 0 49 1;
#X connect 47 0 41 0;
#X connect 48 0 38 0;
#X connect 49 0 50 0;
#X connect 50 0 39 0;
#X restore 173 59 pd 16beat_sequencer;
#X f 147;
#X obj 112 128 tgl 25 0 empty empty On/Off 0 -10 0 12 #faff00 #000000
#000000 0 1;
#X obj 165 135 bng 19 250 50 0 beat1 empty empty 0 -10 0 12 #00ff04
#000000 #000000;
#X obj 247 135 bng 19 250 50 0 beat2 empty empty 0 -10 0 12 #fcfcfc
#000000 #000000;
#X obj 319 135 bng 19 250 50 0 beat3 empty empty 0 -10 0 12 #fcfcfc
#000000 #000000;
#X obj 382 135 bng 19 250 50 0 beat4 empty empty 0 -10 0 12 #fcfcfc
#000000 #000000;
#X obj 464 135 bng 19 250 50 0 beat5 empty empty 0 -10 0 12 #00ff04
#000000 #000000;
#X obj 529 135 bng 19 250 50 0 beat6 empty empty 0 -10 0 12 #fcfcfc
#000000 #000000;
#X obj 593 135 bng 19 250 50 0 beat7 empty empty 0 -10 0 12 #fcfcfc
#000000 #000000;
#X obj 655 135 bng 19 250 50 0 beat8 empty empty 0 -10 0 12 #fcfcfc
#000000 #000000;
#X obj 730 135 bng 19 250 50 0 beat9 empty empty 0 -10 0 12 #00ff04
#000000 #000000;
#X obj 800 135 bng 19 250 50 0 beat10 empty empty 0 -10 0 12 #fcfcfc
#000000 #000000;
#X obj 860 135 bng 19 250 50 0 beat11 empty empty 0 -10 0 12 #fcfcfc
#000000 #000000;
#X obj 922 135 bng 19 250 50 0 beat12 empty empty 0 -10 0 12 #fcfcfc
#000000 #000000;
#X obj 1004 135 bng 19 250 50 0 beat13 empty empty 0 -10 0 12 #00ff04
#000000 #000000;
#X obj 1063 135 bng 19 250 50 0 beat14 empty empty 0 -10 0 12 #fcfcfc
#000000 #000000;
#X obj 1127 135 bng 19 250 50 0 beat15 empty empty 0 -10 0 12 #fcfcfc
#000000 #000000;
#X obj 1190 135 bng 19 250 50 0 beat16 empty empty 0 -10 0 12 #fcfcfc
#000000 #000000;
#X obj 1239 134 nbx_pre Ahae \$0 1000;
#X text 1191 113 interval in ms.;
#X obj 113 176 sel 0;
#X obj 157 177 s seq_stop;
#X obj 59 19 bng 15 250 50 0 empty seq_start_bang seq_start_bang 17
7 0 10 #fcfcfc #000000 #000000;
#X msg 59 37 1;
#X obj 33 61 bng 15 250 50 0 empty seq_end_bang seq_end_bang 17 7 0
10 #fcfcfc #000000 #000000;
#X msg 33 86 0;
#X connect 0 0 2 0;
#X connect 0 1 3 0;
#X connect 0 2 4 0;
#X connect 0 3 5 0;
#X connect 0 4 6 0;
#X connect 0 5 7 0;
#X connect 0 6 8 0;
#X connect 0 7 9 0;
#X connect 0 8 10 0;
#X connect 0 9 11 0;
#X connect 0 10 12 0;
#X connect 0 11 13 0;
#X connect 0 12 14 0;
#X connect 0 13 15 0;
#X connect 0 14 16 0;
#X connect 0 15 17 0;
#X connect 1 0 0 0;
#X connect 1 0 20 0;
#X connect 18 0 0 1;
#X connect 20 0 21 0;
#X connect 22 0 23 0;
#X connect 23 0 1 0;
#X connect 24 0 25 0;
#X connect 25 0 1 0;
#X coords 0 -1 1 1 1200 60 2 100 100;
#X restore 8 105 pd sequencer_main;
#X floatatom 1402 706 5 0 0 2 X\ in\ m. - - 0;
#X floatatom 1469 705 5 0 0 2 Y\ in\ m. - - 0;
#X floatatom 1402 761 5 0 0 0 - - - 0;
#N canvas 625 230 450 300 pos_cal 0;
#X floatatom 187 213 5 0 0 0 - - - 0;
#X obj 99 63 inlet;
#X obj 99 128 * 1000;
#X obj 208 120 * 10;
#X obj 209 65 inlet;
#X obj 187 158 +;
#X obj 187 183 + 10000;
#X obj 188 244 outlet;
#X floatatom 98 97 5 0 0 0 - - - 0;
#X connect 0 0 7 0;
#X connect 1 0 8 0;
#X connect 2 0 5 0;
#X connect 3 0 5 1;
#X connect 4 0 3 0;
#X connect 4 0 8 0;
#X connect 5 0 6 0;
#X connect 6 0 0 0;
#X connect 8 0 2 0;
#X restore 1402 733 pd pos_cal;
#X connect 49 0 52 0;
#X connect 50 0 52 1;
#X connect 52 0 51 0;
