#N canvas 885 306 889 503 12;
#X obj 230 374 gemhead;
#X obj 233 36 gemhead;
#X obj 232 281 pix_texture;
#X floatatom 268 188 5 0 0 1 X[deg] - - 0;
#X floatatom 288 208 5 0 0 1 Y[deg] - - 0;
#X floatatom 312 228 5 0 0 1 Z[deg] - - 0;
#X floatatom 269 90 5 0 0 0 X - - 0;
#X floatatom 309 107 5 0 0 0 Y - - 0;
#X floatatom 350 122 5 0 0 0 Z - - 0;
#X floatatom 277 309 5 0 0 0 - - - 0;
#X floatatom 330 307 5 0 0 0 - - - 0;
#X obj 233 252 rotateXYZ 0 0 0;
#X obj 233 146 translateXYZ 0 0 0;
#X obj 536 171 vsl 15 128 -180 180 0 0 empty empty empty 0 -9 0 10
#fcfcfc #000000 #000000 0 1;
#X obj 232 342 rectangle 0.4 0.23;
#X obj 509 168 vsl 15 128 -5 5 0 0 empty empty empty 0 -9 0 10 #fcfcfc
#000000 #000000 0 1;
#X obj 484 168 vsl 15 128 -5 5 0 0 empty empty empty 0 -9 0 10 #fcfcfc
#000000 #000000 0 1;
#X obj 233 61 pix_image ./images/png/\$1.png, f 33;
#X msg 398 114 -1;
#X obj 398 89 loadbang;
#X floatatom 593 44 5 0 0 0 - \$1-positionX - 0;
#X floatatom 643 42 5 0 0 0 - \$1-positionY - 0;
#X text 595 18 0~9;
#X obj 594 71 / 9;
#X obj 593 98 * 10;
#X obj 593 128 - 5;
#X obj 642 70 / 9;
#X obj 641 97 * 10;
#X obj 641 127 - 5;
#X floatatom 650 163 5 0 0 0 - \$1-heading - 0;
#X obj 641 210 - 180;
#X connect 1 0 17 0;
#X connect 2 0 14 0;
#X connect 3 0 11 1;
#X connect 4 0 11 2;
#X connect 5 0 11 3;
#X connect 6 0 12 1;
#X connect 7 0 12 2;
#X connect 8 0 12 3;
#X connect 9 0 14 1;
#X connect 10 0 14 2;
#X connect 11 0 2 0;
#X connect 12 0 11 0;
#X connect 13 0 5 0;
#X connect 15 0 7 0;
#X connect 16 0 6 0;
#X connect 17 0 12 0;
#X connect 18 0 8 0;
#X connect 19 0 18 0;
#X connect 20 0 23 0;
#X connect 21 0 26 0;
#X connect 23 0 24 0;
#X connect 24 0 25 0;
#X connect 25 0 16 0;
#X connect 26 0 27 0;
#X connect 27 0 28 0;
#X connect 28 0 15 0;
#X connect 29 0 30 0;
#X connect 30 0 13 0;
