#N canvas 746 146 1654 720 12;
#X declare -lib Gem;
#X text 2 10 GEM object;
#X obj 8 39 cnv 15 100 60 empty empty empty 20 12 0 14 #bcbcbc #404040
0;
#N canvas 601 466 450 300 gemwin 0;
#X obj 132 136 gemwin;
#X obj 67 89 outlet;
#X obj 67 10 inlet;
#X obj 67 41 route create;
#X msg 67 70 set destroy;
#X msg 142 68 set create;
#X msg 132 112 create \, 1;
#X msg 198 112 destroy;
#X msg 286 106 color 1 1 1;
#X obj 286 78 loadbang;
#X msg 289 134 dimen 1024 768;
#X connect 2 0 3 0;
#X connect 3 0 4 0;
#X connect 3 0 6 0;
#X connect 3 1 5 0;
#X connect 3 1 7 0;
#X connect 4 0 1 0;
#X connect 5 0 1 0;
#X connect 6 0 0 0;
#X connect 7 0 0 0;
#X connect 8 0 0 0;
#X connect 9 0 8 0;
#X connect 9 0 10 0;
#X connect 10 0 0 0;
#X restore 13 78 pd gemwin;
#X msg 13 59 destroy;
#X text 9 38 Create window:;
#X obj 230 374 gemhead;
#X obj 78 10 declare -lib Gem;
#X obj 229 619 pix_texture;
#X floatatom 265 526 5 0 0 1 X[deg] - - 0;
#X floatatom 285 546 5 0 0 1 Y[deg] - - 0;
#X floatatom 309 566 5 0 0 1 Z[deg] - - 0;
#X floatatom 266 428 5 0 0 0 X - - 0;
#X floatatom 306 445 5 0 0 0 Y - - 0;
#X floatatom 347 460 5 0 0 0 Z - - 0;
#X floatatom 274 647 5 0 0 0 - - - 0;
#X floatatom 327 645 5 0 0 0 - - - 0;
#X obj 230 590 rotateXYZ 0 0 0;
#X obj 230 484 translateXYZ 0 0 0;
#X obj 535 425 vsl 15 128 0 360 0 0 empty empty empty 0 -9 0 10 #fcfcfc
#000000 #000000 0 1;
#X obj 229 680 rectangle 0.4 0.23;
#X obj 508 422 vsl 15 128 -4 4 0 0 empty empty empty 0 -9 0 10 #fcfcfc
#000000 #000000 0 1;
#X obj 483 422 vsl 15 128 -5 5 0 0 empty empty empty 0 -9 0 10 #fcfcfc
#000000 #000000 0 1;
#X obj 562 381 gemhead;
#X obj 561 626 pix_texture;
#X floatatom 597 533 5 0 0 1 X[deg] - - 0;
#X floatatom 617 553 5 0 0 1 Y[deg] - - 0;
#X floatatom 641 573 5 0 0 1 Z[deg] - - 0;
#X floatatom 598 435 5 0 0 0 X - - 0;
#X floatatom 638 452 5 0 0 0 Y - - 0;
#X floatatom 679 467 5 0 0 0 Z - - 0;
#X floatatom 606 654 5 0 0 0 - - - 0;
#X floatatom 659 652 5 0 0 0 - - - 0;
#X obj 562 597 rotateXYZ 0 0 0;
#X obj 562 491 translateXYZ 0 0 0;
#X obj 867 432 vsl 15 128 0 360 0 0 empty empty empty 0 -9 0 10 #fcfcfc
#000000 #000000 0 1;
#X obj 561 687 rectangle 0.4 0.23;
#X obj 840 429 vsl 15 128 -4 4 0 0 empty empty empty 0 -9 0 10 #fcfcfc
#000000 #000000 0 1;
#X obj 815 429 vsl 15 128 -5 5 0 0 empty empty empty 0 -9 0 10 #fcfcfc
#000000 #000000 0 1;
#X obj 892 372 gemhead;
#X obj 891 617 pix_texture;
#X floatatom 927 524 5 0 0 1 X[deg] - - 0;
#X floatatom 947 544 5 0 0 1 Y[deg] - - 0;
#X floatatom 971 564 5 0 0 1 Z[deg] - - 0;
#X floatatom 928 426 5 0 0 0 X - - 0;
#X floatatom 968 443 5 0 0 0 Y - - 0;
#X floatatom 1009 458 5 0 0 0 Z - - 0;
#X floatatom 936 645 5 0 0 0 - - - 0;
#X floatatom 989 643 5 0 0 0 - - - 0;
#X obj 892 588 rotateXYZ 0 0 0;
#X obj 892 482 translateXYZ 0 0 0;
#X obj 1197 423 vsl 15 128 0 360 0 0 empty empty empty 0 -9 0 10 #fcfcfc
#000000 #000000 0 1;
#X obj 891 678 rectangle 0.4 0.23;
#X obj 1170 420 vsl 15 128 -4 4 0 0 empty empty empty 0 -9 0 10 #fcfcfc
#000000 #000000 0 1;
#X obj 1145 420 vsl 15 128 -5 5 0 0 empty empty empty 0 -9 0 10 #fcfcfc
#000000 #000000 0 1;
#X obj 1224 379 gemhead;
#X obj 1223 624 pix_texture;
#X floatatom 1259 531 5 0 0 1 X[deg] - - 0;
#X floatatom 1279 551 5 0 0 1 Y[deg] - - 0;
#X floatatom 1303 571 5 0 0 1 Z[deg] - - 0;
#X floatatom 1260 433 5 0 0 0 X - - 0;
#X floatatom 1300 450 5 0 0 0 Y - - 0;
#X floatatom 1341 465 5 0 0 0 Z - - 0;
#X floatatom 1268 652 5 0 0 0 - - - 0;
#X floatatom 1321 650 5 0 0 0 - - - 0;
#X obj 1224 595 rotateXYZ 0 0 0;
#X obj 1224 489 translateXYZ 0 0 0;
#X obj 1529 430 vsl 15 128 0 360 0 0 empty empty empty 0 -9 0 10 #fcfcfc
#000000 #000000 0 1;
#X obj 1223 685 rectangle 0.4 0.23;
#X obj 1502 427 vsl 15 128 -4 4 0 0 empty empty empty 0 -9 0 10 #fcfcfc
#000000 #000000 0 1;
#X obj 1477 427 vsl 15 128 -5 5 0 0 empty empty empty 0 -9 0 10 #fcfcfc
#000000 #000000 0 1;
#X obj 225 722 gemhead;
#X obj 224 967 pix_texture;
#X floatatom 260 874 5 0 0 1 X[deg] - - 0;
#X floatatom 280 894 5 0 0 1 Y[deg] - - 0;
#X floatatom 304 914 5 0 0 1 Z[deg] - - 0;
#X floatatom 261 776 5 0 0 0 X - - 0;
#X floatatom 301 793 5 0 0 0 Y - - 0;
#X floatatom 342 808 5 0 0 0 Z - - 0;
#X floatatom 269 995 5 0 0 0 - - - 0;
#X floatatom 322 993 5 0 0 0 - - - 0;
#X obj 225 938 rotateXYZ 0 0 0;
#X obj 225 832 translateXYZ 0 0 0;
#X obj 530 773 vsl 15 128 0 360 0 0 empty empty empty 0 -9 0 10 #fcfcfc
#000000 #000000 0 1;
#X obj 224 1028 rectangle 0.4 0.23;
#X obj 503 770 vsl 15 128 -4 4 0 0 empty empty empty 0 -9 0 10 #fcfcfc
#000000 #000000 0 1;
#X obj 478 770 vsl 15 128 -5 5 0 0 empty empty empty 0 -9 0 10 #fcfcfc
#000000 #000000 0 1;
#X obj 557 729 gemhead;
#X obj 556 974 pix_texture;
#X floatatom 592 881 5 0 0 1 X[deg] - - 0;
#X floatatom 612 901 5 0 0 1 Y[deg] - - 0;
#X floatatom 636 921 5 0 0 1 Z[deg] - - 0;
#X floatatom 593 783 5 0 0 0 X - - 0;
#X floatatom 633 800 5 0 0 0 Y - - 0;
#X floatatom 674 815 5 0 0 0 Z - - 0;
#X floatatom 601 1002 5 0 0 0 - - - 0;
#X floatatom 654 1000 5 0 0 0 - - - 0;
#X obj 557 945 rotateXYZ 0 0 0;
#X obj 557 839 translateXYZ 0 0 0;
#X obj 862 780 vsl 15 128 0 360 0 0 empty empty empty 0 -9 0 10 #fcfcfc
#000000 #000000 0 1;
#X obj 556 1035 rectangle 0.4 0.23;
#X obj 835 777 vsl 15 128 -4 4 0 0 empty empty empty 0 -9 0 10 #fcfcfc
#000000 #000000 0 1;
#X obj 810 777 vsl 15 128 -5 5 0 0 empty empty empty 0 -9 0 10 #fcfcfc
#000000 #000000 0 1;
#X obj 887 720 gemhead;
#X obj 886 965 pix_texture;
#X floatatom 922 872 5 0 0 1 X[deg] - - 0;
#X floatatom 942 892 5 0 0 1 Y[deg] - - 0;
#X floatatom 966 912 5 0 0 1 Z[deg] - - 0;
#X floatatom 923 774 5 0 0 0 X - - 0;
#X floatatom 963 791 5 0 0 0 Y - - 0;
#X floatatom 1004 806 5 0 0 0 Z - - 0;
#X floatatom 931 993 5 0 0 0 - - - 0;
#X floatatom 984 991 5 0 0 0 - - - 0;
#X obj 887 936 rotateXYZ 0 0 0;
#X obj 887 830 translateXYZ 0 0 0;
#X obj 1192 771 vsl 15 128 0 360 0 0 empty empty empty 0 -9 0 10 #fcfcfc
#000000 #000000 0 1;
#X obj 886 1026 rectangle 0.4 0.23;
#X obj 1165 768 vsl 15 128 -4 4 0 0 empty empty empty 0 -9 0 10 #fcfcfc
#000000 #000000 0 1;
#X obj 1140 768 vsl 15 128 -5 5 0 0 empty empty empty 0 -9 0 10 #fcfcfc
#000000 #000000 0 1;
#X obj 1219 727 gemhead;
#X obj 1218 972 pix_texture;
#X floatatom 1254 879 5 0 0 1 X[deg] - - 0;
#X floatatom 1274 899 5 0 0 1 Y[deg] - - 0;
#X floatatom 1298 919 5 0 0 1 Z[deg] - - 0;
#X floatatom 1255 781 5 0 0 0 X - - 0;
#X floatatom 1295 798 5 0 0 0 Y - - 0;
#X floatatom 1336 813 5 0 0 0 Z - - 0;
#X floatatom 1263 1000 5 0 0 0 - - - 0;
#X floatatom 1316 998 5 0 0 0 - - - 0;
#X obj 1219 943 rotateXYZ 0 0 0;
#X obj 1219 837 translateXYZ 0 0 0;
#X obj 1524 778 vsl 15 128 0 360 0 0 empty empty empty 0 -9 0 10 #fcfcfc
#000000 #000000 0 1;
#X obj 1218 1033 rectangle 0.4 0.23;
#X obj 1497 775 vsl 15 128 -4 4 0 0 empty empty empty 0 -9 0 10 #fcfcfc
#000000 #000000 0 1;
#X obj 1472 775 vsl 15 128 -5 5 0 0 empty empty empty 0 -9 0 10 #fcfcfc
#000000 #000000 0 1;
#X obj 219 1059 gemhead;
#X obj 218 1304 pix_texture;
#X floatatom 254 1211 5 0 0 1 X[deg] - - 0;
#X floatatom 274 1231 5 0 0 1 Y[deg] - - 0;
#X floatatom 298 1251 5 0 0 1 Z[deg] - - 0;
#X floatatom 255 1113 5 0 0 0 X - - 0;
#X floatatom 295 1130 5 0 0 0 Y - - 0;
#X floatatom 336 1145 5 0 0 0 Z - - 0;
#X floatatom 263 1332 5 0 0 0 - - - 0;
#X floatatom 316 1330 5 0 0 0 - - - 0;
#X obj 219 1275 rotateXYZ 0 0 0;
#X obj 219 1169 translateXYZ 0 0 0;
#X obj 524 1110 vsl 15 128 0 360 0 0 empty empty empty 0 -9 0 10 #fcfcfc
#000000 #000000 0 1;
#X obj 218 1365 rectangle 0.4 0.23;
#X obj 497 1107 vsl 15 128 -4 4 0 0 empty empty empty 0 -9 0 10 #fcfcfc
#000000 #000000 0 1;
#X obj 472 1107 vsl 15 128 -5 5 0 0 empty empty empty 0 -9 0 10 #fcfcfc
#000000 #000000 0 1;
#X obj 233 36 gemhead;
#X obj 232 281 pix_texture;
#X floatatom 268 188 5 0 0 1 X[deg] - - 0;
#X floatatom 288 208 5 0 0 1 Y[deg] - - 0;
#X floatatom 312 228 5 0 0 1 Z[deg] - - 0;
#X floatatom 269 90 5 0 0 0 X - - 0;
#X floatatom 309 107 5 0 0 0 Y - - 0;
#X floatatom 350 122 5 0 0 0 Z - - 0;
#X floatatom 277 309 5 0 0 0 - - - 0;
#X floatatom 330 307 5 0 0 0 - - - 0;
#X obj 233 252 rotateXYZ 0 0 0;
#X obj 233 146 translateXYZ 0 0 0;
#X obj 538 87 vsl 15 128 0 360 0 0 empty empty empty 0 -9 0 10 #fcfcfc
#000000 #000000 0 1;
#X obj 232 342 rectangle 0.4 0.23;
#X obj 511 84 vsl 15 128 -4 4 0 0 empty empty empty 0 -9 0 10 #fcfcfc
#000000 #000000 0 1;
#X obj 486 84 vsl 15 128 -5 5 0 0 empty empty empty 0 -9 0 10 #fcfcfc
#000000 #000000 0 1;
#X obj 565 43 gemhead;
#X obj 564 288 pix_texture;
#X floatatom 600 195 5 0 0 1 X[deg] - - 0;
#X floatatom 620 215 5 0 0 1 Y[deg] - - 0;
#X floatatom 644 235 5 0 0 1 Z[deg] - - 0;
#X floatatom 601 97 5 0 0 0 X - - 0;
#X floatatom 641 114 5 0 0 0 Y - - 0;
#X floatatom 682 129 5 0 0 0 Z - - 0;
#X floatatom 609 316 5 0 0 0 - - - 0;
#X floatatom 662 314 5 0 0 0 - - - 0;
#X obj 565 259 rotateXYZ 0 0 0;
#X obj 565 153 translateXYZ 0 0 0;
#X obj 870 94 vsl 15 128 0 360 0 0 empty empty empty 0 -9 0 10 #fcfcfc
#000000 #000000 0 1;
#X obj 564 349 rectangle 0.4 0.23;
#X obj 843 91 vsl 15 128 -4 4 0 0 empty empty empty 0 -9 0 10 #fcfcfc
#000000 #000000 0 1;
#X obj 818 91 vsl 15 128 -5 5 0 0 empty empty empty 0 -9 0 10 #fcfcfc
#000000 #000000 0 1;
#X obj 895 34 gemhead;
#X obj 894 279 pix_texture;
#X floatatom 930 186 5 0 0 1 X[deg] - - 0;
#X floatatom 950 206 5 0 0 1 Y[deg] - - 0;
#X floatatom 974 226 5 0 0 1 Z[deg] - - 0;
#X floatatom 931 88 5 0 0 0 X - - 0;
#X floatatom 971 105 5 0 0 0 Y - - 0;
#X floatatom 1012 120 5 0 0 0 Z - - 0;
#X floatatom 939 307 5 0 0 0 - - - 0;
#X floatatom 992 305 5 0 0 0 - - - 0;
#X obj 895 250 rotateXYZ 0 0 0;
#X obj 895 144 translateXYZ 0 0 0;
#X obj 1200 85 vsl 15 128 0 360 0 0 empty empty empty 0 -9 0 10 #fcfcfc
#000000 #000000 0 1;
#X obj 894 340 rectangle 0.4 0.23;
#X obj 1173 82 vsl 15 128 -4 4 0 0 empty empty empty 0 -9 0 10 #fcfcfc
#000000 #000000 0 1;
#X obj 1148 82 vsl 15 128 -5 5 0 0 empty empty empty 0 -9 0 10 #fcfcfc
#000000 #000000 0 1;
#X obj 1227 41 gemhead;
#X obj 1226 286 pix_texture;
#X floatatom 1262 193 5 0 0 1 X[deg] - - 0;
#X floatatom 1282 213 5 0 0 1 Y[deg] - - 0;
#X floatatom 1306 233 5 0 0 1 Z[deg] - - 0;
#X floatatom 1263 95 5 0 0 0 X - - 0;
#X floatatom 1303 112 5 0 0 0 Y - - 0;
#X floatatom 1344 127 5 0 0 0 Z - - 0;
#X floatatom 1271 314 5 0 0 0 - - - 0;
#X floatatom 1324 312 5 0 0 0 - - - 0;
#X obj 1227 257 rotateXYZ 0 0 0;
#X obj 1227 151 translateXYZ 0 0 0;
#X obj 1532 92 vsl 15 128 0 360 0 0 empty empty empty 0 -9 0 10 #fcfcfc
#000000 #000000 0 1;
#X obj 1226 347 rectangle 0.4 0.23;
#X obj 1505 89 vsl 15 128 -4 4 0 0 empty empty empty 0 -9 0 10 #fcfcfc
#000000 #000000 0 1;
#X obj 1480 89 vsl 15 128 -5 5 0 0 empty empty empty 0 -9 0 10 #fcfcfc
#000000 #000000 0 1;
#X obj 233 61 pix_image ./images/png/1.png, f 33;
#X obj 565 68 pix_image ./images/png/2.png, f 33;
#X obj 895 59 pix_image ./images/png/3.png, f 33;
#X obj 1227 66 pix_image ./images/png/4.png, f 33;
#X obj 230 399 pix_image ./images/png/5.png, f 33;
#X obj 562 405 pix_image ./images/png/6.png, f 33;
#X obj 892 397 pix_image ./images/png/7.png, f 33;
#X obj 1224 404 pix_image ./images/png/8.png, f 33;
#X obj 225 747 pix_image ./images/png/9.png, f 33;
#X obj 557 754 pix_image ./images/png/10.png, f 33;
#X obj 887 745 pix_image ./images/png/11.png, f 33;
#X obj 1219 752 pix_image ./images/png/12.png, f 33;
#X obj 219 1084 pix_image ./images/png/13.png, f 33;
#X connect 2 0 3 0;
#X connect 3 0 2 0;
#X connect 5 0 218 0;
#X connect 7 0 19 0;
#X connect 8 0 16 1;
#X connect 9 0 16 2;
#X connect 10 0 16 3;
#X connect 11 0 17 1;
#X connect 12 0 17 2;
#X connect 13 0 17 3;
#X connect 14 0 19 1;
#X connect 15 0 19 2;
#X connect 16 0 7 0;
#X connect 17 0 16 0;
#X connect 18 0 10 0;
#X connect 20 0 12 0;
#X connect 21 0 11 0;
#X connect 22 0 219 0;
#X connect 23 0 35 0;
#X connect 24 0 32 1;
#X connect 25 0 32 2;
#X connect 26 0 32 3;
#X connect 27 0 33 1;
#X connect 28 0 33 2;
#X connect 29 0 33 3;
#X connect 30 0 35 1;
#X connect 31 0 35 2;
#X connect 32 0 23 0;
#X connect 33 0 32 0;
#X connect 34 0 26 0;
#X connect 36 0 28 0;
#X connect 37 0 27 0;
#X connect 38 0 220 0;
#X connect 39 0 51 0;
#X connect 40 0 48 1;
#X connect 41 0 48 2;
#X connect 42 0 48 3;
#X connect 43 0 49 1;
#X connect 44 0 49 2;
#X connect 45 0 49 3;
#X connect 46 0 51 1;
#X connect 47 0 51 2;
#X connect 48 0 39 0;
#X connect 49 0 48 0;
#X connect 50 0 42 0;
#X connect 52 0 44 0;
#X connect 53 0 43 0;
#X connect 54 0 221 0;
#X connect 55 0 67 0;
#X connect 56 0 64 1;
#X connect 57 0 64 2;
#X connect 58 0 64 3;
#X connect 59 0 65 1;
#X connect 60 0 65 2;
#X connect 61 0 65 3;
#X connect 62 0 67 1;
#X connect 63 0 67 2;
#X connect 64 0 55 0;
#X connect 65 0 64 0;
#X connect 66 0 58 0;
#X connect 68 0 60 0;
#X connect 69 0 59 0;
#X connect 70 0 222 0;
#X connect 71 0 83 0;
#X connect 72 0 80 1;
#X connect 73 0 80 2;
#X connect 74 0 80 3;
#X connect 75 0 81 1;
#X connect 76 0 81 2;
#X connect 77 0 81 3;
#X connect 78 0 83 1;
#X connect 79 0 83 2;
#X connect 80 0 71 0;
#X connect 81 0 80 0;
#X connect 82 0 74 0;
#X connect 84 0 76 0;
#X connect 85 0 75 0;
#X connect 86 0 223 0;
#X connect 87 0 99 0;
#X connect 88 0 96 1;
#X connect 89 0 96 2;
#X connect 90 0 96 3;
#X connect 91 0 97 1;
#X connect 92 0 97 2;
#X connect 93 0 97 3;
#X connect 94 0 99 1;
#X connect 95 0 99 2;
#X connect 96 0 87 0;
#X connect 97 0 96 0;
#X connect 98 0 90 0;
#X connect 100 0 92 0;
#X connect 101 0 91 0;
#X connect 102 0 224 0;
#X connect 103 0 115 0;
#X connect 104 0 112 1;
#X connect 105 0 112 2;
#X connect 106 0 112 3;
#X connect 107 0 113 1;
#X connect 108 0 113 2;
#X connect 109 0 113 3;
#X connect 110 0 115 1;
#X connect 111 0 115 2;
#X connect 112 0 103 0;
#X connect 113 0 112 0;
#X connect 114 0 106 0;
#X connect 116 0 108 0;
#X connect 117 0 107 0;
#X connect 118 0 225 0;
#X connect 119 0 131 0;
#X connect 120 0 128 1;
#X connect 121 0 128 2;
#X connect 122 0 128 3;
#X connect 123 0 129 1;
#X connect 124 0 129 2;
#X connect 125 0 129 3;
#X connect 126 0 131 1;
#X connect 127 0 131 2;
#X connect 128 0 119 0;
#X connect 129 0 128 0;
#X connect 130 0 122 0;
#X connect 132 0 124 0;
#X connect 133 0 123 0;
#X connect 134 0 226 0;
#X connect 135 0 147 0;
#X connect 136 0 144 1;
#X connect 137 0 144 2;
#X connect 138 0 144 3;
#X connect 139 0 145 1;
#X connect 140 0 145 2;
#X connect 141 0 145 3;
#X connect 142 0 147 1;
#X connect 143 0 147 2;
#X connect 144 0 135 0;
#X connect 145 0 144 0;
#X connect 146 0 138 0;
#X connect 148 0 140 0;
#X connect 149 0 139 0;
#X connect 150 0 214 0;
#X connect 151 0 163 0;
#X connect 152 0 160 1;
#X connect 153 0 160 2;
#X connect 154 0 160 3;
#X connect 155 0 161 1;
#X connect 156 0 161 2;
#X connect 157 0 161 3;
#X connect 158 0 163 1;
#X connect 159 0 163 2;
#X connect 160 0 151 0;
#X connect 161 0 160 0;
#X connect 162 0 154 0;
#X connect 164 0 156 0;
#X connect 165 0 155 0;
#X connect 166 0 215 0;
#X connect 167 0 179 0;
#X connect 168 0 176 1;
#X connect 169 0 176 2;
#X connect 170 0 176 3;
#X connect 171 0 177 1;
#X connect 172 0 177 2;
#X connect 173 0 177 3;
#X connect 174 0 179 1;
#X connect 175 0 179 2;
#X connect 176 0 167 0;
#X connect 177 0 176 0;
#X connect 178 0 170 0;
#X connect 180 0 172 0;
#X connect 181 0 171 0;
#X connect 182 0 216 0;
#X connect 183 0 195 0;
#X connect 184 0 192 1;
#X connect 185 0 192 2;
#X connect 186 0 192 3;
#X connect 187 0 193 1;
#X connect 188 0 193 2;
#X connect 189 0 193 3;
#X connect 190 0 195 1;
#X connect 191 0 195 2;
#X connect 192 0 183 0;
#X connect 193 0 192 0;
#X connect 194 0 186 0;
#X connect 196 0 188 0;
#X connect 197 0 187 0;
#X connect 198 0 217 0;
#X connect 199 0 211 0;
#X connect 200 0 208 1;
#X connect 201 0 208 2;
#X connect 202 0 208 3;
#X connect 203 0 209 1;
#X connect 204 0 209 2;
#X connect 205 0 209 3;
#X connect 206 0 211 1;
#X connect 207 0 211 2;
#X connect 208 0 199 0;
#X connect 209 0 208 0;
#X connect 210 0 202 0;
#X connect 212 0 204 0;
#X connect 213 0 203 0;
#X connect 214 0 161 0;
#X connect 215 0 177 0;
#X connect 216 0 193 0;
#X connect 217 0 209 0;
#X connect 218 0 17 0;
#X connect 219 0 33 0;
#X connect 220 0 49 0;
#X connect 221 0 65 0;
#X connect 222 0 81 0;
#X connect 223 0 97 0;
#X connect 224 0 113 0;
#X connect 225 0 129 0;
#X connect 226 0 145 0;
