#N canvas 173 198 1564 794 12;
#N canvas 548 46 961 843 16beat_sequencer 0;
#X obj 67 258 metro 1000;
#X text 151 256 ms. 10000ms. = 1sec;
#X obj 69 293 bng 19 250 50 0 empty empty empty 0 -10 0 12 #fcfcfc
#000000 #000000;
#X obj 72 223 tgl 19 0 empty empty empty 0 -10 0 12 #fcfcfc #000000
#000000 0 1;
#X obj 83 347 float;
#X floatatom 117 317 5 0 0 0 - - - 0;
#X obj 149 346 + 1;
#X floatatom 83 394 5 0 0 0 - - - 0;
#X floatatom 86 469 5 0 0 0 - - - 0;
#X obj 113 509 select 0 1 2 3 4 5 6 7 8 9 10 11 12 13 14 15, f 99
;
#X obj 47 562 outlet;
#X obj 105 562 outlet;
#X obj 160 562 outlet;
#X obj 214 564 outlet;
#X obj 272 565 outlet;
#X obj 325 566 outlet;
#X obj 378 567 outlet;
#X obj 431 567 outlet;
#X obj 485 567 outlet;
#X obj 539 568 outlet;
#X obj 596 569 outlet;
#X obj 653 568 outlet;
#X obj 706 568 outlet;
#X obj 760 568 outlet;
#X obj 814 569 outlet;
#X obj 871 570 outlet;
#X obj 36 180 inlet;
#X obj 176 192 inlet;
#X obj 85 433 % 16;
#X obj 212 312 bng 19 250 50 0 beat empty beat 0 -10 0 12 #fcfcfc #000000
#000000;
#X floatatom 179 235 5 0 0 0 - - - 0;
#X connect 0 0 2 0;
#X connect 0 0 29 0;
#X connect 2 0 4 0;
#X connect 3 0 0 0;
#X connect 4 0 6 0;
#X connect 4 0 7 0;
#X connect 5 0 4 1;
#X connect 6 0 4 1;
#X connect 7 0 28 0;
#X connect 8 0 9 0;
#X connect 9 0 10 0;
#X connect 9 1 11 0;
#X connect 9 2 12 0;
#X connect 9 3 13 0;
#X connect 9 4 14 0;
#X connect 9 5 15 0;
#X connect 9 6 16 0;
#X connect 9 7 17 0;
#X connect 9 8 18 0;
#X connect 9 9 19 0;
#X connect 9 10 20 0;
#X connect 9 11 21 0;
#X connect 9 12 22 0;
#X connect 9 13 23 0;
#X connect 9 14 24 0;
#X connect 9 15 25 0;
#X connect 26 0 3 0;
#X connect 27 0 30 0;
#X connect 28 0 8 0;
#X connect 30 0 0 1;
#X restore 167 84 pd 16beat_sequencer;
#X f 147;
#X obj 167 44 tgl 25 0 empty empty On/Off 0 -10 0 12 #faff00 #000000
#000000 0 1;
#X obj 167 119 bng 19 250 50 0 beat1 empty empty 0 -10 0 12 #00ff04
#000000 #000000;
#X obj 249 119 bng 19 250 50 0 beat2 empty empty 0 -10 0 12 #fcfcfc
#000000 #000000;
#X obj 321 119 bng 19 250 50 0 beat3 empty empty 0 -10 0 12 #fcfcfc
#000000 #000000;
#X obj 384 119 bng 19 250 50 0 beat4 empty empty 0 -10 0 12 #fcfcfc
#000000 #000000;
#X obj 466 119 bng 19 250 50 0 beat5 empty empty 0 -10 0 12 #00ff04
#000000 #000000;
#X obj 531 119 bng 19 250 50 0 beat6 empty empty 0 -10 0 12 #fcfcfc
#000000 #000000;
#X obj 595 119 bng 19 250 50 0 beat7 empty empty 0 -10 0 12 #fcfcfc
#000000 #000000;
#X obj 657 119 bng 19 250 50 0 beat8 empty empty 0 -10 0 12 #fcfcfc
#000000 #000000;
#X obj 732 119 bng 19 250 50 0 beat9 empty empty 0 -10 0 12 #00ff04
#000000 #000000;
#X obj 802 119 bng 19 250 50 0 beat10 empty empty 0 -10 0 12 #fcfcfc
#000000 #000000;
#X obj 862 119 bng 19 250 50 0 beat11 empty empty 0 -10 0 12 #fcfcfc
#000000 #000000;
#X obj 924 119 bng 19 250 50 0 beat12 empty empty 0 -10 0 12 #fcfcfc
#000000 #000000;
#X obj 1006 119 bng 19 250 50 0 beat13 empty empty 0 -10 0 12 #00ff04
#000000 #000000;
#X obj 1065 119 bng 19 250 50 0 beat14 empty empty 0 -10 0 12 #fcfcfc
#000000 #000000;
#X obj 1129 119 bng 19 250 50 0 beat15 empty empty 0 -10 0 12 #fcfcfc
#000000 #000000;
#X obj 1192 119 bng 19 250 50 0 beat16 empty empty 0 -10 0 12 #fcfcfc
#000000 #000000;
#X text 84 153 Ahae;
#X text 140 159 1;
#X text 141 202 2;
#X text 140 251 3;
#X text 138 290 4;
#X text 142 337 5;
#X text 140 382 6;
#X text 138 428 7;
#X text 140 471 8;
#X text 138 519 9;
#X text 134 559 10;
#X text 133 607 11;
#X text 133 650 12;
#X text 132 697 13;
#X floatatom 1299 247 5 0 0 0 - 3-preset - 0;
#X floatatom 1299 295 5 0 0 0 - 4-preset - 0;
#X floatatom 1299 338 5 0 0 0 - 5-preset - 0;
#X floatatom 1299 380 5 0 0 0 - 6-preset - 0;
#X floatatom 1298 426 5 0 0 0 - 7-preset - 0;
#X floatatom 1303 474 5 0 0 0 - 8-preset - 0;
#X floatatom 1303 520 5 0 0 0 - 9-preset - 0;
#X floatatom 1302 563 5 0 0 0 - 10-preset - 0;
#X floatatom 1303 608 5 0 0 0 - 11-preset - 0;
#X floatatom 1303 653 5 0 0 0 - 12-preset - 0;
#X floatatom 1301 700 5 0 0 0 - 13-preset - 0;
#X obj 1310 44 PresetManager Ahae;
#X floatatom 1299 159 5 0 0 0 - 1-preset - 0;
#X obj 167 153 seq02 1;
#X obj 1193 44 nbx_pre Ahae \$0 1000;
#X text 1169 19 interval in ms.;
#X obj 167 198 seq02 2;
#X floatatom 1297 203 5 0 0 0 - 2-preset - 0;
#X obj 167 243 seq02 3;
#X obj 167 288 seq02 4;
#X obj 167 333 seq02 5;
#X obj 167 423 seq02 6;
#X obj 167 378 seq02 7;
#X obj 167 468 seq02 8;
#X obj 167 513 seq02 9;
#X obj 167 603 seq02 10;
#X obj 167 558 seq02 11;
#X obj 167 648 seq02 12;
#X obj 167 693 seq02 13;
#X connect 0 0 2 0;
#X connect 0 1 3 0;
#X connect 0 2 4 0;
#X connect 0 3 5 0;
#X connect 0 4 6 0;
#X connect 0 5 7 0;
#X connect 0 6 8 0;
#X connect 0 7 9 0;
#X connect 0 8 10 0;
#X connect 0 9 11 0;
#X connect 0 10 12 0;
#X connect 0 11 13 0;
#X connect 0 12 14 0;
#X connect 0 13 15 0;
#X connect 0 14 16 0;
#X connect 0 15 17 0;
#X connect 1 0 0 0;
#X connect 46 0 0 1;
