#N canvas 567 79 852 453 12;
#X declare -lib Gem;
#X text 2 10 GEM object;
#X obj 8 39 cnv 15 100 60 empty empty empty 20 12 0 14 #bcbcbc #404040
0;
#N canvas 601 466 450 300 gemwin 0;
#X obj 132 136 gemwin;
#X obj 67 89 outlet;
#X obj 67 10 inlet;
#X obj 67 41 route create;
#X msg 67 70 set destroy;
#X msg 142 68 set create;
#X msg 132 112 create \, 1;
#X msg 198 112 destroy;
#X msg 286 106 color 1 1 1;
#X obj 286 78 loadbang;
#X msg 289 134 dimen 512 512;
#X connect 2 0 3 0;
#X connect 3 0 4 0;
#X connect 3 0 6 0;
#X connect 3 1 5 0;
#X connect 3 1 7 0;
#X connect 4 0 1 0;
#X connect 5 0 1 0;
#X connect 6 0 0 0;
#X connect 7 0 0 0;
#X connect 8 0 0 0;
#X connect 9 0 8 0;
#X connect 9 0 10 0;
#X connect 10 0 0 0;
#X restore 13 78 pd gemwin;
#X msg 13 59 destroy;
#X text 9 38 Create window:;
#X obj 78 10 declare -lib Gem;
#X obj 154 104 ahae_plotter 1;
#X obj 153 134 ahae_plotter 2;
#X obj 154 162 ahae_plotter 3;
#X obj 153 192 ahae_plotter 4;
#X obj 270 103 ahae_plotter 5;
#X obj 269 133 ahae_plotter 6;
#X obj 269 161 ahae_plotter 7;
#X obj 269 191 ahae_plotter 8;
#X obj 384 103 ahae_plotter 9;
#X obj 383 133 ahae_plotter 10;
#X obj 383 161 ahae_plotter 11;
#X obj 383 191 ahae_plotter 12;
#X obj 501 104 ahae_plotter 13;
#X connect 2 0 3 0;
#X connect 3 0 2 0;
