#N canvas 304 896 1666 757 12;
#X obj 151 131 bng 50 250 50 0 empty Stop_All_Ahae STOP\\\ ALL\\\ AHAE
-25 -15 0 15 #ff0400 #000000 #000000;
#N canvas 862 421 931 377 global_message 1;
#X obj 53 134 inlet;
#X obj 174 131 inlet;
#X obj 174 213 s CRMuxXbee;
#X msg 174 183 50002;
#X obj 262 130 inlet;
#X obj 262 212 s SetBaseYawZero;
#X msg 262 182 50003;
#X obj 382 130 inlet;
#X obj 382 212 s SetBaseYawM025;
#X msg 382 182 50004;
#X msg 51 184 50000;
#X obj 505 128 inlet;
#X obj 505 210 s DefaultPosition;
#X msg 505 180 1111;
#X obj 663 209 s command50001;
#X msg 665 179 50001;
#X obj 665 133 inlet;
#X obj 50 214 s stop_Ahae;
#X connect 0 0 10 0;
#X connect 1 0 3 0;
#X connect 3 0 2 0;
#X connect 4 0 6 0;
#X connect 6 0 5 0;
#X connect 7 0 9 0;
#X connect 9 0 8 0;
#X connect 10 0 17 0;
#X connect 11 0 13 0;
#X connect 13 0 12 0;
#X connect 15 0 14 0;
#X connect 16 0 15 0;
#X restore -7 597 pd global_message;
#X obj 151 200 bng 25 250 50 0 empty empty CRMuxXbee 0 -5 0 10 #ff8300
#000000 #000000;
#X obj 151 244 bng 25 250 50 0 empty empty SetBaseYawZero 0 -5 0 10
#faff00 #000000 #000000;
#X obj 151 288 bng 25 250 50 0 empty empty SetBaseYawM025 0 -5 0 10
#feffc6 #000000 #000000;
#X obj 151 332 bng 25 250 50 0 empty empty Default\\\ Position 0 -5
0 10 #9c00ff #000000 #000000;
#X obj 151 376 bng 25 250 50 0 empty empty 5001 0 -5 0 10 #fcfcfc #000000
#000000;
#N canvas 501 146 904 923 activity_check_routine 0;
#X text 266 125 ms. 10000ms. = 1sec;
#X obj 198 216 float;
#X floatatom 232 186 5 0 0 0 - - - 0;
#X obj 264 215 + 1;
#X floatatom 198 263 5 0 0 0 - - - 0;
#X floatatom 201 353 5 0 0 0 - - - 0;
#X obj 327 181 bng 19 250 50 0 activity_ckeck_bang empty activity_ckeck_bang
0 -10 0 12 #fcfcfc #000000 #000000;
#X msg 230 156 0;
#X obj 182 127 metro 500;
#X obj 198 300 % 2;
#X obj 199 327 + 1;
#X obj 125 411 pack f f;
#X msg 176 71 1;
#X obj 180 16 bng 15 250 50 0 empty empty empty 17 7 0 10 #fcfcfc #000000
#000000;
#X obj 94 128 metro 1000;
#X obj 54 246 float;
#X floatatom 85 218 5 0 0 0 - - - 0;
#X obj 98 247 + 1;
#X floatatom 54 273 5 0 0 0 - - - 0;
#X obj 54 301 sel 1;
#X obj 54 327 float;
#X obj 98 326 + 1;
#X msg 97 301 1;
#X floatatom 54 353 5 0 0 0 - - - 0;
#X obj 181 39 t b b b b;
#X msg 106 74 0;
#X msg 85 195 1;
#X obj 54 383 t f b f;
#X obj 34 632 s 1-preset-result;
#X obj 151 664 s 2-preset-result;
#X obj 232 703 s 3-preset-result;
#X obj 276 736 s 4-preset-result;
#X obj 316 763 s 5-preset-result;
#X obj 363 808 s 6-preset-result;
#X obj 407 852 s 7-preset-result;
#X obj 451 625 s 8-preset-result;
#X obj 495 655 s 9-preset-result;
#X obj 537 679 s 10-preset-result;
#X obj 581 709 s 11-preset-result;
#X obj 624 741 s 12-preset-result;
#X obj 671 769 s 13-preset-result;
#X obj 150 571 route 1 2 3 4 5 6 7 8 9 10 11 12 13, f 99;
#X obj 27 427 sel 14;
#X floatatom 33 603 5 0 0 0 - - - 0;
#X obj 163 471 prepend set;
#X msg 163 496 14 2;
#X obj 180 -10 inlet;
#X msg 32 572 0;
#X obj 369 10 inlet;
#X obj 372 52 s Stop_All_Ahae;
#X connect 1 0 3 0;
#X connect 1 0 4 0;
#X connect 2 0 1 1;
#X connect 3 0 1 1;
#X connect 4 0 9 0;
#X connect 5 0 11 1;
#X connect 7 0 2 0;
#X connect 8 0 6 0;
#X connect 8 0 1 0;
#X connect 8 0 11 0;
#X connect 9 0 10 0;
#X connect 10 0 5 0;
#X connect 11 0 41 0;
#X connect 11 0 44 0;
#X connect 12 0 8 0;
#X connect 12 0 14 0;
#X connect 13 0 24 0;
#X connect 14 0 15 0;
#X connect 15 0 17 0;
#X connect 15 0 18 0;
#X connect 16 0 15 1;
#X connect 17 0 15 1;
#X connect 18 0 19 0;
#X connect 19 0 20 0;
#X connect 20 0 21 0;
#X connect 20 0 23 0;
#X connect 21 0 20 1;
#X connect 22 0 20 1;
#X connect 22 0 19 1;
#X connect 23 0 27 0;
#X connect 24 0 12 0;
#X connect 24 1 7 0;
#X connect 24 2 26 0;
#X connect 24 3 22 0;
#X connect 25 0 14 0;
#X connect 25 0 8 0;
#X connect 26 0 16 0;
#X connect 27 0 42 0;
#X connect 27 1 26 0;
#X connect 27 1 47 0;
#X connect 27 2 19 1;
#X connect 27 2 11 0;
#X connect 41 0 28 0;
#X connect 41 1 29 0;
#X connect 41 2 30 0;
#X connect 41 3 31 0;
#X connect 41 4 32 0;
#X connect 41 5 33 0;
#X connect 41 6 34 0;
#X connect 41 7 35 0;
#X connect 41 8 36 0;
#X connect 41 9 37 0;
#X connect 41 10 38 0;
#X connect 41 11 39 0;
#X connect 41 12 40 0;
#X connect 42 0 25 0;
#X connect 43 0 28 0;
#X connect 43 0 29 0;
#X connect 43 0 30 0;
#X connect 43 0 31 0;
#X connect 43 0 32 0;
#X connect 43 0 33 0;
#X connect 43 0 34 0;
#X connect 43 0 35 0;
#X connect 43 0 36 0;
#X connect 43 0 38 0;
#X connect 43 0 39 0;
#X connect 43 0 40 0;
#X connect 43 0 37 0;
#X connect 44 0 45 0;
#X connect 46 0 13 0;
#X connect 47 0 43 0;
#X connect 48 0 25 0;
#X connect 48 0 49 0;
#X restore 122 462 pd activity_check_routine;
#X obj 152 419 bng 25 250 50 0 empty empty activity_check_routine -5
-5 0 10 #bbbbbb #000000 #000000;
#X obj 184 427 bng 15 250 50 0 empty empty stop 17 7 0 10 #bbbbbb #000000
#000000;
#X connect 0 0 1 0;
#X connect 2 0 1 1;
#X connect 3 0 1 2;
#X connect 4 0 1 3;
#X connect 5 0 1 4;
#X connect 6 0 1 5;
#X connect 8 0 7 0;
#X connect 9 0 7 1;
#X coords 0 -1 1 1 185 350 2 100 100;
