#N canvas 70 27 1850 984 12;
#X obj 76 77 metro 10;
#X obj 71 54 tgl 15 0 empty empty empty 17 7 0 10 #fcfcfc #000000 #000000
0 1;
#X obj 76 109 f;
#X obj 106 107 + 1;
#X obj 88 263 / 100;
#X obj 87 293 int;
#X floatatom 87 325 5 0 0 0 - - - 0;
#X obj 256 209 s command_poll;
#X obj 89 352 change;
#X obj 88 387 bng 15 250 50 0 empty empty empty 17 7 0 10 #fcfcfc #000000
#000000;
#X floatatom 122 238 5 0 0 0 - - - 0;
#X floatatom 120 186 14 0 0 2 interval\ in\ ms. - - 0;
#X obj 121 215 / 10;
#X obj 362 213 bng 15 250 50 0 empty empty empty 17 7 0 10 #fcfcfc
#000000 #000000;
#X floatatom 87 144 5 0 0 0 - - - 0;
#X msg 192 87 0;
#X obj 255 156 % 10;
#X obj 256 181 sel 2;
#X connect 0 0 2 0;
#X connect 1 0 0 0;
#X connect 2 0 3 0;
#X connect 2 0 14 0;
#X connect 3 0 2 1;
#X connect 4 0 5 0;
#X connect 5 0 6 0;
#X connect 6 0 8 0;
#X connect 8 0 9 0;
#X connect 10 0 4 1;
#X connect 11 0 12 0;
#X connect 12 0 10 0;
#X connect 14 0 4 0;
#X connect 14 0 16 0;
#X connect 15 0 2 1;
#X connect 16 0 17 0;
#X connect 17 0 7 0;
#X connect 17 0 13 0;
