#N canvas 991 416 665 464 12;
#X floatatom 112 140 5 0 0 0 - - \$1-positionX 0;
#X floatatom 190 141 5 0 0 0 - - \$1-positionY 0;
#X floatatom 269 139 5 0 0 0 - - \$1-heading 0;
#X obj 110 107 nbx_pre Position \$1 101;
#X obj 184 107 nbx_pre Position \$1 102;
#X obj 255 107 nbx_pre Position \$1 103;
#X text 15 10 nbx_pre Position \$1 101;
#X text 14 27 nbx_pre Position \$1 102;
#X text 16 43 nbx_pre Position \$1 103;
#X floatatom 119 197 5 0 0 2 X\ in\ m. - - 0;
#X floatatom 186 196 5 0 0 2 Y\ in\ m. - - 0;
#X floatatom 356 104 5 0 0 0 - - - 0;
#N canvas 625 230 450 300 pos_cal 0;
#X floatatom 187 213 5 0 0 0 - - - 0;
#X obj 99 63 inlet;
#X obj 99 128 * 1000;
#X obj 208 120 * 10;
#X obj 209 65 inlet;
#X obj 187 158 +;
#X obj 188 244 outlet;
#X floatatom 98 97 5 0 0 0 - - - 0;
#X obj 187 183 + 20000;
#X connect 0 0 6 0;
#X connect 1 0 7 0;
#X connect 2 0 5 0;
#X connect 3 0 5 1;
#X connect 4 0 3 0;
#X connect 4 0 7 0;
#X connect 5 0 8 0;
#X connect 7 0 2 0;
#X connect 8 0 0 0;
#X restore 119 224 pd pos_cal;
#X floatatom 432 105 5 0 0 0 - \$0-preset-angle - 0;
#X obj 345 479 expr if($f1>1 && $f1<10 \, 1 \, 0);
#X obj 362 377 / 360;
#X obj 357 404 - 0.25;
#X floatatom 362 438 5 0 0 0 - - - 0;
#X obj 255 294 sel 0 45 90 125 180 225 270 315, f 50;
#X floatatom 254 369 5 0 0 0 - - \$0-preset-angle 0;
#X msg 255 332 2111;
#X msg 303 331 2211;
#X msg 346 330 2311;
#X msg 389 330 2411;
#X msg 437 329 2511;
#X msg 480 328 2611;
#X msg 522 329 2711;
#X msg 565 328 2811;
#X obj 500 138 r send_heading_preset;
#X obj 338 161 bng 20 250 50 0 empty empty empty 0 -10 0 12 #fcfcfc #000000 #000000;
#X obj 338 137 r send_position_preset;
#X obj 338 213 s \$1-postion-preset;
#X obj 338 185 f;
#X obj 500 161 bng 20 250 50 0 empty empty empty 0 -10 0 12 #fcfcfc #000000 #000000;
#X obj 500 185 f;
#X obj 500 213 s \$1-heading-preset;
#X connect 3 0 0 0;
#X connect 3 0 9 0;
#X connect 4 0 1 0;
#X connect 4 0 10 0;
#X connect 5 0 2 0;
#X connect 5 0 18 0;
#X connect 9 0 12 0;
#X connect 10 0 12 1;
#X connect 11 0 32 1;
#X connect 12 0 11 0;
#X connect 13 0 34 1;
#X connect 15 0 16 0;
#X connect 16 0 17 0;
#X connect 18 0 20 0;
#X connect 18 1 21 0;
#X connect 18 2 22 0;
#X connect 18 3 23 0;
#X connect 18 4 24 0;
#X connect 18 5 25 0;
#X connect 18 6 26 0;
#X connect 18 7 27 0;
#X connect 20 0 19 0;
#X connect 21 0 19 0;
#X connect 22 0 19 0;
#X connect 23 0 19 0;
#X connect 24 0 19 0;
#X connect 25 0 19 0;
#X connect 26 0 19 0;
#X connect 27 0 19 0;
#X connect 28 0 33 0;
#X connect 29 0 32 0;
#X connect 30 0 29 0;
#X connect 32 0 31 0;
#X connect 33 0 34 0;
#X connect 34 0 35 0;
#X coords 0 -1 1 1 400 30 2 100 100;
