#N canvas 346 86 1431 908 12;
#X obj 570 362 s 1-preset-result;
#X obj 687 394 s 2-preset-result;
#X obj 768 433 s 3-preset-result;
#X obj 812 466 s 4-preset-result;
#X obj 852 493 s 5-preset-result;
#X obj 899 538 s 6-preset-result;
#X obj 943 582 s 7-preset-result;
#X obj 987 355 s 8-preset-result;
#X obj 1031 385 s 9-preset-result;
#X obj 1073 409 s 10-preset-result;
#X obj 1117 439 s 11-preset-result;
#X obj 1160 471 s 12-preset-result;
#X obj 1207 499 s 13-preset-result;
#X floatatom 111 218 5 0 0 2 A1 - - 0;
#X floatatom 111 263 5 0 0 2 A2 - - 0;
#X floatatom 111 311 5 0 0 2 A3 - - 0;
#X floatatom 111 358 5 0 0 2 A4 - - 0;
#X floatatom 111 402 5 0 0 2 A5 - - 0;
#X floatatom 111 446 5 0 0 2 A6 - - 0;
#X floatatom 111 491 5 0 0 2 A7 - - 0;
#X floatatom 111 537 5 0 0 2 A8 - - 0;
#X floatatom 111 583 5 0 0 2 A9 - - 0;
#X floatatom 111 629 5 0 0 2 A10 - - 0;
#X floatatom 111 675 5 0 0 2 A11 - - 0;
#X floatatom 111 718 5 0 0 2 A12 - - 0;
#X obj 686 249 pack 1 f f f f f f f f f f f f f, f 86;
#X floatatom 111 763 5 0 0 2 A13 - - 0;
#X obj 111 119 bng 25 250 50 0 empty empty Send\\\ Oneshot -5 -5 0
10 #00faff #000000 #000000;
#X obj 686 274 route 1;
#X obj 686 301 unpack f f f f f f f f f f f f f, f 99;
#X floatatom 111 170 5 0 0 2 All - - 0;
#X obj 201 138 bng 15 250 50 0 oneshot_bang empty oneshot_bang 17 7
0 10 #fcfcfc #000000 #000000;
#X connect 13 0 25 1;
#X connect 14 0 25 2;
#X connect 15 0 25 3;
#X connect 16 0 25 4;
#X connect 17 0 25 5;
#X connect 18 0 25 6;
#X connect 19 0 25 7;
#X connect 20 0 25 8;
#X connect 21 0 25 9;
#X connect 22 0 25 10;
#X connect 23 0 25 11;
#X connect 24 0 25 12;
#X connect 25 0 28 0;
#X connect 26 0 25 13;
#X connect 27 0 25 0;
#X connect 27 0 31 0;
#X connect 28 0 29 0;
#X connect 29 0 0 0;
#X connect 29 1 1 0;
#X connect 29 2 2 0;
#X connect 29 3 3 0;
#X connect 29 4 4 0;
#X connect 29 5 5 0;
#X connect 29 6 6 0;
#X connect 29 7 7 0;
#X connect 29 8 8 0;
#X connect 29 9 9 0;
#X connect 29 10 10 0;
#X connect 29 11 11 0;
#X connect 29 12 12 0;
#X connect 30 0 13 0;
#X connect 30 0 14 0;
#X connect 30 0 15 0;
#X connect 30 0 16 0;
#X connect 30 0 17 0;
#X connect 30 0 18 0;
#X connect 30 0 19 0;
#X connect 30 0 20 0;
#X connect 30 0 21 0;
#X connect 30 0 22 0;
#X connect 30 0 23 0;
#X connect 30 0 24 0;
#X connect 30 0 26 0;
#X coords 0 -1 1 1 60 700 2 100 100;
