#N canvas 242 138 1278 835 12;
#X floatatom 238 341 5 0 0 1 sec_global sec_global - 0;
#X floatatom 474 701 5 0 0 1 Ahae\ Sequence\ Number - num_seq_Ahae_timeline 0;
#X obj 238 369 sel 1;
#X obj 472 333 nbx 5 14 -1e+37 1e+37 0 0 empty empty sec. 0 -8 0 10 #fcfcfc #000000 #000000 0 256;
#X obj 539 334 nbx 5 14 -1e+37 1e+37 0 0 empty empty seq_num 0 -8 0 10 #fcfcfc #000000 #000000 0 256;
#X obj 434 484 route 1;
#X obj 434 451 pack 1 f;
#X obj 393 262 \$1;
#X obj 429 261 \$2;
#X obj 195 346 * 60;
#X obj 195 371 +;
#X floatatom 195 396 5 0 0 0 - - - 0;
#X obj 465 260 \$3;
#X text 323 37 \$4: 0 no effect 1~5 : number of repetition of the sequence;
#X text 321 6 \$1 min. \$2 sec \$3 seq_num;
#X obj 420 165 loadbang;
#X obj 606 333 nbx 5 14 1 1e+37 0 0 empty empty repetition 0 -8 0 10 #fcfcfc #000000 #000000 0 256;
#X obj 501 260 \$4;
#X obj 407 332 nbx 5 14 -1e+37 1e+37 0 0 empty empty min. 0 -8 0 10 #fcfcfc #000000 #000000 0 256;
#X obj 430 616 bng 15 250 50 0 seq_start_bang empty seq_start_bang 17 7 0 10 #fcfcfc #000000 #000000;
#X obj 575 302 bng 15 250 50 0 empty empty play 17 7 0 10 #00ff04 #000000 #000000;
#X obj 540 623 f;
#X obj 430 537 t b b f;
#X obj 618 302 bng 15 250 50 0 empty empty stop 17 7 0 10 #ff0400 #000000 #000000;
#X obj 630 407 s seq_end_bang;
#X obj 738 409 s Stop_All_Ahae;
#X obj 434 430 bng 15 250 50 0 empty empty empty 17 7 0 10 #fcfcfc #000000 #000000;
#X obj 413 218 t b b b b;
#X obj 373 190 bng 15 250 50 0 empty empty empty 17 7 0 10 #fcfcfc #000000 #000000;
#X obj 670 321 tgl 25 0 empty empty empty 17 7 0 10 #fcfcfc #000000 #000000 0 1;
#X msg 646 271 1;
#X obj 692 176 r stop_global;
#X msg 684 272 0;
#X obj 708 624 outlet;
#X obj 985 717 outlet;
#X obj 1074 309 r interval_ms;
#X obj 1075 357 * 16;
#X obj 1075 384 *;
#X obj 261 490 s \$0-trigger-bang;
#X obj 945 385 metro 100;
#X obj 942 421 f;
#X obj 972 422 + 1;
#X msg 1008 421 0;
#X floatatom 949 478 5 0 0 0 - - - 0;
#X obj 955 288 bng 20 250 50 0 empty empty empty 0 -10 0 12 #fcfcfc #000000 #000000;
#X obj 959 320 t b b;
#X msg 923 359 1;
#X msg 956 361 0;
#X obj 950 454 * 100;
#X obj 989 291 bng 20 250 50 0 empty empty empty 0 -10 0 12 #fcfcfc #000000 #000000;
#X obj 985 575 >;
#X obj 984 604 sel 1;
#X obj 986 629 bng 20 250 50 0 empty empty empty 0 -10 0 12 #fcfcfc #000000 #000000;
#X obj 955 138 r \$0-trigger-bang;
#X obj 1038 718 s \$0-seq-end-bang;
#X obj 740 222 r \$0-seq-end-bang;
#X obj 955 239 spigot;
#X obj 995 211 tgl 20 0 empty empty empty 0 -10 0 12 #fcfcfc #000000 #000000 0 1;
#X obj 938 192 delay 1;
#X obj 284 459 s stop_others_bang;
#X obj 524 189 r \$0-trigger-bang;
#X obj 751 246 r stop_others_bang;
#X obj 1039 233 r stop_global;
#X obj 130 408 bng 20 250 50 0 empty empty empty 0 -10 0 12 #fcfcfc #000000 #000000;
#X obj 1021 179 r \$0-num-repetition;
#X obj 525 212 delay 1;
#X msg 1129 386 1;
#X obj 1047 269 r \$0-seq-end-bang;
#X floatatom 1059 429 5 0 0 0 - - - 0;
#X obj 540 649 s num-repetition;
#X obj 606 435 s \$0-num-repetition;
#X obj 1112 357 r \$0-num-repetition;
#X obj 125 367 inlet;
#X obj 238 511 bng 15 250 50 0 seq_start_bang empty seq_start_bang 17 7 0 10 #fcfcfc #000000 #000000;
#X obj 238 426 t b b b b;
#X obj 985 664 t b b b;
#X obj 1074 690 s seq-end-bang;
#X obj 1082 469 -;
#X obj 1108 435 r interval_ms;
#X text 1116 475 at the end beat;
#X msg 1189 420 400;
#X floatatom 1086 494 5 0 0 0 - - - 0;
#X floatatom 1074 334 5 0 0 0 - - - 0;
#X obj 812 561 /;
#X obj 850 543 r interval_ms;
#X floatatom 662 301 5 0 0 0 - - - 0;
#X obj 807 590 int;
#X obj 809 616 + 1;
#X obj 947 512 t f f;
#X obj 702 201 bng 15 250 50 0 empty seq_start_bang seq_start_bang 17 7 0 10 #fcfcfc #000000 #000000;
#X msg 691 231 0;
#X connect 0 0 2 0;
#X connect 2 0 74 0;
#X connect 3 0 10 1;
#X connect 4 0 6 1;
#X connect 5 0 22 0;
#X connect 6 0 5 0;
#X connect 7 0 18 0;
#X connect 8 0 3 0;
#X connect 9 0 10 0;
#X connect 10 0 11 0;
#X connect 11 0 2 1;
#X connect 12 0 4 0;
#X connect 15 0 27 0;
#X connect 16 0 21 1;
#X connect 16 0 70 0;
#X connect 17 0 16 0;
#X connect 18 0 9 0;
#X connect 20 0 63 0;
#X connect 21 0 69 0;
#X connect 22 0 19 0;
#X connect 22 1 21 0;
#X connect 22 2 1 0;
#X connect 23 0 24 0;
#X connect 23 0 25 0;
#X connect 23 0 49 0;
#X connect 23 0 32 0;
#X connect 26 0 6 0;
#X connect 27 0 7 0;
#X connect 27 1 8 0;
#X connect 27 2 12 0;
#X connect 27 3 17 0;
#X connect 28 0 27 0;
#X connect 30 0 29 0;
#X connect 31 0 32 0;
#X connect 31 0 90 0;
#X connect 32 0 29 0;
#X connect 35 0 82 0;
#X connect 36 0 37 0;
#X connect 37 0 68 0;
#X connect 39 0 40 0;
#X connect 40 0 41 0;
#X connect 40 0 48 0;
#X connect 41 0 40 1;
#X connect 42 0 40 1;
#X connect 43 0 88 0;
#X connect 44 0 45 0;
#X connect 45 0 46 0;
#X connect 45 1 42 0;
#X connect 46 0 39 0;
#X connect 47 0 39 0;
#X connect 48 0 43 0;
#X connect 49 0 47 0;
#X connect 50 0 51 0;
#X connect 51 0 52 0;
#X connect 52 0 75 0;
#X connect 53 0 58 0;
#X connect 55 0 32 0;
#X connect 56 0 44 0;
#X connect 57 0 56 1;
#X connect 58 0 56 0;
#X connect 60 0 65 0;
#X connect 61 0 32 0;
#X connect 62 0 49 0;
#X connect 63 0 74 0;
#X connect 64 0 57 0;
#X connect 65 0 30 0;
#X connect 66 0 37 1;
#X connect 67 0 49 0;
#X connect 68 0 77 0;
#X connect 71 0 37 1;
#X connect 72 0 63 0;
#X connect 74 0 73 0;
#X connect 74 1 38 0;
#X connect 74 2 59 0;
#X connect 74 3 6 0;
#X connect 75 0 34 0;
#X connect 75 1 54 0;
#X connect 75 2 76 0;
#X connect 77 0 81 0;
#X connect 78 0 77 1;
#X connect 80 0 77 1;
#X connect 81 0 50 1;
#X connect 82 0 36 0;
#X connect 83 0 86 0;
#X connect 84 0 83 1;
#X connect 86 0 87 0;
#X connect 87 0 85 0;
#X connect 88 0 50 0;
#X connect 88 1 83 0;
#X connect 89 0 90 0;
#X connect 90 0 85 0;
#X coords 0 -1 1 1 300 50 1 400 300;
