#N canvas 609 158 1175 711 12;
#X floatatom 406 380 5 0 0 1 sec_global sec_global - 0;
#X floatatom 610 556 5 0 0 1 Ahae\ Sequence\ Number - num_seq_Ahae_timeline
0;
#X obj 406 408 sel 1;
#X obj 472 333 nbx 5 14 -1e+37 1e+37 0 0 empty empty sec. 0 -8 0 10
#fcfcfc #000000 #000000 0 256;
#X obj 539 334 nbx 5 14 -1e+37 1e+37 0 0 empty empty seq_num 0 -8 0
10 #fcfcfc #000000 #000000 0 256;
#X obj 434 484 route 1;
#X obj 434 451 pack 1 f;
#X obj 393 262 \$1;
#X obj 429 261 \$2;
#X obj 338 385 * 60;
#X obj 338 410 +;
#X floatatom 338 435 5 0 0 0 - - - 0;
#X obj 465 260 \$3;
#X text 822 199 \$4: 0 no effect 1~5 : number of repetition of the
sequence;
#X text 820 168 \$1 min. \$2 sec \$3 seq_num;
#X obj 420 165 loadbang;
#X obj 606 333 nbx 5 14 -1e+37 1e+37 0 0 empty empty repetition 0 -8
0 10 #fcfcfc #000000 #000000 0 256;
#X obj 500 650 s num_repetition;
#X obj 501 260 \$4;
#X obj 407 332 nbx 5 14 -1e+37 1e+37 0 0 empty empty min. 0 -8 0 10
#fcfcfc #000000 #000000 0 256;
#X obj 430 616 bng 15 250 50 0 seq_start_bang empty seq_start_bang
17 7 0 10 #fcfcfc #000000 #000000;
#X obj 586 303 bng 15 250 50 0 empty empty play 17 7 0 10 #00ff04 #000000
#000000;
#X obj 540 623 f;
#X obj 430 537 t b b f;
#X obj 628 303 bng 15 250 50 0 empty empty stop 17 7 0 10 #ff0400 #000000
#000000;
#X obj 630 407 s seq_end_bang;
#X obj 738 409 s Stop_All_Ahae;
#X obj 463 418 bng 15 250 50 0 empty empty empty 17 7 0 10 #fcfcfc
#000000 #000000;
#X obj 413 218 t b b b b;
#X obj 373 190 bng 15 250 50 0 empty empty empty 17 7 0 10 #fcfcfc
#000000 #000000;
#X obj 670 321 tgl 25 0 empty empty empty 17 7 0 10 #fcfcfc #000000
#000000 0 1;
#X msg 406 435 1;
#X obj 683 244 r stop_global;
#X msg 684 272 0;
#X obj 788 246 bng 15 250 50 0 empty seq_end_bang seq_end_bang 17 7
0 10 #fcfcfc #000000 #000000;
#X connect 0 0 2 0;
#X connect 2 0 6 0;
#X connect 2 0 31 0;
#X connect 3 0 10 1;
#X connect 4 0 6 1;
#X connect 5 0 23 0;
#X connect 6 0 5 0;
#X connect 7 0 19 0;
#X connect 8 0 3 0;
#X connect 9 0 10 0;
#X connect 10 0 11 0;
#X connect 11 0 2 1;
#X connect 12 0 4 0;
#X connect 15 0 28 0;
#X connect 16 0 22 1;
#X connect 18 0 16 0;
#X connect 19 0 9 0;
#X connect 21 0 6 0;
#X connect 22 0 17 0;
#X connect 23 0 20 0;
#X connect 23 1 22 0;
#X connect 23 2 1 0;
#X connect 24 0 25 0;
#X connect 24 0 26 0;
#X connect 27 0 6 0;
#X connect 28 0 7 0;
#X connect 28 1 8 0;
#X connect 28 2 12 0;
#X connect 28 3 18 0;
#X connect 29 0 28 0;
#X connect 31 0 30 0;
#X connect 32 0 33 0;
#X connect 33 0 30 0;
#X connect 34 0 33 0;
#X coords 0 -1 1 1 300 50 1 400 300;
