#N canvas 9 73 1850 984 12;
#X obj 42 369 comport 115200;
#X msg 61 336 devices;
#X obj 42 393 t a a;
#X msg 196 605 zlclear;
#X obj 195 580 bng 20 250 50 0 empty empty empty 0 -10 0 12 #fcfcfc
#000000 #000000;
#X floatatom -6 762 5 0 0 0 - - - 0;
#X floatatom 42 766 5 0 0 0 - - - 0;
#X floatatom 84 765 5 0 0 0 - - - 0;
#X floatatom 131 764 5 0 0 0 - - - 0;
#X floatatom 174 763 5 0 0 0 - - - 0;
#X floatatom 221 762 5 0 0 0 - - - 0;
#X floatatom 263 761 5 0 0 0 - - - 0;
#X floatatom 310 760 5 0 0 0 - - - 0;
#X floatatom 350 760 5 0 0 0 - - - 0;
#X floatatom 397 759 5 0 0 0 - - - 0;
#N canvas 388 186 1326 806 FIFO_4bytes 0;
#X obj 305 230 f;
#X obj 370 229 f;
#X obj 434 226 f;
#X floatatom 135 43 5 0 0 0 - - - 0;
#X obj 173 259 pack 0 f f f f, f 38;
#X obj 240 307 prepend set;
#X msg 240 330 247 119 119 119;
#X obj 133 69 t b f;
#X obj 174 285 zl slice 1;
#X obj 135 13 inlet;
#X obj 240 368 outlet;
#X msg 193 8 255 255 255 255 1 2 3 4 5 6 7 8 9 10;
#X obj 194 33 zl iter 1;
#X obj 165 92 t f f b b b, f 27;
#X connect 0 0 4 2;
#X connect 0 0 1 1;
#X connect 1 0 4 3;
#X connect 1 0 2 1;
#X connect 2 0 4 4;
#X connect 3 0 7 0;
#X connect 4 0 8 0;
#X connect 5 0 6 0;
#X connect 7 0 4 0;
#X connect 7 1 13 0;
#X connect 8 1 5 0;
#X connect 8 1 10 0;
#X connect 9 0 3 0;
#X connect 11 0 12 0;
#X connect 12 0 3 0;
#X connect 13 0 4 1;
#X connect 13 1 0 1;
#X connect 13 2 0 0;
#X connect 13 3 1 0;
#X connect 13 4 2 0;
#X restore 24 477 pd FIFO_4bytes;
#X obj 24 506 list-compare;
#X msg 134 477 255 255 255 255;
#X obj 134 453 loadbang;
#X obj 20 534 tgl 20 0 empty empty empty 0 -10 0 12 #fcfcfc #000000
#000000 0 1;
#X obj 19 560 sel 1;
#X floatatom 441 180 5 0 0 0 - 3-preset-result - 0;
#X floatatom 516 182 5 0 0 0 - 4-preset-result - 0;
#X floatatom 594 180 5 0 0 0 - 5-preset-result - 0;
#X floatatom 666 181 5 0 0 0 - 6-preset-result - 0;
#X floatatom 740 180 5 0 0 0 - 7-preset-result - 0;
#X floatatom 804 179 5 0 0 0 - 8-preset-result - 0;
#X floatatom 887 177 5 0 0 0 - 9-preset-result - 0;
#X floatatom 963 175 5 0 0 0 - 10-preset-result - 0;
#X floatatom 1035 173 5 0 0 0 - 11-preset-result - 0;
#X floatatom 1106 183 5 0 0 0 - 12-preset-result - 0;
#X floatatom 1181 181 5 0 0 0 - 13-preset-result - 0;
#X floatatom 298 183 5 0 0 0 - 1-preset-result - 0;
#X floatatom 374 181 5 0 0 0 - 2-preset-result - 0;
#X obj 298 206 2bytes;
#X obj 372 206 2bytes;
#X obj 445 204 2bytes;
#X obj 520 208 2bytes;
#X obj 591 206 2bytes;
#X obj 669 205 2bytes;
#X obj 740 203 2bytes;
#X obj 803 204 2bytes;
#X obj 883 203 2bytes;
#X obj 964 203 2bytes;
#X obj 1035 200 2bytes;
#X obj 1106 207 2bytes;
#X obj 1182 206 2bytes;
#X obj 42 218 bng 15 250 50 0 empty empty empty 17 7 0 10 #fcfcfc #000000
#000000;
#X obj 42 150 metro 40;
#X obj 42 130 tgl 15 0 empty empty empty 17 7 0 10 #fcfcfc #000000
#000000 0 1;
#X text 62 169 Preset mode;
#X text 40 690 46bytes;
#X text 39 259 50bytes;
#X floatatom 408 785 5 0 0 0 - - - 0;
#X floatatom 455 784 5 0 0 0 - - - 0;
#X floatatom 497 783 5 0 0 0 - - - 0;
#X floatatom 544 782 5 0 0 0 - - - 0;
#X floatatom 587 781 5 0 0 0 - - - 0;
#X floatatom 635 784 5 0 0 0 - - - 0;
#X floatatom 677 783 5 0 0 0 - - - 0;
#X floatatom 724 782 5 0 0 0 - - - 0;
#X floatatom 764 782 5 0 0 0 - - - 0;
#X floatatom 805 784 5 0 0 0 - - - 0;
#X floatatom 810 761 5 0 0 0 - - - 0;
#X floatatom 857 760 5 0 0 0 - - - 0;
#X floatatom 899 759 5 0 0 0 - - - 0;
#X floatatom 946 758 5 0 0 0 - - - 0;
#X floatatom 989 757 5 0 0 0 - - - 0;
#X floatatom 1036 756 5 0 0 0 - - - 0;
#X floatatom 1078 755 5 0 0 0 - - - 0;
#X floatatom 1125 754 5 0 0 0 - - - 0;
#X floatatom 1165 754 5 0 0 0 - - - 0;
#X floatatom 1212 753 5 0 0 0 - - - 0;
#X floatatom 1218 778 5 0 0 0 - - - 0;
#X floatatom 1265 777 5 0 0 0 - - - 0;
#X floatatom 1307 776 5 0 0 0 - - - 0;
#X floatatom 1354 775 5 0 0 0 - - - 0;
#X floatatom 1397 774 5 0 0 0 - - - 0;
#X floatatom 1444 776 5 0 0 0 - - - 0;
#X floatatom 1486 775 5 0 0 0 - - - 0;
#X floatatom 1533 774 5 0 0 0 - - - 0;
#X floatatom 1573 774 5 0 0 0 - - - 0;
#X floatatom 1619 779 5 0 0 0 - - - 0;
#X floatatom 1627 756 5 0 0 0 - - - 0;
#X floatatom 1674 755 5 0 0 0 - - - 0;
#X floatatom 1716 754 5 0 0 0 - - - 0;
#X floatatom 1763 753 5 0 0 0 - - - 0;
#X floatatom 1803 753 5 0 0 0 - - - 0;
#X floatatom 1821 799 5 0 0 0 - - - 0;
#X obj 252 666 route 1 2;
#X floatatom -12 861 5 0 0 0 - - - 0;
#X floatatom 36 865 5 0 0 0 - - - 0;
#X floatatom 78 864 5 0 0 0 - - - 0;
#X floatatom 125 863 5 0 0 0 - - - 0;
#X floatatom 168 862 5 0 0 0 - - - 0;
#X floatatom 215 861 5 0 0 0 - - - 0;
#X floatatom 257 860 5 0 0 0 - - - 0;
#X floatatom 304 859 5 0 0 0 - - - 0;
#X floatatom 344 859 5 0 0 0 - - - 0;
#X floatatom 391 858 5 0 0 0 - - - 0;
#X obj 18 826 unpack f f f f f f f f f f f f f f f f f f f f f f f
f f f f f f f f f f f f f f f f f f f f f f f, f 257;
#X floatatom 402 884 5 0 0 0 - - - 0;
#X floatatom 449 883 5 0 0 0 - - - 0;
#X floatatom 491 882 5 0 0 0 - - - 0;
#X floatatom 538 881 5 0 0 0 - - - 0;
#X floatatom 581 880 5 0 0 0 - - - 0;
#X floatatom 629 883 5 0 0 0 - - - 0;
#X floatatom 671 882 5 0 0 0 - - - 0;
#X floatatom 718 881 5 0 0 0 - - - 0;
#X floatatom 758 881 5 0 0 0 - - - 0;
#X floatatom 799 883 5 0 0 0 - - - 0;
#X floatatom 804 860 5 0 0 0 - - - 0;
#X floatatom 851 859 5 0 0 0 - - - 0;
#X floatatom 893 858 5 0 0 0 - - - 0;
#X floatatom 940 857 5 0 0 0 - - - 0;
#X floatatom 983 856 5 0 0 0 - - - 0;
#X floatatom 1030 855 5 0 0 0 - - - 0;
#X floatatom 1072 854 5 0 0 0 - - - 0;
#X floatatom 1119 853 5 0 0 0 - - - 0;
#X floatatom 1159 853 5 0 0 0 - - - 0;
#X floatatom 1206 852 5 0 0 0 - - - 0;
#X floatatom 1212 877 5 0 0 0 - - - 0;
#X floatatom 1259 876 5 0 0 0 - - - 0;
#X floatatom 1301 875 5 0 0 0 - - - 0;
#X floatatom 1348 874 5 0 0 0 - - - 0;
#X floatatom 1391 873 5 0 0 0 - - - 0;
#X floatatom 1438 875 5 0 0 0 - - - 0;
#X floatatom 1480 874 5 0 0 0 - - - 0;
#X floatatom 1527 873 5 0 0 0 - - - 0;
#X floatatom 1567 873 5 0 0 0 - - - 0;
#X floatatom 1613 878 5 0 0 0 - - - 0;
#X floatatom 1621 855 5 0 0 0 - - - 0;
#X floatatom 1668 854 5 0 0 0 - - - 0;
#X floatatom 1710 853 5 0 0 0 - - - 0;
#X floatatom 1757 852 5 0 0 0 - - - 0;
#X floatatom 1797 852 5 0 0 0 - - - 0;
#X floatatom 1815 898 5 0 0 0 - - - 0;
#X obj 252 636 zl group 46;
#X obj 24 727 unpack f f f f f f f f f f f f f f f f f f f f f f f
f f f f f f f f f f f f f f f f f f f f f f f, f 257;
#X msg 204 330 stopbit 1;
#X msg 205 353 rtscts 1;
#X msg 206 379 dtr 1;
#X obj 204 304 loadbang;
#X msg 128 335 open 32;
#X floatatom 222 188 5 0 0 0 - 3-preset-result - 0;
#X floatatom 79 191 5 0 0 0 - 1-preset-result - 0;
#X floatatom 155 189 5 0 0 0 - 2-preset-result - 0;
#X obj 79 214 2bytes;
#X obj 153 214 2bytes;
#X obj 226 212 2bytes;
#X obj 42 280 prepend 255 255 255 255 255 255 0;
#X obj 42 238 pack 4 f f f f f f f f f f f f f f f f f f f f f f f
f f f f f f f f f f f f f f f f f f f f, f 227;
#X connect 0 0 2 0;
#X connect 1 0 0 0;
#X connect 2 0 15 0;
#X connect 2 1 137 0;
#X connect 3 0 137 0;
#X connect 4 0 3 0;
#X connect 15 0 16 0;
#X connect 16 0 19 0;
#X connect 17 0 16 1;
#X connect 18 0 17 0;
#X connect 19 0 20 0;
#X connect 20 0 4 0;
#X connect 21 0 36 0;
#X connect 22 0 37 0;
#X connect 23 0 38 0;
#X connect 24 0 39 0;
#X connect 25 0 40 0;
#X connect 26 0 41 0;
#X connect 27 0 42 0;
#X connect 28 0 43 0;
#X connect 29 0 44 0;
#X connect 30 0 45 0;
#X connect 31 0 46 0;
#X connect 32 0 34 0;
#X connect 33 0 35 0;
#X connect 34 0 151 7;
#X connect 34 1 151 8;
#X connect 35 0 151 9;
#X connect 35 1 151 10;
#X connect 36 0 151 11;
#X connect 36 1 151 12;
#X connect 37 0 151 13;
#X connect 37 1 151 14;
#X connect 38 0 151 15;
#X connect 38 1 151 16;
#X connect 39 0 151 17;
#X connect 39 1 151 18;
#X connect 40 0 151 19;
#X connect 40 1 151 20;
#X connect 41 0 151 21;
#X connect 41 1 151 22;
#X connect 42 0 151 23;
#X connect 42 1 151 24;
#X connect 43 0 151 25;
#X connect 43 1 151 26;
#X connect 44 0 151 27;
#X connect 44 1 151 28;
#X connect 45 0 151 29;
#X connect 45 1 151 30;
#X connect 46 0 151 31;
#X connect 46 1 151 32;
#X connect 47 0 151 0;
#X connect 48 0 47 0;
#X connect 49 0 48 0;
#X connect 89 0 138 0;
#X connect 89 1 100 0;
#X connect 100 0 90 0;
#X connect 100 1 91 0;
#X connect 100 2 92 0;
#X connect 100 3 93 0;
#X connect 100 4 94 0;
#X connect 100 5 95 0;
#X connect 100 6 96 0;
#X connect 100 7 97 0;
#X connect 100 8 98 0;
#X connect 100 9 99 0;
#X connect 100 10 101 0;
#X connect 100 11 102 0;
#X connect 100 12 103 0;
#X connect 100 13 104 0;
#X connect 100 14 105 0;
#X connect 100 15 106 0;
#X connect 100 16 107 0;
#X connect 100 17 108 0;
#X connect 100 18 109 0;
#X connect 100 19 110 0;
#X connect 100 20 111 0;
#X connect 100 21 112 0;
#X connect 100 22 113 0;
#X connect 100 23 114 0;
#X connect 100 24 115 0;
#X connect 100 25 116 0;
#X connect 100 26 117 0;
#X connect 100 27 118 0;
#X connect 100 28 119 0;
#X connect 100 29 120 0;
#X connect 100 30 121 0;
#X connect 100 31 122 0;
#X connect 100 32 123 0;
#X connect 100 33 124 0;
#X connect 100 34 125 0;
#X connect 100 35 126 0;
#X connect 100 36 127 0;
#X connect 100 37 128 0;
#X connect 100 38 129 0;
#X connect 100 39 130 0;
#X connect 100 40 131 0;
#X connect 100 41 132 0;
#X connect 100 42 133 0;
#X connect 100 43 134 0;
#X connect 100 44 135 0;
#X connect 100 45 136 0;
#X connect 137 0 89 0;
#X connect 138 0 5 0;
#X connect 138 1 6 0;
#X connect 138 2 7 0;
#X connect 138 3 8 0;
#X connect 138 4 9 0;
#X connect 138 5 10 0;
#X connect 138 6 11 0;
#X connect 138 7 12 0;
#X connect 138 8 13 0;
#X connect 138 9 14 0;
#X connect 138 10 53 0;
#X connect 138 11 54 0;
#X connect 138 12 55 0;
#X connect 138 13 56 0;
#X connect 138 14 57 0;
#X connect 138 15 58 0;
#X connect 138 16 59 0;
#X connect 138 17 60 0;
#X connect 138 18 61 0;
#X connect 138 19 62 0;
#X connect 138 20 63 0;
#X connect 138 21 64 0;
#X connect 138 22 65 0;
#X connect 138 23 66 0;
#X connect 138 24 67 0;
#X connect 138 25 68 0;
#X connect 138 26 69 0;
#X connect 138 27 70 0;
#X connect 138 28 71 0;
#X connect 138 29 72 0;
#X connect 138 30 73 0;
#X connect 138 31 74 0;
#X connect 138 32 75 0;
#X connect 138 33 76 0;
#X connect 138 34 77 0;
#X connect 138 35 78 0;
#X connect 138 36 79 0;
#X connect 138 37 80 0;
#X connect 138 38 81 0;
#X connect 138 39 82 0;
#X connect 138 40 83 0;
#X connect 138 41 84 0;
#X connect 138 42 85 0;
#X connect 138 43 86 0;
#X connect 138 44 87 0;
#X connect 138 45 88 0;
#X connect 139 0 0 0;
#X connect 140 0 0 0;
#X connect 141 0 0 0;
#X connect 142 0 139 0;
#X connect 142 0 140 0;
#X connect 142 0 141 0;
#X connect 143 0 0 0;
#X connect 144 0 149 0;
#X connect 145 0 147 0;
#X connect 146 0 148 0;
#X connect 147 0 151 1;
#X connect 147 1 151 2;
#X connect 148 0 151 3;
#X connect 148 1 151 4;
#X connect 149 0 151 5;
#X connect 149 1 151 6;
#X connect 150 0 0 0;
#X connect 151 0 150 0;
