#N canvas 189 45 1397 908 12;
#X msg 61 336 devices;
#X obj 42 393 t a a;
#X msg 196 605 zlclear;
#X obj 195 580 bng 20 250 50 0 empty empty empty 0 -10 0 12 #fcfcfc
#000000 #000000;
#X floatatom -6 762 5 0 0 0 - - - 0;
#X floatatom 42 766 5 0 0 0 - - - 0;
#X floatatom 84 765 5 0 0 0 - - - 0;
#X floatatom 131 764 5 0 0 0 - - - 0;
#X floatatom 174 763 5 0 0 0 - - - 0;
#X floatatom 221 762 5 0 0 0 - - - 0;
#X floatatom 263 761 5 0 0 0 - - - 0;
#X floatatom 310 760 5 0 0 0 - - - 0;
#X floatatom 350 760 5 0 0 0 - - - 0;
#X floatatom 397 759 5 0 0 0 - - - 0;
#N canvas 388 186 1326 806 FIFO_4bytes 0;
#X obj 305 230 f;
#X obj 370 229 f;
#X obj 434 226 f;
#X floatatom 135 43 5 0 0 0 - - - 0;
#X obj 173 259 pack 0 f f f f, f 38;
#X obj 240 307 prepend set;
#X msg 240 330 0 0 0 0;
#X obj 133 69 t b f;
#X obj 174 285 zl slice 1;
#X obj 135 13 inlet;
#X obj 240 368 outlet;
#X msg 193 8 255 255 255 255 1 2 3 4 5 6 7 8 9 10;
#X obj 194 33 zl iter 1;
#X obj 165 92 t f f b b b, f 27;
#X connect 0 0 4 2;
#X connect 0 0 1 1;
#X connect 1 0 4 3;
#X connect 1 0 2 1;
#X connect 2 0 4 4;
#X connect 3 0 7 0;
#X connect 4 0 8 0;
#X connect 5 0 6 0;
#X connect 7 0 4 0;
#X connect 7 1 13 0;
#X connect 8 1 5 0;
#X connect 8 1 10 0;
#X connect 9 0 3 0;
#X connect 11 0 12 0;
#X connect 12 0 3 0;
#X connect 13 0 4 1;
#X connect 13 1 0 1;
#X connect 13 2 0 0;
#X connect 13 3 1 0;
#X connect 13 4 2 0;
#X restore 24 477 pd FIFO_4bytes;
#X obj 24 506 list-compare;
#X msg 134 477 255 255 255 255;
#X obj 134 453 loadbang;
#X obj 20 534 tgl 20 0 empty empty empty 0 -10 0 12 #fcfcfc #000000
#000000 0 1;
#X obj 19 560 sel 1;
#X floatatom 441 180 5 0 0 0 - 6-preset-result - 0;
#X floatatom 516 182 5 0 0 0 - 7-preset-result - 0;
#X floatatom 594 180 5 0 0 0 - 8-preset-result - 0;
#X floatatom 666 181 5 0 0 0 - 9-preset-result - 0;
#X floatatom 740 180 5 0 0 0 - 10-preset-result - 0;
#X floatatom 804 179 5 0 0 0 - 11-preset-result - 0;
#X floatatom 887 177 5 0 0 0 - 12-preset-result - 0;
#X floatatom 963 175 5 0 0 0 - 13-preset-result - 0;
#X floatatom 298 183 5 0 0 0 - 4-preset-result - 0;
#X floatatom 374 181 5 0 0 0 - 5-preset-result - 0;
#X obj 42 218 bng 15 250 50 0 empty empty empty 17 7 0 10 #fcfcfc #000000
#000000;
#X text 62 169 Preset mode;
#X text 40 690 46bytes;
#X text 51 301 50bytes;
#X floatatom 408 785 5 0 0 0 - - - 0;
#X floatatom 455 784 5 0 0 0 - - - 0;
#X floatatom 497 783 5 0 0 0 - - - 0;
#X floatatom 544 782 5 0 0 0 - - - 0;
#X floatatom 587 781 5 0 0 0 - - - 0;
#X floatatom 635 784 5 0 0 0 - - - 0;
#X floatatom 677 783 5 0 0 0 - - - 0;
#X floatatom 724 782 5 0 0 0 - - - 0;
#X floatatom 764 782 5 0 0 0 - - - 0;
#X floatatom 805 784 5 0 0 0 - - - 0;
#X floatatom 810 761 5 0 0 0 - - - 0;
#X floatatom 857 760 5 0 0 0 - - - 0;
#X floatatom 899 759 5 0 0 0 - - - 0;
#X floatatom 946 758 5 0 0 0 - - - 0;
#X floatatom 989 757 5 0 0 0 - - - 0;
#X floatatom 1036 756 5 0 0 0 - - - 0;
#X floatatom 1078 755 5 0 0 0 - - - 0;
#X floatatom 1125 754 5 0 0 0 - - - 0;
#X floatatom 1165 754 5 0 0 0 - - - 0;
#X floatatom 1212 753 5 0 0 0 - - - 0;
#X floatatom 1218 778 5 0 0 0 - - - 0;
#X floatatom 1265 777 5 0 0 0 - - - 0;
#X floatatom 1307 776 5 0 0 0 - - - 0;
#X floatatom 1354 775 5 0 0 0 - - - 0;
#X floatatom 1397 774 5 0 0 0 - - - 0;
#X floatatom 1444 776 5 0 0 0 - - - 0;
#X floatatom 1486 775 5 0 0 0 - - - 0;
#X floatatom 1533 774 5 0 0 0 - - - 0;
#X floatatom 1573 774 5 0 0 0 - - - 0;
#X floatatom 1619 779 5 0 0 0 - - - 0;
#X floatatom 1627 756 5 0 0 0 - - - 0;
#X floatatom 1674 755 5 0 0 0 - - - 0;
#X floatatom 1716 754 5 0 0 0 - - - 0;
#X floatatom 1763 753 5 0 0 0 - - - 0;
#X floatatom 1803 753 5 0 0 0 - - - 0;
#X floatatom 1821 799 5 0 0 0 - - - 0;
#X obj 252 666 route 1 2;
#X floatatom -12 861 5 0 0 0 - - - 0;
#X floatatom 36 865 5 0 0 0 - - - 0;
#X floatatom 78 864 5 0 0 0 - - - 0;
#X floatatom 125 863 5 0 0 0 - - - 0;
#X floatatom 168 862 5 0 0 0 - - - 0;
#X floatatom 215 861 5 0 0 0 - - - 0;
#X floatatom 257 860 5 0 0 0 - - - 0;
#X floatatom 304 859 5 0 0 0 - - - 0;
#X floatatom 344 859 5 0 0 0 - - - 0;
#X floatatom 391 858 5 0 0 0 - - - 0;
#X obj 18 826 unpack f f f f f f f f f f f f f f f f f f f f f f f
f f f f f f f f f f f f f f f f f f f f f f f, f 257;
#X floatatom 402 884 5 0 0 0 - - - 0;
#X floatatom 449 883 5 0 0 0 - - - 0;
#X floatatom 491 882 5 0 0 0 - - - 0;
#X floatatom 538 881 5 0 0 0 - - - 0;
#X floatatom 581 880 5 0 0 0 - - - 0;
#X floatatom 629 883 5 0 0 0 - - - 0;
#X floatatom 671 882 5 0 0 0 - - - 0;
#X floatatom 718 881 5 0 0 0 - - - 0;
#X floatatom 758 881 5 0 0 0 - - - 0;
#X floatatom 799 883 5 0 0 0 - - - 0;
#X floatatom 804 860 5 0 0 0 - - - 0;
#X floatatom 851 859 5 0 0 0 - - - 0;
#X floatatom 893 858 5 0 0 0 - - - 0;
#X floatatom 940 857 5 0 0 0 - - - 0;
#X floatatom 983 856 5 0 0 0 - - - 0;
#X floatatom 1030 855 5 0 0 0 - - - 0;
#X floatatom 1072 854 5 0 0 0 - - - 0;
#X floatatom 1119 853 5 0 0 0 - - - 0;
#X floatatom 1159 853 5 0 0 0 - - - 0;
#X floatatom 1206 852 5 0 0 0 - - - 0;
#X floatatom 1212 877 5 0 0 0 - - - 0;
#X floatatom 1259 876 5 0 0 0 - - - 0;
#X floatatom 1301 875 5 0 0 0 - - - 0;
#X floatatom 1348 874 5 0 0 0 - - - 0;
#X floatatom 1391 873 5 0 0 0 - - - 0;
#X floatatom 1438 875 5 0 0 0 - - - 0;
#X floatatom 1480 874 5 0 0 0 - - - 0;
#X floatatom 1527 873 5 0 0 0 - - - 0;
#X floatatom 1567 873 5 0 0 0 - - - 0;
#X floatatom 1613 878 5 0 0 0 - - - 0;
#X floatatom 1621 855 5 0 0 0 - - - 0;
#X floatatom 1668 854 5 0 0 0 - - - 0;
#X floatatom 1710 853 5 0 0 0 - - - 0;
#X floatatom 1757 852 5 0 0 0 - - - 0;
#X floatatom 1797 852 5 0 0 0 - - - 0;
#X floatatom 1815 898 5 0 0 0 - - - 0;
#X obj 252 636 zl group 46;
#X obj 24 727 unpack f f f f f f f f f f f f f f f f f f f f f f f
f f f f f f f f f f f f f f f f f f f f f f f, f 257;
#X msg 204 330 stopbit 1;
#X msg 205 353 rtscts 1;
#X msg 206 379 dtr 1;
#X obj 204 304 loadbang;
#X msg 128 335 open 32;
#X floatatom 222 188 5 0 0 0 - 3-preset-result - 0;
#X floatatom 79 187 5 0 0 0 - 1-preset-result - 0;
#X floatatom 155 189 5 0 0 0 - 2-preset-result - 0;
#X obj 42 280 prepend 255 255 255 255 255 255 0;
#X obj 42 239 pack 4 f f f f f f f f f f f f f f f f f f f f f f f
f f f f f f f f f f f f f f f f f f f f, f 227;
#X msg 288 332 stopbit 0;
#X msg 289 355 rtscts 0;
#X msg 290 381 dtr 0;
#X obj 42 369 comport 32 115200;
#X obj 96 54 delay 1;
#X obj 98 5 r stop_global;
#X obj 97 33 bng 15 250 50 0 empty empty empty 17 7 0 10 #fcfcfc #000000
#000000;
#X obj 101 79 t b b;
#X obj 198 5 r CRMuxXbee;
#X obj 286 4 r SetBaseYawZero;
#X obj 406 4 r SetBaseYawM025;
#X obj 79 214 2bytes 1;
#X obj 153 214 2bytes 1;
#X obj 226 212 2bytes 1;
#X obj 298 206 2bytes 1;
#X obj 372 206 2bytes 1;
#X obj 445 204 2bytes 1;
#X obj 520 208 2bytes 1;
#X obj 591 206 2bytes 1;
#X obj 669 205 2bytes 1;
#X obj 740 203 2bytes 1;
#X obj 803 204 2bytes 1;
#X obj 526 3 r DefaultPosition;
#X obj 42 127 r global_bang;
#X obj 683 9 r command50001;
#X obj 883 203 2bytes 1;
#X obj 964 203 2bytes 1;
#X obj 259 449 prepend set;
#X msg 259 477 4 80 195 80 195 80 195 80 195 80 195 80 195 80 195 80
195 80 195 80 195 80 195 80 195 80 195 0 0 0 0 0 0 0 0 0 0 0 0 0 0
0 0 0, f 131;
#X obj 148 128 bng 19 250 50 0 empty activity_ckeck_bang activity_ckeck_bang
0 -10 0 12 #fcfcfc #000000 #000000;
#X obj 295 126 bng 15 250 50 0 empty oneshot_bang Send\ Oneshot -5
-5 0 10 #00faff #000000 #000000;
#X connect 0 0 133 0;
#X connect 1 0 14 0;
#X connect 1 1 118 0;
#X connect 2 0 118 0;
#X connect 3 0 2 0;
#X connect 14 0 15 0;
#X connect 15 0 18 0;
#X connect 16 0 15 1;
#X connect 17 0 16 0;
#X connect 18 0 19 0;
#X connect 19 0 3 0;
#X connect 20 0 146 0;
#X connect 21 0 147 0;
#X connect 22 0 148 0;
#X connect 23 0 149 0;
#X connect 24 0 150 0;
#X connect 25 0 151 0;
#X connect 26 0 155 0;
#X connect 27 0 156 0;
#X connect 28 0 144 0;
#X connect 29 0 145 0;
#X connect 30 0 129 0;
#X connect 70 0 119 0;
#X connect 70 1 81 0;
#X connect 81 0 71 0;
#X connect 81 1 72 0;
#X connect 81 2 73 0;
#X connect 81 3 74 0;
#X connect 81 4 75 0;
#X connect 81 5 76 0;
#X connect 81 6 77 0;
#X connect 81 7 78 0;
#X connect 81 8 79 0;
#X connect 81 9 80 0;
#X connect 81 10 82 0;
#X connect 81 11 83 0;
#X connect 81 12 84 0;
#X connect 81 13 85 0;
#X connect 81 14 86 0;
#X connect 81 15 87 0;
#X connect 81 16 88 0;
#X connect 81 17 89 0;
#X connect 81 18 90 0;
#X connect 81 19 91 0;
#X connect 81 20 92 0;
#X connect 81 21 93 0;
#X connect 81 22 94 0;
#X connect 81 23 95 0;
#X connect 81 24 96 0;
#X connect 81 25 97 0;
#X connect 81 26 98 0;
#X connect 81 27 99 0;
#X connect 81 28 100 0;
#X connect 81 29 101 0;
#X connect 81 30 102 0;
#X connect 81 31 103 0;
#X connect 81 32 104 0;
#X connect 81 33 105 0;
#X connect 81 34 106 0;
#X connect 81 35 107 0;
#X connect 81 36 108 0;
#X connect 81 37 109 0;
#X connect 81 38 110 0;
#X connect 81 39 111 0;
#X connect 81 40 112 0;
#X connect 81 41 113 0;
#X connect 81 42 114 0;
#X connect 81 43 115 0;
#X connect 81 44 116 0;
#X connect 81 45 117 0;
#X connect 118 0 70 0;
#X connect 119 0 4 0;
#X connect 119 1 5 0;
#X connect 119 2 6 0;
#X connect 119 3 7 0;
#X connect 119 4 8 0;
#X connect 119 5 9 0;
#X connect 119 6 10 0;
#X connect 119 7 11 0;
#X connect 119 8 12 0;
#X connect 119 9 13 0;
#X connect 119 10 34 0;
#X connect 119 11 35 0;
#X connect 119 12 36 0;
#X connect 119 13 37 0;
#X connect 119 14 38 0;
#X connect 119 15 39 0;
#X connect 119 16 40 0;
#X connect 119 17 41 0;
#X connect 119 18 42 0;
#X connect 119 19 43 0;
#X connect 119 20 44 0;
#X connect 119 21 45 0;
#X connect 119 22 46 0;
#X connect 119 23 47 0;
#X connect 119 24 48 0;
#X connect 119 25 49 0;
#X connect 119 26 50 0;
#X connect 119 27 51 0;
#X connect 119 28 52 0;
#X connect 119 29 53 0;
#X connect 119 30 54 0;
#X connect 119 31 55 0;
#X connect 119 32 56 0;
#X connect 119 33 57 0;
#X connect 119 34 58 0;
#X connect 119 35 59 0;
#X connect 119 36 60 0;
#X connect 119 37 61 0;
#X connect 119 38 62 0;
#X connect 119 39 63 0;
#X connect 119 40 64 0;
#X connect 119 41 65 0;
#X connect 119 42 66 0;
#X connect 119 43 67 0;
#X connect 119 44 68 0;
#X connect 119 45 69 0;
#X connect 120 0 133 0;
#X connect 121 0 133 0;
#X connect 122 0 133 0;
#X connect 123 0 120 0;
#X connect 123 0 121 0;
#X connect 123 0 122 0;
#X connect 124 0 133 0;
#X connect 125 0 143 0;
#X connect 126 0 141 0;
#X connect 127 0 142 0;
#X connect 128 0 133 0;
#X connect 129 0 128 0;
#X connect 129 0 157 0;
#X connect 130 0 133 0;
#X connect 131 0 133 0;
#X connect 132 0 133 0;
#X connect 133 0 1 0;
#X connect 134 0 137 0;
#X connect 135 0 136 0;
#X connect 136 0 134 0;
#X connect 137 1 30 0;
#X connect 138 0 136 0;
#X connect 139 0 136 0;
#X connect 140 0 136 0;
#X connect 141 0 129 1;
#X connect 141 1 129 2;
#X connect 142 0 129 3;
#X connect 142 1 129 4;
#X connect 143 0 129 5;
#X connect 143 1 129 6;
#X connect 144 0 129 7;
#X connect 144 1 129 8;
#X connect 145 0 129 9;
#X connect 145 1 129 10;
#X connect 146 0 129 11;
#X connect 146 1 129 12;
#X connect 147 0 129 13;
#X connect 147 1 129 14;
#X connect 148 0 129 15;
#X connect 148 1 129 16;
#X connect 149 0 129 17;
#X connect 149 1 129 18;
#X connect 150 0 129 19;
#X connect 150 1 129 20;
#X connect 151 0 129 21;
#X connect 151 1 129 22;
#X connect 152 0 136 0;
#X connect 153 0 30 0;
#X connect 154 0 136 0;
#X connect 155 0 129 23;
#X connect 155 1 129 24;
#X connect 156 0 129 25;
#X connect 156 1 129 26;
#X connect 157 0 158 0;
#X connect 159 0 30 0;
#X connect 160 0 30 0;
