#N canvas 392 155 1793 743 12;
#X msg 86 213 devices;
#X obj 49 325 t a a;
#X msg 50 484 zlclear;
#X obj 49 459 bng 20 250 50 0 empty empty empty 0 -10 0 12 #fcfcfc #000000 #000000;
#X floatatom 19 639 5 0 0 0 - - - 0;
#X floatatom 67 643 5 0 0 0 - - - 0;
#X floatatom 109 642 5 0 0 0 - - - 0;
#X floatatom 156 641 5 0 0 0 - - - 0;
#X floatatom 199 640 5 0 0 0 - - - 0;
#X floatatom 246 639 5 0 0 0 - - - 0;
#X floatatom 288 638 5 0 0 0 - - - 0;
#X floatatom 335 637 5 0 0 0 - - - 0;
#X floatatom 375 637 5 0 0 0 - - - 0;
#X floatatom 422 636 5 0 0 0 - - - 0;
#N canvas 388 186 1326 806 FIFO_4bytes 0;
#X obj 305 230 f;
#X obj 370 229 f;
#X obj 434 226 f;
#X floatatom 135 43 5 0 0 0 - - - 0;
#X obj 173 259 pack 0 f f f f, f 38;
#X obj 240 307 prepend set;
#X msg 240 330 0 0 0 0;
#X obj 133 69 t b f;
#X obj 174 285 zl slice 1;
#X obj 135 13 inlet;
#X obj 240 368 outlet;
#X msg 193 8 255 255 255 255 1 2 3 4 5 6 7 8 9 10;
#X obj 194 33 zl iter 1;
#X obj 165 92 t f f b b b, f 27;
#X connect 0 0 4 2;
#X connect 0 0 1 1;
#X connect 1 0 4 3;
#X connect 1 0 2 1;
#X connect 2 0 4 4;
#X connect 3 0 7 0;
#X connect 4 0 8 0;
#X connect 5 0 6 0;
#X connect 7 0 4 0;
#X connect 7 1 13 0;
#X connect 8 1 5 0;
#X connect 8 1 10 0;
#X connect 9 0 3 0;
#X connect 11 0 12 0;
#X connect 12 0 3 0;
#X connect 13 0 4 1;
#X connect 13 1 0 1;
#X connect 13 2 0 0;
#X connect 13 3 1 0;
#X connect 13 4 2 0;
#X restore 49 354 pd FIFO_4bytes;
#X obj 49 383 list-compare;
#X msg 159 354 255 255 255 255;
#X obj 159 330 loadbang;
#X obj 49 408 tgl 20 0 empty empty empty 0 -10 0 12 #fcfcfc #000000 #000000 0 1;
#X obj 49 434 sel 1;
#X floatatom 466 57 5 0 0 0 - 6-preset-result - 0;
#X floatatom 541 59 5 0 0 0 - 7-preset-result - 0;
#X floatatom 619 57 5 0 0 0 - 8-preset-result - 0;
#X floatatom 691 58 5 0 0 0 - 9-preset-result - 0;
#X floatatom 765 57 5 0 0 0 - 10-preset-result - 0;
#X floatatom 829 56 5 0 0 0 - 11-preset-result - 0;
#X floatatom 912 54 5 0 0 0 - 12-preset-result - 0;
#X floatatom 988 52 5 0 0 0 - 13-preset-result - 0;
#X floatatom 323 60 5 0 0 0 - 4-preset-result - 0;
#X floatatom 399 58 5 0 0 0 - 5-preset-result - 0;
#X obj 67 95 bng 15 250 50 0 empty empty empty 17 7 0 10 #fcfcfc #000000 #000000;
#X text 87 46 Preset mode;
#X text 65 567 46bytes;
#X text 76 196 50bytes;
#X floatatom 433 662 5 0 0 0 - - - 0;
#X floatatom 480 661 5 0 0 0 - - - 0;
#X floatatom 522 660 5 0 0 0 - - - 0;
#X floatatom 569 659 5 0 0 0 - - - 0;
#X floatatom 612 658 5 0 0 0 - - - 0;
#X floatatom 660 661 5 0 0 0 - - - 0;
#X floatatom 702 660 5 0 0 0 - - - 0;
#X floatatom 749 659 5 0 0 0 - - - 0;
#X floatatom 789 659 5 0 0 0 - - - 0;
#X floatatom 830 661 5 0 0 0 - - - 0;
#X floatatom 835 638 5 0 0 0 - - - 0;
#X floatatom 882 637 5 0 0 0 - - - 0;
#X floatatom 924 636 5 0 0 0 - - - 0;
#X floatatom 971 635 5 0 0 0 - - - 0;
#X floatatom 1014 634 5 0 0 0 - - - 0;
#X floatatom 1061 633 5 0 0 0 - - - 0;
#X floatatom 1103 632 5 0 0 0 - - - 0;
#X floatatom 1150 631 5 0 0 0 - - - 0;
#X floatatom 1190 631 5 0 0 0 - - - 0;
#X floatatom 1237 630 5 0 0 0 - - - 0;
#X floatatom 1243 655 5 0 0 0 - - - 0;
#X floatatom 1290 654 5 0 0 0 - - - 0;
#X floatatom 1332 653 5 0 0 0 - - - 0;
#X floatatom 1379 652 5 0 0 0 - - - 0;
#X floatatom 1422 651 5 0 0 0 - - - 0;
#X floatatom 1469 653 5 0 0 0 - - - 0;
#X floatatom 1511 652 5 0 0 0 - - - 0;
#X floatatom 1558 651 5 0 0 0 - - - 0;
#X floatatom 1598 651 5 0 0 0 - - - 0;
#X floatatom 1644 656 5 0 0 0 - - - 0;
#X floatatom 1652 633 5 0 0 0 - - - 0;
#X floatatom 1699 632 5 0 0 0 - - - 0;
#X floatatom 1741 631 5 0 0 0 - - - 0;
#X floatatom 1788 630 5 0 0 0 - - - 0;
#X floatatom 1828 630 5 0 0 0 - - - 0;
#X floatatom 1846 676 5 0 0 0 - - - 0;
#X obj 50 535 route 1 2;
#X floatatom 13 738 5 0 0 0 - - - 0;
#X floatatom 61 742 5 0 0 0 - - - 0;
#X floatatom 103 741 5 0 0 0 - - - 0;
#X floatatom 150 740 5 0 0 0 - - - 0;
#X floatatom 193 739 5 0 0 0 - - - 0;
#X floatatom 240 738 5 0 0 0 - - - 0;
#X floatatom 282 737 5 0 0 0 - - - 0;
#X floatatom 329 736 5 0 0 0 - - - 0;
#X floatatom 369 736 5 0 0 0 - - - 0;
#X floatatom 416 735 5 0 0 0 - - - 0;
#X obj 43 703 unpack f f f f f f f f f f f f f f f f f f f f f f f f f f f f f f f f f f f f f f f f f f f f f f, f 257;
#X floatatom 427 761 5 0 0 0 - - - 0;
#X floatatom 474 760 5 0 0 0 - - - 0;
#X floatatom 516 759 5 0 0 0 - - - 0;
#X floatatom 563 758 5 0 0 0 - - - 0;
#X floatatom 606 757 5 0 0 0 - - - 0;
#X floatatom 654 760 5 0 0 0 - - - 0;
#X floatatom 696 759 5 0 0 0 - - - 0;
#X floatatom 743 758 5 0 0 0 - - - 0;
#X floatatom 783 758 5 0 0 0 - - - 0;
#X floatatom 824 760 5 0 0 0 - - - 0;
#X floatatom 829 737 5 0 0 0 - - - 0;
#X floatatom 876 736 5 0 0 0 - - - 0;
#X floatatom 918 735 5 0 0 0 - - - 0;
#X floatatom 965 734 5 0 0 0 - - - 0;
#X floatatom 1008 733 5 0 0 0 - - - 0;
#X floatatom 1055 732 5 0 0 0 - - - 0;
#X floatatom 1097 731 5 0 0 0 - - - 0;
#X floatatom 1144 730 5 0 0 0 - - - 0;
#X floatatom 1184 730 5 0 0 0 - - - 0;
#X floatatom 1231 729 5 0 0 0 - - - 0;
#X floatatom 1237 754 5 0 0 0 - - - 0;
#X floatatom 1284 753 5 0 0 0 - - - 0;
#X floatatom 1326 752 5 0 0 0 - - - 0;
#X floatatom 1373 751 5 0 0 0 - - - 0;
#X floatatom 1416 750 5 0 0 0 - - - 0;
#X floatatom 1463 752 5 0 0 0 - - - 0;
#X floatatom 1505 751 5 0 0 0 - - - 0;
#X floatatom 1552 750 5 0 0 0 - - - 0;
#X floatatom 1592 750 5 0 0 0 - - - 0;
#X floatatom 1638 755 5 0 0 0 - - - 0;
#X floatatom 1646 732 5 0 0 0 - - - 0;
#X floatatom 1693 731 5 0 0 0 - - - 0;
#X floatatom 1735 730 5 0 0 0 - - - 0;
#X floatatom 1782 729 5 0 0 0 - - - 0;
#X floatatom 1822 729 5 0 0 0 - - - 0;
#X floatatom 1840 775 5 0 0 0 - - - 0;
#X obj 50 510 zl group 46;
#X obj 49 604 unpack f f f f f f f f f f f f f f f f f f f f f f f f f f f f f f f f f f f f f f f f f f f f f f, f 257;
#X msg 229 207 stopbit 1;
#X msg 230 230 rtscts 1;
#X msg 231 256 dtr 1;
#X obj 228 142 loadbang;
#X msg 153 212 open 32;
#X floatatom 247 65 5 0 0 0 - 3-preset-result - 0;
#X floatatom 104 64 5 0 0 0 - 1-preset-result - 0;
#X floatatom 180 66 5 0 0 0 - 2-preset-result - 0;
#X obj 67 116 pack 4 f f f f f f f f f f f f f f f f f f f f f f f f f f f f f f f f f f f f f f f f f f f, f 229;
#X msg 313 209 stopbit 0;
#X msg 314 232 rtscts 0;
#X msg 315 258 dtr 0;
#X obj 49 299 comport 32 115200;
#X obj 104 91 2bytes 1;
#X obj 178 91 2bytes 1;
#X obj 251 89 2bytes 1;
#X obj 323 83 2bytes 1;
#X obj 397 83 2bytes 1;
#X obj 470 81 2bytes 1;
#X obj 545 85 2bytes 1;
#X obj 616 83 2bytes 1;
#X obj 694 82 2bytes 1;
#X obj 765 80 2bytes 1;
#X obj 828 81 2bytes 1;
#X obj 908 80 2bytes 1;
#X obj 989 80 2bytes 1;
#X obj 284 326 prepend set;
#X msg 284 354 4 63 8 63 8 63 8 63 8 63 8 63 8 63 8 0 0 0 0 0 0 0 0 0 0 0 0 0 0 0 0 0 0 0 0 0 0 0 0 0 0 0 0 0, f 131;
#N canvas 76 19 1449 984 XbeePoll 1;
#X obj 91 18 r command_poll;
#X obj 956 287 tgl 15 0 empty empty empty 0 -6 0 8 #fcfcfc #000000 #000000 0 1;
#X obj 937 288 tgl 15 0 empty empty empty 0 -6 0 8 #fcfcfc #000000 #000000 0 1;
#X obj 919 289 tgl 15 0 empty empty empty 0 -6 0 8 #fcfcfc #000000 #000000 0 1;
#X obj 902 289 tgl 15 0 empty empty empty 0 -6 0 8 #fcfcfc #000000 #000000 0 1;
#X obj 884 290 tgl 15 0 empty empty empty 0 -6 0 8 #fcfcfc #000000 #000000 0 1;
#X obj 866 289 tgl 15 0 empty empty empty 0 -6 0 8 #fcfcfc #000000 #000000 0 1;
#X obj 846 290 tgl 15 0 empty empty empty 0 -6 0 8 #fcfcfc #000000 #000000 0 1;
#X obj 828 290 tgl 15 0 empty empty empty 0 -6 0 8 #fcfcfc #000000 #000000 0 1;
#X floatatom 872 384 5 0 0 1 Byte2 - - 0;
#X obj 871 348 bytemask;
#X obj 872 422 debytemask;
#X obj 970 486 tgl 15 0 empty empty empty 0 -6 0 8 #fcfcfc #000000 #000000 0 1;
#X obj 952 487 tgl 15 0 empty empty empty 0 -6 0 8 #fcfcfc #000000 #000000 0 1;
#X obj 935 487 tgl 15 0 empty empty empty 0 -6 0 8 #fcfcfc #000000 #000000 0 4;
#X obj 916 488 tgl 15 0 empty empty empty 0 -6 0 8 #fcfcfc #000000 #000000 0 8;
#X obj 899 488 tgl 15 0 empty empty empty 0 -6 0 8 #fcfcfc #000000 #000000 0 16;
#X obj 880 488 tgl 15 0 empty empty empty 0 -6 0 8 #fcfcfc #000000 #000000 0 32;
#X obj 861 488 tgl 15 0 empty empty empty 0 -6 0 8 #fcfcfc #000000 #000000 0 64;
#X obj 842 489 tgl 15 0 empty empty empty 0 -6 0 8 #fcfcfc #000000 #000000 0 1;
#X obj 809 287 tgl 15 0 empty empty empty 0 -6 0 8 #fcfcfc #000000 #000000 0 1;
#X obj 790 288 tgl 15 0 empty empty empty 0 -6 0 8 #fcfcfc #000000 #000000 0 1;
#X obj 772 289 tgl 15 0 empty empty empty 0 -6 0 8 #fcfcfc #000000 #000000 0 1;
#X obj 755 289 tgl 15 0 empty empty empty 0 -6 0 8 #fcfcfc #000000 #000000 0 1;
#X obj 737 290 tgl 15 0 empty empty empty 0 -6 0 8 #fcfcfc #000000 #000000 0 1;
#X obj 719 289 tgl 15 0 empty empty empty 0 -6 0 8 #fcfcfc #000000 #000000 0 1;
#X obj 699 290 tgl 15 0 empty empty empty 0 -6 0 8 #fcfcfc #000000 #000000 0 1;
#X obj 681 290 tgl 15 0 empty empty empty 0 -6 0 8 #fcfcfc #000000 #000000 0 1;
#X floatatom 725 384 5 0 0 1 Byte2 - - 0;
#X obj 724 348 bytemask;
#X obj 725 422 debytemask;
#X obj 823 486 tgl 15 0 empty empty empty 0 -6 0 8 #fcfcfc #000000 #000000 0 1;
#X obj 805 487 tgl 15 0 empty empty empty 0 -6 0 8 #fcfcfc #000000 #000000 0 1;
#X obj 788 487 tgl 15 0 empty empty empty 0 -6 0 8 #fcfcfc #000000 #000000 0 4;
#X obj 769 488 tgl 15 0 empty empty empty 0 -6 0 8 #fcfcfc #000000 #000000 0 8;
#X obj 752 488 tgl 15 0 empty empty empty 0 -6 0 8 #fcfcfc #000000 #000000 0 16;
#X obj 733 488 tgl 15 0 empty empty empty 0 -6 0 8 #fcfcfc #000000 #000000 0 32;
#X obj 714 488 tgl 15 0 empty empty empty 0 -6 0 8 #fcfcfc #000000 #000000 0 64;
#X obj 695 489 tgl 15 0 empty empty empty 0 -6 0 8 #fcfcfc #000000 #000000 0 1;
#X obj 55 170 f;
#X obj 84 169 + 1;
#X floatatom 55 198 5 0 0 0 - - - 0;
#X obj 53 121 tgl 15 0 empty empty empty 17 7 0 10 #fcfcfc #000000 #000000 0 1;
#X msg 994 252 1 0;
#X obj 58 236 sel 0 1 2 3 4 5 6 7 8 9 10 11 12, f 53;
#X msg 124 168 0;
#X msg 52 96 1;
#X obj 100 77 t b b;
#X obj 437 268 s poll_end_bang;
#X obj 89 54 bng 15 250 50 0 empty empty empty 17 7 0 10 #fcfcfc #000000 #000000;
#X obj 154 78 r poll_end_bang;
#X msg 88 98 0;
#X msg 996 279 2 0;
#X msg 995 303 4 0;
#X msg 997 329 8 0;
#X msg 1000 355 16 0;
#X msg 1002 400 64 0;
#X msg 1003 423 128 0;
#X msg 1002 378 32 0;
#X msg 1004 448 0 1;
#X msg 1007 473 0 2;
#X msg 1009 496 0 4;
#X msg 1010 521 0 8;
#X msg 1013 545 0 16;
#X obj 143 728 list append;
#X obj 709 648 bng 18 250 50 0 empty empty empty 0 -6 0 8 #d0d0d0 #404040 #000000;
#X obj 709 675 cyclone/uzi 42;
#X obj 709 727 zl group 42;
#X msg 709 701 0;
#X obj 710 624 loadbang;
#X obj 144 760 outlet;
#X obj 54 141 metro 20;
#X obj 275 757 print;
#X msg 100 274 255 255 255 255 1 0 8 0;
#X msg 124 302 255 255 255 255 2 0 8 0;
#X msg 147 332 255 255 255 255 4 0 8 0, f 26;
#X msg 172 362 255 255 255 255 8 0 8 0;
#X msg 190 389 255 255 255 255 16 0 8 0;
#X msg 219 416 255 255 255 255 32 0 8 0;
#X msg 249 445 255 255 255 255 64 0 8 0;
#X msg 273 473 255 255 255 255 128 0 8 0;
#X msg 305 499 255 255 255 255 0 1 8 0;
#X msg 330 527 255 255 255 255 0 2 8 0;
#X msg 359 553 255 255 255 255 0 4 8 0;
#X msg 394 578 255 255 255 255 0 8 8 0;
#X msg 432 601 255 255 255 255 0 16 8 0;
#X connect 0 0 49 0;
#X connect 1 0 10 0;
#X connect 2 0 10 1;
#X connect 3 0 10 2;
#X connect 4 0 10 3;
#X connect 5 0 10 4;
#X connect 6 0 10 5;
#X connect 7 0 10 6;
#X connect 8 0 10 7;
#X connect 9 0 11 0;
#X connect 10 0 9 0;
#X connect 11 0 12 0;
#X connect 11 1 13 0;
#X connect 11 2 14 0;
#X connect 11 3 15 0;
#X connect 11 4 16 0;
#X connect 11 5 17 0;
#X connect 11 6 18 0;
#X connect 11 7 19 0;
#X connect 20 0 29 0;
#X connect 21 0 29 1;
#X connect 22 0 29 2;
#X connect 23 0 29 3;
#X connect 24 0 29 4;
#X connect 25 0 29 5;
#X connect 26 0 29 6;
#X connect 27 0 29 7;
#X connect 28 0 30 0;
#X connect 29 0 28 0;
#X connect 30 0 31 0;
#X connect 30 1 32 0;
#X connect 30 2 33 0;
#X connect 30 3 34 0;
#X connect 30 4 35 0;
#X connect 30 5 36 0;
#X connect 30 6 37 0;
#X connect 30 7 38 0;
#X connect 39 0 40 0;
#X connect 39 0 41 0;
#X connect 40 0 39 1;
#X connect 41 0 44 0;
#X connect 42 0 71 0;
#X connect 44 0 73 0;
#X connect 44 1 74 0;
#X connect 44 2 75 0;
#X connect 44 3 76 0;
#X connect 44 4 77 0;
#X connect 44 5 78 0;
#X connect 44 6 79 0;
#X connect 44 7 80 0;
#X connect 44 8 81 0;
#X connect 44 9 82 0;
#X connect 44 10 83 0;
#X connect 44 11 84 0;
#X connect 44 12 85 0;
#X connect 44 13 48 0;
#X connect 45 0 39 1;
#X connect 46 0 42 0;
#X connect 47 0 46 0;
#X connect 47 1 45 0;
#X connect 49 0 47 0;
#X connect 50 0 51 0;
#X connect 51 0 42 0;
#X connect 64 0 70 0;
#X connect 64 0 72 0;
#X connect 65 0 66 0;
#X connect 66 0 68 0;
#X connect 67 0 64 1;
#X connect 68 0 67 0;
#X connect 69 0 65 0;
#X connect 71 0 39 0;
#X connect 73 0 64 0;
#X connect 74 0 64 0;
#X connect 75 0 64 0;
#X connect 76 0 64 0;
#X connect 77 0 64 0;
#X connect 78 0 64 0;
#X connect 79 0 64 0;
#X connect 80 0 64 0;
#X connect 81 0 64 0;
#X connect 82 0 64 0;
#X connect 83 0 64 0;
#X connect 84 0 64 0;
#X connect 85 0 64 0;
#X restore 443 278 pd XbeePoll;
#X obj 67 175 list prepend;
#X msg 168 166 255 255 255 255 255 255 0;
#N canvas 924 409 751 300 bangs_from_here_there 0;
#X obj 96 54 delay 1;
#X obj 97 33 bng 15 250 50 0 empty empty empty 17 7 0 10 #fcfcfc #000000 #000000;
#X obj 101 79 t b b;
#X obj 198 5 r CRMuxXbee;
#X obj 286 4 r SetBaseYawZero;
#X obj 406 4 r SetBaseYawM025;
#X obj 526 3 r DefaultPosition;
#X obj 645 2 r command50001;
#X obj 177 64 bng 15 250 50 0 empty oneshot_bang Send\ Oneshot -5 -5 0 10 #00faff #000000 #000000;
#X obj 98 5 r stop_Ahae;
#X obj 225 65 r global_bang;
#X obj 331 66 bng 19 250 50 0 empty activity_ckeck_bang activity_ckeck_bang 0 -10 0 12 #fcfcfc #000000 #000000;
#X obj 172 155 outlet;
#X obj 221 100 delay 1;
#X connect 0 0 2 0;
#X connect 1 0 0 0;
#X connect 2 0 12 0;
#X connect 3 0 1 0;
#X connect 4 0 1 0;
#X connect 5 0 1 0;
#X connect 6 0 1 0;
#X connect 7 0 1 0;
#X connect 8 0 12 0;
#X connect 9 0 1 0;
#X connect 10 0 13 0;
#X connect 11 0 12 0;
#X connect 13 0 12 0;
#X restore 67 13 pd bangs_from_here_there;
#X connect 0 0 132 0;
#X connect 1 0 14 0;
#X connect 1 1 118 0;
#X connect 2 0 118 0;
#X connect 3 0 2 0;
#X connect 14 0 15 0;
#X connect 15 0 18 0;
#X connect 16 0 15 1;
#X connect 17 0 16 0;
#X connect 18 0 19 0;
#X connect 19 0 3 0;
#X connect 20 0 138 0;
#X connect 21 0 139 0;
#X connect 22 0 140 0;
#X connect 23 0 141 0;
#X connect 24 0 142 0;
#X connect 25 0 143 0;
#X connect 26 0 144 0;
#X connect 27 0 145 0;
#X connect 28 0 136 0;
#X connect 29 0 137 0;
#X connect 30 0 128 0;
#X connect 70 0 119 0;
#X connect 70 1 81 0;
#X connect 81 0 71 0;
#X connect 81 1 72 0;
#X connect 81 2 73 0;
#X connect 81 3 74 0;
#X connect 81 4 75 0;
#X connect 81 5 76 0;
#X connect 81 6 77 0;
#X connect 81 7 78 0;
#X connect 81 8 79 0;
#X connect 81 9 80 0;
#X connect 81 10 82 0;
#X connect 81 11 83 0;
#X connect 81 12 84 0;
#X connect 81 13 85 0;
#X connect 81 14 86 0;
#X connect 81 15 87 0;
#X connect 81 16 88 0;
#X connect 81 17 89 0;
#X connect 81 18 90 0;
#X connect 81 19 91 0;
#X connect 81 20 92 0;
#X connect 81 21 93 0;
#X connect 81 22 94 0;
#X connect 81 23 95 0;
#X connect 81 24 96 0;
#X connect 81 25 97 0;
#X connect 81 26 98 0;
#X connect 81 27 99 0;
#X connect 81 28 100 0;
#X connect 81 29 101 0;
#X connect 81 30 102 0;
#X connect 81 31 103 0;
#X connect 81 32 104 0;
#X connect 81 33 105 0;
#X connect 81 34 106 0;
#X connect 81 35 107 0;
#X connect 81 36 108 0;
#X connect 81 37 109 0;
#X connect 81 38 110 0;
#X connect 81 39 111 0;
#X connect 81 40 112 0;
#X connect 81 41 113 0;
#X connect 81 42 114 0;
#X connect 81 43 115 0;
#X connect 81 44 116 0;
#X connect 81 45 117 0;
#X connect 118 0 70 0;
#X connect 119 0 4 0;
#X connect 119 1 5 0;
#X connect 119 2 6 0;
#X connect 119 3 7 0;
#X connect 119 4 8 0;
#X connect 119 5 9 0;
#X connect 119 6 10 0;
#X connect 119 7 11 0;
#X connect 119 8 12 0;
#X connect 119 9 13 0;
#X connect 119 10 34 0;
#X connect 119 11 35 0;
#X connect 119 12 36 0;
#X connect 119 13 37 0;
#X connect 119 14 38 0;
#X connect 119 15 39 0;
#X connect 119 16 40 0;
#X connect 119 17 41 0;
#X connect 119 18 42 0;
#X connect 119 19 43 0;
#X connect 119 20 44 0;
#X connect 119 21 45 0;
#X connect 119 22 46 0;
#X connect 119 23 47 0;
#X connect 119 24 48 0;
#X connect 119 25 49 0;
#X connect 119 26 50 0;
#X connect 119 27 51 0;
#X connect 119 28 52 0;
#X connect 119 29 53 0;
#X connect 119 30 54 0;
#X connect 119 31 55 0;
#X connect 119 32 56 0;
#X connect 119 33 57 0;
#X connect 119 34 58 0;
#X connect 119 35 59 0;
#X connect 119 36 60 0;
#X connect 119 37 61 0;
#X connect 119 38 62 0;
#X connect 119 39 63 0;
#X connect 119 40 64 0;
#X connect 119 41 65 0;
#X connect 119 42 66 0;
#X connect 119 43 67 0;
#X connect 119 44 68 0;
#X connect 119 45 69 0;
#X connect 120 0 132 0;
#X connect 121 0 132 0;
#X connect 122 0 132 0;
#X connect 123 0 120 0;
#X connect 123 0 121 0;
#X connect 123 0 122 0;
#X connect 123 0 150 0;
#X connect 124 0 132 0;
#X connect 125 0 135 0;
#X connect 126 0 133 0;
#X connect 127 0 134 0;
#X connect 128 0 146 0;
#X connect 128 0 149 0;
#X connect 129 0 132 0;
#X connect 130 0 132 0;
#X connect 131 0 132 0;
#X connect 132 0 1 0;
#X connect 133 0 128 1;
#X connect 133 1 128 2;
#X connect 134 0 128 3;
#X connect 134 1 128 4;
#X connect 135 0 128 5;
#X connect 135 1 128 6;
#X connect 136 0 128 7;
#X connect 136 1 128 8;
#X connect 137 0 128 9;
#X connect 137 1 128 10;
#X connect 138 0 128 11;
#X connect 138 1 128 12;
#X connect 139 0 128 13;
#X connect 139 1 128 14;
#X connect 140 0 128 15;
#X connect 140 1 128 16;
#X connect 141 0 128 17;
#X connect 141 1 128 18;
#X connect 142 0 128 19;
#X connect 142 1 128 20;
#X connect 143 0 128 21;
#X connect 143 1 128 22;
#X connect 144 0 128 23;
#X connect 144 1 128 24;
#X connect 145 0 128 25;
#X connect 145 1 128 26;
#X connect 146 0 147 0;
#X connect 149 0 132 0;
#X connect 150 0 149 1;
#X connect 151 0 30 0;
