#N canvas 359 164 540 679 12;
#X floatatom 119 155 0 0 254 2 ctl1 l-1-#3 -;
#X floatatom 183 129 8 0 254 2 ctl2 l-2-#3 -;
#X floatatom 248 153 0 0 254 2 ctl3 l-3-#3 -;
#X floatatom 318 131 8 0 254 2 ctl4 l-4-#3 -;
#X obj 24 234 inlet;
#X text 645 6 Argument 1: DMX address(1~255) 2: n_chnnels 3: control_bus
4:output_bus, f 80;
#X obj 184 491 list-compare;
#X obj 238 475 list;
#X obj 184 515 == 0;
#X obj 78 482 spigot;
#X obj 116 459 tgl 15 0 empty empty empty 17 7 0 10 -262144 -1 -1 0
1;
#X obj 203 445 t l l l b;
#X obj 88 508 bng 15 250 50 0 empty empty empty 17 7 0 10 -262144 -1
-1;
#X text 293 473 output only when changed;
#X obj 19 555 outlet;
#X obj 78 538 s RGBW-OUT-\$4;
#X text 99 580 6 bytes;
#X obj 13 46 r light_clock;
#X obj 19 320 pack \$1 \$2 f f f f 0 0 0 0 0 0 0 0 0 0 0 0 0, f 69
;
#X text 456 345 19bytes;
#X obj 120 181 * 253;
#X obj 120 210 int;
#X obj 184 181 * 253;
#X obj 184 207 int;
#X obj 247 179 * 253;
#X obj 247 205 int;
#X obj 317 178 * 253;
#X obj 317 204 int;
#X connect 0 0 20 0;
#X connect 1 0 22 0;
#X connect 2 0 24 0;
#X connect 3 0 26 0;
#X connect 4 0 18 0;
#X connect 6 0 8 0;
#X connect 7 0 6 1;
#X connect 8 0 10 0;
#X connect 9 0 12 0;
#X connect 9 0 14 0;
#X connect 9 0 15 0;
#X connect 10 0 9 1;
#X connect 11 0 9 0;
#X connect 11 1 6 0;
#X connect 11 2 7 1;
#X connect 11 3 7 0;
#X connect 17 0 18 0;
#X connect 18 0 11 0;
#X connect 20 0 21 0;
#X connect 21 0 18 2;
#X connect 22 0 23 0;
#X connect 23 0 18 3;
#X connect 24 0 25 0;
#X connect 25 0 18 4;
#X connect 26 0 27 0;
#X connect 27 0 18 5;
