#N canvas 0 0 570 806 12;
#X declare -lib Gem;
#X obj 34 190 Pos 1;
#X floatatom 267 191 5 0 0 0 - 1-positionX - 0;
#X floatatom 311 191 5 0 0 0 - 1-positionY - 0;
#X obj 34 235 Pos 2;
#X text 71 148 Position;
#X text 61 170 X;
#X text 129 170 Y;
#X text 18 195 1;
#X text 19 238 2;
#X text 18 287 3;
#X text 16 326 4;
#X text 20 373 5;
#X text 18 418 6;
#X text 16 464 7;
#X text 18 507 8;
#X text 16 555 9;
#X text 12 595 10;
#X text 11 643 11;
#X text 11 686 12;
#X text 10 733 13;
#X obj 34 280 Pos 3;
#X obj 34 325 Pos 4;
#X obj 34 370 Pos 5;
#X obj 34 415 Pos 6;
#X obj 34 460 Pos 7;
#X obj 37 504 Pos 8;
#X obj 37 548 Pos 9;
#X obj 37 592 Pos 10;
#X obj 37 636 Pos 11;
#X obj 37 680 Pos 12;
#X obj 37 724 Pos 13;
#X floatatom 267 236 5 0 0 0 - 2-positionX - 0;
#X floatatom 311 236 5 0 0 0 - 2-positionY - 0;
#X floatatom 267 281 5 0 0 0 - 3-positionX - 0;
#X floatatom 311 281 5 0 0 0 - 3-positionY - 0;
#X floatatom 267 326 5 0 0 0 - 4-positionX - 0;
#X floatatom 311 326 5 0 0 0 - 4-positionY - 0;
#X floatatom 267 371 5 0 0 0 - 5-positionX - 0;
#X floatatom 311 371 5 0 0 0 - 5-positionY - 0;
#X floatatom 267 416 5 0 0 0 - 6-positionX - 0;
#X floatatom 311 416 5 0 0 0 - 6-positionY - 0;
#X floatatom 267 461 5 0 0 0 - 7-positionX - 0;
#X floatatom 311 461 5 0 0 0 - 7-positionY - 0;
#X floatatom 267 506 5 0 0 0 - 8-positionX - 0;
#X floatatom 311 506 5 0 0 0 - 8-positionY - 0;
#X floatatom 267 551 5 0 0 0 - 9-positionX - 0;
#X floatatom 311 551 5 0 0 0 - 9-positionY - 0;
#X floatatom 267 596 5 0 0 0 - 10-positionX - 0;
#X floatatom 311 596 5 0 0 0 - 10-positionY - 0;
#X floatatom 267 641 5 0 0 0 - 11-positionX - 0;
#X floatatom 311 641 5 0 0 0 - 11-positionY - 0;
#X floatatom 267 683 5 0 0 0 - 12-positionX - 0;
#X floatatom 311 683 5 0 0 0 - 12-positionY - 0;
#X floatatom 267 728 5 0 0 0 - 13-positionX - 0;
#X floatatom 311 728 5 0 0 0 - 13-positionY - 0;
#X floatatom 357 190 5 0 0 0 - 1-heading - 0;
#X text 187 163 heading;
#X obj 21 5 PresetManager Position;
#X text 346 7 GEM object;
#X obj 352 36 cnv 15 100 60 empty empty empty 20 12 0 14 #bcbcbc #404040
0;
#N canvas 601 466 450 300 gemwin 0;
#X obj 132 136 gemwin;
#X obj 67 89 outlet;
#X obj 67 10 inlet;
#X obj 67 41 route create;
#X msg 67 70 set destroy;
#X msg 142 68 set create;
#X msg 132 112 create \, 1;
#X msg 198 112 destroy;
#X msg 286 106 color 1 1 1;
#X obj 286 78 loadbang;
#X msg 289 134 dimen 512 512;
#X connect 2 0 3 0;
#X connect 3 0 4 0;
#X connect 3 0 6 0;
#X connect 3 1 5 0;
#X connect 3 1 7 0;
#X connect 4 0 1 0;
#X connect 5 0 1 0;
#X connect 6 0 0 0;
#X connect 7 0 0 0;
#X connect 8 0 0 0;
#X connect 9 0 8 0;
#X connect 9 0 10 0;
#X connect 10 0 0 0;
#X restore 357 75 pd gemwin;
#X msg 357 56 create;
#X text 353 35 Create window:;
#X obj 422 7 declare -lib Gem;
#X obj 498 101 ahae_plotter 1;
#X obj 497 131 ahae_plotter 2;
#X obj 498 159 ahae_plotter 3;
#X obj 497 189 ahae_plotter 4;
#X obj 614 100 ahae_plotter 5;
#X obj 613 130 ahae_plotter 6;
#X obj 613 158 ahae_plotter 7;
#X obj 613 188 ahae_plotter 8;
#X obj 728 100 ahae_plotter 9;
#X obj 727 130 ahae_plotter 10;
#X obj 727 158 ahae_plotter 11;
#X obj 727 188 ahae_plotter 12;
#X obj 845 101 ahae_plotter 13;
#X floatatom 41 94 5 0 0 2 Position\ Number - num_preset_pos 0;
#X connect 60 0 61 0;
#X connect 61 0 60 0;
