#N canvas 370 250 708 378 12;
#X floatatom 112 140 5 0 0 0 - - \$1-positionX 0;
#X floatatom 190 141 5 0 0 0 - - \$1-positionY 0;
#X floatatom 256 140 5 0 0 0 - - \$1-heading 0;
#X obj 300 251 \$0;
#X obj 297 223 bng 15 250 50 0 empty empty empty 17 7 0 10 #fcfcfc
#000000 #000000;
#X floatatom 300 282 5 0 0 0 - - - 0;
#X obj 300 189 loadbang;
#X text 20 58 nbx_pre Position \$0 101;
#X text 195 60 nbx_pre Position \$0 102;
#X text 364 59 nbx_pre Position \$0 103;
#X obj 109 106 nbx_pre Position \$0 101;
#X obj 188 107 nbx_pre Position \$0 102;
#X obj 255 105 nbx_pre Position \$0 103;
#X connect 3 0 5 0;
#X connect 4 0 3 0;
#X connect 6 0 4 0;
#X connect 10 0 0 0;
#X connect 11 0 1 0;
#X connect 12 0 2 0;
#X coords 0 -1 1 1 220 30 2 100 100;
