#N canvas 474 389 1222 485 12;
#X obj 106 139 f;
#X obj 175 139 f;
#X obj 237 139 f;
#X obj 301 138 f;
#X obj 384 137 f;
#X obj 448 135 f;
#X obj 512 139 f;
#X obj 574 140 f;
#X obj 652 138 f;
#X obj 719 138 f;
#X obj 779 137 f;
#X obj 841 136 f;
#X obj 927 138 f;
#X obj 991 136 f;
#X obj 1048 130 f;
#X obj 1111 135 f;
#X obj 142 34 bng 19 250 50 0 empty beat1 empty 0 -10 0 12 #00ff04
#000000 #000000;
#X obj 168 34 bng 19 250 50 0 empty beat2 empty 0 -10 0 12 #fcfcfc
#000000 #000000;
#X obj 194 34 bng 19 250 50 0 empty beat3 empty 0 -10 0 12 #fcfcfc
#000000 #000000;
#X obj 220 34 bng 19 250 50 0 empty beat4 empty 0 -10 0 12 #fcfcfc
#000000 #000000;
#X obj 421 38 bng 19 250 50 0 empty beat5 empty 0 -10 0 12 #00ff04
#000000 #000000;
#X obj 447 38 bng 19 250 50 0 empty beat6 empty 0 -10 0 12 #fcfcfc
#000000 #000000;
#X obj 472 38 bng 19 250 50 0 empty beat7 empty 0 -10 0 12 #fcfcfc
#000000 #000000;
#X obj 499 38 bng 19 250 50 0 empty beat8 empty 0 -10 0 12 #fcfcfc
#000000 #000000;
#X obj 671 42 bng 19 250 50 0 empty beat9 empty 0 -10 0 12 #00ff04
#000000 #000000;
#X obj 697 42 bng 19 250 50 0 empty beat10 empty 0 -10 0 12 #fcfcfc
#000000 #000000;
#X obj 723 42 bng 19 250 50 0 empty beat11 empty 0 -10 0 12 #fcfcfc
#000000 #000000;
#X obj 749 42 bng 19 250 50 0 empty beat12 empty 0 -10 0 12 #fcfcfc
#000000 #000000;
#X obj 870 39 bng 19 250 50 0 empty beat13 empty 0 -10 0 12 #00ff04
#000000 #000000;
#X obj 896 39 bng 19 250 50 0 empty beat14 empty 0 -10 0 12 #fcfcfc
#000000 #000000;
#X obj 922 39 bng 19 250 50 0 empty beat15 empty 0 -10 0 12 #fcfcfc
#000000 #000000;
#X obj 948 39 bng 19 250 50 0 empty beat16 empty 0 -10 0 12 #fcfcfc
#000000 #000000;
#X floatatom 382 224 5 0 0 0 - - - 0;
#X obj 123 107 nbx_pre Ahae \$0 1;
#X text 118 75 nbx_pre Ahae \$0 1;
#X obj 192 107 nbx_pre Ahae \$0 2;
#X obj 256 107 nbx_pre Ahae \$0 3;
#X obj 318 107 nbx_pre Ahae \$0 4;
#X obj 403 107 nbx_pre Ahae \$0 5;
#X obj 465 107 nbx_pre Ahae \$0 6;
#X obj 530 107 nbx_pre Ahae \$0 7;
#X obj 592 107 nbx_pre Ahae \$0 8;
#X obj 670 107 nbx_pre Ahae \$0 9;
#X obj 733 107 nbx_pre Ahae \$0 10;
#X obj 796 107 nbx_pre Ahae \$0 11;
#X obj 861 107 nbx_pre Ahae \$0 12;
#X obj 940 107 nbx_pre Ahae \$0 13;
#X obj 1002 107 nbx_pre Ahae \$0 14;
#X obj 1065 107 nbx_pre Ahae \$0 15;
#X obj 1128 107 nbx_pre Ahae \$0 16;
#X obj 38 125 loadbang;
#X obj 38 150 \$0;
#X floatatom 38 175 5 0 0 0 - - - 0;
#X obj 383 263 spigot;
#X floatatom 383 287 5 0 0 0 - - \$1-preset 0;
#X obj 102 108 tgl 15 0 empty enable_ahae_all empty 17 7 0 10 #fcfcfc
#000000 #000000 0 1;
#X obj 984 55 bng 15 250 50 0 Stop_All_Ahae empty empty 17 7 0 10 #fcfcfc
#000000 #000000;
#X connect 0 0 32 0;
#X connect 1 0 32 0;
#X connect 2 0 32 0;
#X connect 3 0 32 0;
#X connect 4 0 32 0;
#X connect 5 0 32 0;
#X connect 6 0 32 0;
#X connect 7 0 32 0;
#X connect 8 0 32 0;
#X connect 9 0 32 0;
#X connect 10 0 32 0;
#X connect 11 0 32 0;
#X connect 12 0 32 0;
#X connect 13 0 32 0;
#X connect 14 0 32 0;
#X connect 15 0 32 0;
#X connect 16 0 0 0;
#X connect 17 0 1 0;
#X connect 18 0 2 0;
#X connect 19 0 3 0;
#X connect 20 0 4 0;
#X connect 21 0 5 0;
#X connect 22 0 6 0;
#X connect 23 0 7 0;
#X connect 24 0 8 0;
#X connect 25 0 9 0;
#X connect 26 0 10 0;
#X connect 27 0 11 0;
#X connect 28 0 12 0;
#X connect 29 0 13 0;
#X connect 30 0 14 0;
#X connect 31 0 15 0;
#X connect 31 0 56 0;
#X connect 32 0 53 0;
#X connect 33 0 0 1;
#X connect 35 0 1 1;
#X connect 36 0 2 1;
#X connect 37 0 3 1;
#X connect 38 0 4 1;
#X connect 39 0 5 1;
#X connect 40 0 6 1;
#X connect 41 0 7 1;
#X connect 42 0 8 1;
#X connect 43 0 9 1;
#X connect 44 0 10 1;
#X connect 45 0 11 1;
#X connect 46 0 12 1;
#X connect 47 0 13 1;
#X connect 48 0 14 1;
#X connect 49 0 15 1;
#X connect 50 0 51 0;
#X connect 51 0 52 0;
#X connect 53 0 54 0;
#X connect 55 0 53 1;
#X coords 0 -1 1 1 1100 30 2 100 100;
