#N canvas 347 102 898 673 12;
#X obj 12 83 vsl 15 128 0 255 0 0 empty empty empty 0 -9 0 10 -262144
-1 -1 7200 1;
#X floatatom 66 14 5 0 0 2 f-#1-#2-#3 f-#1-#2-#3 -;
#X floatatom 54 218 5 0 0 3 l-#2-#1 - l-#2-#1;
#X text 199 24 Argument 1: input control bus 2: output control bus
3: channel;
#X obj 168 196 int;
#X obj 168 173 line;
#X obj 169 150 pack f f;
#X floatatom 81 92 5 0 0 2 lt-#1-#2-#3 lt-#1-#2-#3 -;
#X obj 498 534 f;
#X obj 498 76 r \$1-save_preset;
#N canvas 14 122 778 549 RECALL_PRESETS 0;
#X obj 59 348 outlet;
#X obj 59 273 route list;
#X obj 59 204 route list;
#X obj 59 158 list prepend symbol;
#X obj 330 10 r \$1-PRECALL;
#X obj 362 366 outlet;
#X text 563 240 reads Interpolation Time;
#X text 160 198 reads preset value;
#X obj 362 262 route list;
#X obj 362 193 route list;
#X obj 362 154 list prepend symbol;
#X obj 362 132 makefilename \$1-INT.TIME;
#X obj 362 285 route \$1-INT.TIME;
#X obj 223 156 cnv 15 15 15 empty empty CHANGE.GUI 18 7 0 8 -257985
-66577 0;
#X obj 173 315 cnv 15 15 15 empty empty CHANGE.GUI 18 7 0 8 -257985
-66577 0;
#X text 456 47 \$1 is name of "PresetManager" on control;
#X obj 59 136 makefilename \$1/\$2/\$3-vsl;
#X obj 59 296 route \$1/\$2/\$3-vsl;
#X obj 362 216 text search \$1-loaded-preset;
#X obj 362 239 text get \$1-loaded-preset;
#X obj 59 227 text search \$1-loaded-preset;
#X obj 59 250 text get \$1-loaded-preset;
#X obj 330 37 t b b;
#X connect 1 0 17 0;
#X connect 2 0 20 0;
#X connect 3 0 2 0;
#X connect 4 0 22 0;
#X connect 8 0 12 0;
#X connect 9 0 18 0;
#X connect 10 0 9 0;
#X connect 11 0 10 0;
#X connect 12 0 5 0;
#X connect 16 0 3 0;
#X connect 17 0 0 0;
#X connect 18 0 19 0;
#X connect 19 0 8 0;
#X connect 20 0 21 0;
#X connect 21 0 1 0;
#X connect 22 0 16 0;
#X connect 22 1 11 0;
#X restore 721 68 pd RECALL_PRESETS;
#X obj 721 213 line;
#X obj 721 149 pack f f;
#N canvas 359 456 395 333 RECORD_PRESETS 0;
#X obj 30 20 inlet;
#X msg 87 132 1e+15;
#X obj 30 60 list prepend \$1/\$2/\$3-vsl;
#X obj 30 176 text set \$1-loaded-preset;
#X obj 30 92 t l b;
#X connect 0 0 2 0;
#X connect 1 0 3 1;
#X connect 2 0 4 0;
#X connect 4 0 3 0;
#X connect 4 1 1 0;
#X restore 498 595 pd RECORD_PRESETS;
#X obj 300 132 pack f 0;
#X obj 300 79 inlet;
#X obj 721 107 t a b b;
#X obj 821 134 t b b;
#X obj 821 156 i;
#X obj 821 178 pack f 0;
#X obj 721 236 spigot 1;
#X obj 778 181 1;
#X obj 582 274 list prepend set;
#X obj 582 299 route list;
#X obj 697 521 t a a;
#X obj 721 593 outlet;
#X obj 774 541 change;
#X obj 774 566 bang;
#X obj 774 591 0;
#X text 816 579 when mouse moves GUI \, it stops line, f 19;
#X obj 498 105 t b b;
#X text 786 227 switches between preset and RT GUI change, f 17;
#X text 303 493 \$1 PresetManager Link \$2 Module (name of the instrument)
\$3 parameter-(GUI)type, f 23;
#X text 850 64 "search" for GUI value and INT.TIME of Preset, f 18
;
#X text 886 137 records the RT change for line to interpolate from
that new value on next preset, f 23;
#X text 301 162 change from outside;
#X obj 945 387 cnv 10 25 10 empty \$0-label empty 3 5 0 8 -1 -4032
0;
#X obj 940 324 loadbang;
#X obj 940 402 s \$0-label;
#X obj 922 321 bng 15 250 50 0 empty empty empty 17 7 0 10 -262144
-1 -1;
#X msg 940 364 label \$1;
#X obj 940 345 symbol \$3;
#X text 327 111 receive values remotely;
#X obj 530 319 t a;
#X obj 530 490 t a;
#X obj 60 78 vsl 15 128 0 255 0 0 empty empty empty 0 -9 0 10 -228856
-1 -1 6100 1;
#X obj 357 79 r \$1/\$2/\$3-vsl;
#X obj 411 99 cnv 15 15 15 empty empty CHANGE.GUI 18 7 0 8 -257985
-66577 0;
#X obj 776 88 cnv 15 15 15 empty empty CHANGE.GUI 18 7 0 8 -257985
-66577 0;
#X obj 505 578 cnv 15 15 15 empty empty CHANGE.GUI 18 7 0 8 -257985
-66577 0;
#X connect 0 0 6 0;
#X connect 1 0 0 0;
#X connect 4 0 2 0;
#X connect 5 0 4 0;
#X connect 6 0 5 0;
#X connect 7 0 6 1;
#X connect 8 0 13 0;
#X connect 9 0 30 0;
#X connect 10 0 16 0;
#X connect 10 1 12 1;
#X connect 11 0 20 0;
#X connect 12 0 11 0;
#X connect 14 0 11 0;
#X connect 15 0 14 0;
#X connect 16 0 12 0;
#X connect 16 1 21 0;
#X connect 16 2 17 0;
#X connect 17 0 18 0;
#X connect 17 1 43 0;
#X connect 18 0 19 0;
#X connect 19 0 11 0;
#X connect 20 0 22 0;
#X connect 20 0 25 0;
#X connect 21 0 20 1;
#X connect 22 0 23 0;
#X connect 23 0 43 0;
#X connect 24 0 25 0;
#X connect 24 1 26 0;
#X connect 24 1 18 1;
#X connect 26 0 27 0;
#X connect 27 0 28 0;
#X connect 28 0 20 1;
#X connect 30 0 8 0;
#X connect 30 1 43 0;
#X connect 37 0 41 0;
#X connect 39 0 41 0;
#X connect 40 0 38 0;
#X connect 41 0 40 0;
#X connect 43 0 45 0;
#X connect 44 0 8 1;
#X connect 44 0 24 0;
#X connect 45 0 44 0;
#X connect 45 0 0 0;
#X connect 46 0 14 0;
#X coords 0 -1 1 1 110 200 1 50 50;
