#N struct g3 float x float y float q;
#N struct g2 float x float y float q;
#N struct g1 float x float y float q;
#N canvas 952 534 434 268 12;
#N canvas 0 604 451 221 DMX 1;
#X obj 20 70 metro 100;
#X obj 20 49 tgl 15 0 empty empty empty 17 7 0 10 -262144 -1 -1 0 1
;
#X obj 20 95 s clock;
#X text 161 148 3 Control Lights;
#X text 161 182 4 Make a Scene with Relevant Lights;
#N canvas 230 24 1210 804 Mixer01 0;
#X text 21 14 L1;
#X text 766 16 L2;
#X text 19 228 L3;
#X text 765 226 L4;
#X text 21 445 L5;
#X text 766 441 L6;
#X text 19 660 L7;
#X text 764 657 L8;
#X obj 56 18 F 1 1 1;
#X obj 178 18 F 1 2 1;
#X obj 303 18 F 1 3 1;
#X obj 423 17 F 1 4 1;
#X obj 833 17 F 2 1 1;
#X obj 955 17 F 2 2 1;
#X obj 1080 17 F 2 3 1;
#X obj 1200 16 F 2 4 1;
#X obj 55 241 F 3 1 1;
#X obj 177 241 F 3 2 1;
#X obj 302 241 F 3 3 1;
#X obj 422 240 F 3 4 1;
#X obj 832 240 F 4 1 1;
#X obj 954 240 F 4 2 1;
#X obj 1079 240 F 4 3 1;
#X obj 1199 239 F 4 4 1;
#X obj 53 456 F 5 1 1;
#X obj 175 456 F 5 2 1;
#X obj 300 456 F 5 3 1;
#X obj 420 455 F 5 4 1;
#X obj 830 455 F 6 1 1;
#X obj 952 455 F 6 2 1;
#X obj 1077 455 F 6 3 1;
#X obj 1197 454 F 6 4 1;
#X obj 52 666 F 7 1 1;
#X obj 174 666 F 7 2 1;
#X obj 299 666 F 7 3 1;
#X obj 419 665 F 7 4 1;
#X obj 829 665 F 8 1 1;
#X obj 951 665 F 8 2 1;
#X obj 1076 665 F 8 3 1;
#X obj 1196 664 F 8 4 1;
#X text 25 868 L9;
#X obj 49 874 F 9 1 1;
#X obj 171 874 F 9 2 1;
#X obj 296 874 F 9 3 1;
#X obj 416 873 F 9 4 1;
#X restore 16 143 pd Mixer01;
#N canvas 0 208 1440 805 Control_Messages 0;
#X msg 36 90 \; lt-1-1-1 0 \; f-1-1-1 0 \; lt-1-2-1 0 \; f-1-2-1 0
\; lt-1-3-1 0 \; f-1-3-1 0 \; lt-1-4-1 0 \; f-1-4-1 0 \;;
#X text 58 66 L1;
#X text 155 68 L2;
#X text 261 66 L3;
#X text 358 68 L4;
#X text 465 67 L5;
#X text 562 69 L6;
#X text 668 67 L7;
#X text 765 69 L8;
#X msg 138 91 \; lt-2-1-1 0 \; f-2-1-1 0 \; lt-2-2-1 0 \; f-2-2-1 0
\; lt-2-3-1 0 \; f-2-3-1 0 \; lt-2-4-1 0 \; f-2-4-1 0 \;;
#X msg 239 90 \; lt-3-1-1 0 \; f-3-1-1 0 \; lt-3-2-1 0 \; f-3-2-1 0
\; lt-3-3-1 0 \; f-3-3-1 0 \; lt-3-4-1 0 \; f-3-4-1 0 \;;
#X msg 341 91 \; lt-4-1-1 0 \; f-4-1-1 0 \; lt-4-2-1 0 \; f-4-2-1 0
\; lt-4-3-1 0 \; f-4-3-1 0 \; lt-4-4-1 0 \; f-4-4-1 0 \;;
#X msg 443 91 \; lt-5-1-1 0 \; f-5-1-1 0 \; lt-5-2-1 0 \; f-5-2-1 0
\; lt-5-3-1 0 \; f-5-3-1 0 \; lt-5-4-1 0 \; f-5-4-1 0 \;;
#X msg 545 92 \; lt-6-1-1 0 \; f-6-1-1 0 \; lt-6-2-1 0 \; f-6-2-1 0
\; lt-6-3-1 0 \; f-6-3-1 0 \; lt-6-4-1 0 \; f-6-4-1 0 \;;
#X msg 646 91 \; lt-7-1-1 0 \; f-7-1-1 0 \; lt-7-2-1 0 \; f-7-2-1 0
\; lt-7-3-1 0 \; f-7-3-1 0 \; lt-7-4-1 0 \; f-7-4-1 0 \;;
#X msg 748 92 \; lt-8-1-1 0 \; f-8-1-1 0 \; lt-8-2-1 0 \; f-8-2-1 0
\; lt-8-3-1 0 \; f-8-3-1 0 \; lt-8-4-1 0 \; f-8-4-1 0 \;;
#X text 0 50 Turn off;
#X floatatom 1168 45 5 0 0 2 Transition_Interval Transition_Interval
-;
#X msg 1169 65 \; lt-1-1-1 \$1 \; lt-1-2-1 \$1 \; lt-1-3-1 \$1 \; lt-1-4-1
\$1 \; lt-2-1-1 \$1 \; lt-2-2-1 \$1 \; lt-2-3-1 \$1 \; lt-2-4-1 \$1
\; lt-3-1-1 \$1 \; lt-3-2-1 \$1 \; lt-3-3-1 \$1 \; lt-3-4-1 \$1 \;
lt-4-1-1 \$1 \; lt-4-2-1 \$1 \; lt-4-3-1 \$1 \; lt-4-4-1 \$1 \;;
#X msg 1271 66 \; lt-5-1-1 \$1 \; lt-5-2-1 \$1 \; lt-5-3-1 \$1 \; lt-5-4-1
\$1 \; lt-6-1-1 \$1 \; lt-6-2-1 \$1 \; lt-6-3-1 \$1 \; lt-6-4-1 \$1
\; lt-7-1-1 \$1 \; lt-7-2-1 \$1 \; lt-7-3-1 \$1 \; lt-7-4-1 \$1 \;
lt-8-1-1 \$1 \; lt-8-2-1 \$1 \; lt-8-3-1 \$1 \; lt-8-4-1 \$1 \;;
#X text 75 290 L1;
#X text 172 292 L2;
#X text 278 290 L3;
#X text 375 292 L4;
#X text 482 291 L5;
#X text 579 293 L6;
#X text 685 291 L7;
#X text 782 293 L8;
#X msg 53 314 \; f-1-1-1 0 \; f-1-2-1 0 \; f-1-3-1 0 \; f-1-4-1 0 \;
;
#X msg 155 315 \; f-2-1-1 0 \; f-2-2-1 0 \; f-2-3-1 0 \; f-2-4-1 0
\;;
#X msg 256 314 \; f-3-1-1 0 \; f-3-2-1 0 \; f-3-3-1 0 \; f-3-4-1 0
\;;
#X msg 358 315 \; f-4-1-1 0 \; f-4-2-1 0 \; f-4-3-1 0 \; f-4-4-1 0
\;;
#X msg 460 315 \; f-5-1-1 0 \; f-5-2-1 0 \; f-5-3-1 0 \; f-5-4-1 0
\;;
#X msg 562 316 \; f-6-1-1 0 \; f-6-2-1 0 \; f-6-3-1 0 \; f-6-4-1 0
\;;
#X msg 663 315 \; f-7-1-1 0 \; f-7-2-1 0 \; f-7-3-1 0 \; f-7-4-1 0
\;;
#X msg 765 316 \; f-8-1-1 0 \; f-8-2-1 0 \; f-8-3-1 0 \; f-8-4-1 0
\;;
#X obj 2 300 bng 15 250 50 0 empty empty empty 17 7 0 10 -262144 -1
-1;
#X obj 13 74 bng 15 250 50 0 empty empty empty 17 7 0 10 -262144 -1
-1;
#X text 5 399 set1;
#X msg 974 318 \; Transition_Interval 3000;
#X obj 16 295 t b b;
#X obj 15 277 bng 15 250 50 0 empty set0 set0 17 7 0 10 -262144 -1
-1;
#X msg 1124 45 0;
#X text 2 261 set0;
#X text 80 434 L1;
#X text 177 436 L2;
#X text 283 434 L3;
#X text 380 436 L4;
#X text 487 435 L5;
#X text 584 437 L6;
#X text 690 435 L7;
#X text 787 437 L8;
#X obj 7 444 bng 15 250 50 0 empty empty empty 17 7 0 10 -262144 -1
-1;
#X obj 21 439 t b b;
#X obj 20 421 bng 15 250 50 0 empty set1 set1 17 7 0 10 -262144 -1
-1;
#X text 878 295 L9;
#X text 883 439 L9;
#X msg 861 318 \; f-9-1-1 0 \; f-9-2-1 0 \; f-9-3-1 0 \; f-9-4-1 0
\;;
#X msg 847 93 \; lt-9-1-1 0 \; f-9-1-1 0 \; lt-9-2-1 0 \; f-9-2-1 0
\; lt-9-3-1 0 \; f-9-3-1 0 \; lt-9-4-1 0 \; f-9-4-1 0 \;;
#X text 864 70 L9;
#X text 84 609 L1;
#X text 181 611 L2;
#X text 287 609 L3;
#X text 384 611 L4;
#X text 491 610 L5;
#X text 588 612 L6;
#X text 694 610 L7;
#X text 791 612 L8;
#X msg 62 633 \; f-1-1-1 0 \; f-1-2-1 0 \; f-1-3-1 0 \; f-1-4-1 0 \;
;
#X msg 164 634 \; f-2-1-1 0 \; f-2-2-1 0 \; f-2-3-1 0 \; f-2-4-1 0
\;;
#X msg 367 634 \; f-4-1-1 0 \; f-4-2-1 0 \; f-4-3-1 0 \; f-4-4-1 0
\;;
#X msg 469 634 \; f-5-1-1 0 \; f-5-2-1 0 \; f-5-3-1 0 \; f-5-4-1 0
\;;
#X msg 571 635 \; f-6-1-1 0 \; f-6-2-1 0 \; f-6-3-1 0 \; f-6-4-1 0
\;;
#X msg 672 634 \; f-7-1-1 0 \; f-7-2-1 0 \; f-7-3-1 0 \; f-7-4-1 0
\;;
#X msg 774 635 \; f-8-1-1 0 \; f-8-2-1 0 \; f-8-3-1 0 \; f-8-4-1 0
\;;
#X obj 11 619 bng 15 250 50 0 empty empty empty 17 7 0 10 -262144 -1
-1;
#X obj 25 614 t b b;
#X obj 24 596 bng 15 250 50 0 empty set2 set2 17 7 0 10 -262144 -1
-1;
#X text 887 614 L9;
#X text 9 574 set2;
#X msg 870 637 \; f-9-1-1 0 \; f-9-2-1 0 \; f-9-3-1 0 \; f-9-4-1 0
\;;
#X msg 160 459 \; f-2-1-1 255 \; f-2-2-1 0 \; f-2-3-1 0 \; f-2-4-1
0 \;;
#X msg 261 458 \; f-3-1-1 78 \; f-3-2-1 0 \; f-3-3-1 0 \; f-3-4-1 0
\;;
#X msg 363 459 \; f-4-1-1 0 \; f-4-2-1 0 \; f-4-3-1 0 \; f-4-4-1 94
\;;
#X msg 465 459 \; f-5-1-1 192 \; f-5-2-1 184 \; f-5-3-1 70 \; f-5-4-1
0 \;;
#X msg 567 460 \; f-6-1-1 0 \; f-6-2-1 88 \; f-6-3-1 80 \; f-6-4-1
0 \;;
#X msg 668 459 \; f-7-1-1 0 \; f-7-2-1 0 \; f-7-3-1 0 \; f-7-4-1 34
\;;
#X msg 770 460 \; f-8-1-1 62 \; f-8-2-1 44 \; f-8-3-1 94 \; f-8-4-1
86 \;;
#X msg 866 462 \; f-9-1-1 184 \; f-9-2-1 88 \; f-9-3-1 172 \; f-9-4-1
0 \;;
#X text 87 774 L1;
#X text 184 776 L2;
#X text 290 774 L3;
#X text 387 776 L4;
#X text 494 775 L5;
#X text 591 777 L6;
#X text 697 775 L7;
#X text 794 777 L8;
#X msg 65 798 \; f-1-1-1 0 \; f-1-2-1 0 \; f-1-3-1 0 \; f-1-4-1 0 \;
;
#X msg 167 799 \; f-2-1-1 0 \; f-2-2-1 0 \; f-2-3-1 0 \; f-2-4-1 0
\;;
#X msg 370 799 \; f-4-1-1 0 \; f-4-2-1 0 \; f-4-3-1 0 \; f-4-4-1 0
\;;
#X msg 472 799 \; f-5-1-1 0 \; f-5-2-1 0 \; f-5-3-1 0 \; f-5-4-1 0
\;;
#X msg 574 800 \; f-6-1-1 0 \; f-6-2-1 0 \; f-6-3-1 0 \; f-6-4-1 0
\;;
#X msg 675 799 \; f-7-1-1 0 \; f-7-2-1 0 \; f-7-3-1 0 \; f-7-4-1 0
\;;
#X msg 777 800 \; f-8-1-1 0 \; f-8-2-1 0 \; f-8-3-1 0 \; f-8-4-1 0
\;;
#X obj 14 784 bng 15 250 50 0 empty empty empty 17 7 0 10 -262144 -1
-1;
#X obj 28 779 t b b;
#X obj 27 761 bng 15 250 50 0 empty set3 set3 17 7 0 10 -262144 -1
-1;
#X text 890 779 L9;
#X msg 268 798 \; f-3-1-1 0 \; f-3-2-1 0 \; f-3-3-1 0 \; f-3-4-1 0
\;;
#X text 12 739 set3;
#X msg 265 633 \; f-3-1-1 0 \; f-3-2-1 253 \; f-3-3-1 0 \; f-3-4-1
0 \;;
#X text 86 945 L1;
#X text 183 947 L2;
#X text 289 945 L3;
#X text 386 947 L4;
#X text 493 946 L5;
#X text 590 948 L6;
#X text 696 946 L7;
#X text 793 948 L8;
#X msg 64 969 \; f-1-1-1 0 \; f-1-2-1 0 \; f-1-3-1 0 \; f-1-4-1 0 \;
;
#X msg 166 970 \; f-2-1-1 0 \; f-2-2-1 0 \; f-2-3-1 0 \; f-2-4-1 0
\;;
#X msg 369 970 \; f-4-1-1 0 \; f-4-2-1 0 \; f-4-3-1 0 \; f-4-4-1 0
\;;
#X msg 471 970 \; f-5-1-1 0 \; f-5-2-1 0 \; f-5-3-1 0 \; f-5-4-1 0
\;;
#X msg 573 971 \; f-6-1-1 0 \; f-6-2-1 0 \; f-6-3-1 0 \; f-6-4-1 0
\;;
#X msg 674 970 \; f-7-1-1 0 \; f-7-2-1 0 \; f-7-3-1 0 \; f-7-4-1 0
\;;
#X msg 776 971 \; f-8-1-1 0 \; f-8-2-1 0 \; f-8-3-1 0 \; f-8-4-1 0
\;;
#X obj 13 955 bng 15 250 50 0 empty empty empty 17 7 0 10 -262144 -1
-1;
#X obj 27 950 t b b;
#X obj 26 932 bng 15 250 50 0 empty set4 set4 17 7 0 10 -262144 -1
-1;
#X text 889 950 L9;
#X text 11 910 set4;
#X msg 873 802 \; f-9-1-1 0 \; f-9-2-1 253 \; f-9-3-1 0 \; f-9-4-1
0 \;;
#X text 87 1098 L1;
#X text 184 1100 L2;
#X text 290 1098 L3;
#X text 387 1100 L4;
#X text 494 1099 L5;
#X text 591 1101 L6;
#X text 697 1099 L7;
#X text 794 1101 L8;
#X msg 65 1122 \; f-1-1-1 0 \; f-1-2-1 0 \; f-1-3-1 0 \; f-1-4-1 0
\;;
#X msg 370 1123 \; f-4-1-1 0 \; f-4-2-1 0 \; f-4-3-1 0 \; f-4-4-1 0
\;;
#X msg 472 1123 \; f-5-1-1 0 \; f-5-2-1 0 \; f-5-3-1 0 \; f-5-4-1 0
\;;
#X msg 574 1124 \; f-6-1-1 0 \; f-6-2-1 0 \; f-6-3-1 0 \; f-6-4-1 0
\;;
#X msg 675 1123 \; f-7-1-1 0 \; f-7-2-1 0 \; f-7-3-1 0 \; f-7-4-1 0
\;;
#X msg 777 1124 \; f-8-1-1 0 \; f-8-2-1 0 \; f-8-3-1 0 \; f-8-4-1 0
\;;
#X obj 14 1108 bng 15 250 50 0 empty empty empty 17 7 0 10 -262144
-1 -1;
#X obj 28 1103 t b b;
#X obj 27 1085 bng 15 250 50 0 empty set5 set5 17 7 0 10 -262144 -1
-1;
#X text 890 1103 L9;
#X msg 267 969 \; f-3-1-1 0 \; f-3-2-1 253 \; f-3-3-1 0 \; f-3-4-1
0 \;;
#X msg 872 973 \; f-9-1-1 0 \; f-9-2-1 253 \; f-9-3-1 0 \; f-9-4-1
0 \;;
#X msg 985 973 \; Transition_Interval 10000;
#X text 12 1063 set5;
#X text 93 1258 L1;
#X text 190 1260 L2;
#X text 296 1258 L3;
#X text 393 1260 L4;
#X text 500 1259 L5;
#X text 597 1261 L6;
#X text 703 1259 L7;
#X text 800 1261 L8;
#X msg 173 1283 \; f-2-1-1 0 \; f-2-2-1 0 \; f-2-3-1 0 \; f-2-4-1 0
\;;
#X msg 376 1283 \; f-4-1-1 0 \; f-4-2-1 0 \; f-4-3-1 0 \; f-4-4-1 0
\;;
#X msg 478 1283 \; f-5-1-1 0 \; f-5-2-1 0 \; f-5-3-1 0 \; f-5-4-1 0
\;;
#X msg 580 1284 \; f-6-1-1 0 \; f-6-2-1 0 \; f-6-3-1 0 \; f-6-4-1 0
\;;
#X msg 681 1283 \; f-7-1-1 0 \; f-7-2-1 0 \; f-7-3-1 0 \; f-7-4-1 0
\;;
#X msg 783 1284 \; f-8-1-1 0 \; f-8-2-1 0 \; f-8-3-1 0 \; f-8-4-1 0
\;;
#X obj 20 1268 bng 15 250 50 0 empty empty empty 17 7 0 10 -262144
-1 -1;
#X obj 34 1263 t b b;
#X obj 33 1245 bng 15 250 50 0 empty set6 set6 17 7 0 10 -262144 -1
-1;
#X text 896 1263 L9;
#X msg 879 1286 \; f-9-1-1 0 \; f-9-2-1 0 \; f-9-3-1 0 \; f-9-4-1 0
\;;
#X msg 274 1282 \; f-3-1-1 0 \; f-3-2-1 0 \; f-3-3-1 0 \; f-3-4-1 0
\;;
#X text 18 1223 set6;
#X msg 268 1122 \; f-3-1-1 0 \; f-3-2-1 58 \; f-3-3-1 0 \; f-3-4-1
0 \;;
#X msg 167 1123 \; f-2-1-1 236 \; f-2-2-1 66 \; f-2-3-1 116 \; f-2-4-1
0 \;;
#X msg 873 1127 \; f-9-1-1 0 \; f-9-2-1 224 \; f-9-3-1 0 \; f-9-4-1
0 \;;
#X text 95 1420 L1;
#X text 192 1422 L2;
#X text 298 1420 L3;
#X text 395 1422 L4;
#X text 502 1421 L5;
#X text 599 1423 L6;
#X text 705 1421 L7;
#X text 802 1423 L8;
#X msg 73 1444 \; f-1-1-1 0 \; f-1-2-1 0 \; f-1-3-1 0 \; f-1-4-1 0
\;;
#X obj 22 1430 bng 15 250 50 0 empty empty empty 17 7 0 10 -262144
-1 -1;
#X obj 36 1425 t b b;
#X obj 35 1407 bng 15 250 50 0 empty set7 set7 17 7 0 10 -262144 -1
-1;
#X text 898 1425 L9;
#X msg 881 1448 \; f-9-1-1 0 \; f-9-2-1 0 \; f-9-3-1 0 \; f-9-4-1 0
\;;
#X text 20 1385 set7;
#X text 19 1536 set8;
#X text 20 1690 set9;
#X msg 71 1282 \; f-1-1-1 134 \; f-1-2-1 0 \; f-1-3-1 0 \; f-1-4-1
0 \;;
#X msg 175 1445 \; f-2-1-1 226 \; f-2-2-1 0 \; f-2-3-1 0 \; f-2-4-1
0 \;;
#X msg 276 1444 \; f-3-1-1 186 \; f-3-2-1 0 \; f-3-3-1 0 \; f-3-4-1
0 \;;
#X msg 378 1445 \; f-4-1-1 118 \; f-4-2-1 94 \; f-4-3-1 150 \; f-4-4-1
0 \;;
#X msg 480 1445 \; f-5-1-1 253 \; f-5-2-1 0 \; f-5-3-1 0 \; f-5-4-1
0 \;;
#X msg 582 1446 \; f-6-1-1 74 \; f-6-2-1 218 \; f-6-3-1 0 \; f-6-4-1
0 \;;
#X msg 683 1445 \; f-7-1-1 0 \; f-7-2-1 40 \; f-7-3-1 58 \; f-7-4-1
0 \;;
#X msg 785 1446 \; f-8-1-1 230 \; f-8-2-1 54 \; f-8-3-1 0 \; f-8-4-1
90 \;;
#X text 98 1578 L1;
#X text 195 1580 L2;
#X text 301 1578 L3;
#X text 398 1580 L4;
#X text 505 1579 L5;
#X text 602 1581 L6;
#X text 708 1579 L7;
#X text 805 1581 L8;
#X obj 25 1588 bng 15 250 50 0 empty empty empty 17 7 0 10 -262144
-1 -1;
#X obj 39 1583 t b b;
#X obj 38 1565 bng 15 250 50 0 empty set8 set8 17 7 0 10 -262144 -1
-1;
#X text 901 1583 L9;
#X msg 178 1603 \; f-2-1-1 226 \; f-2-2-1 0 \; f-2-3-1 0 \; f-2-4-1
0 \;;
#X msg 279 1602 \; f-3-1-1 186 \; f-3-2-1 0 \; f-3-3-1 0 \; f-3-4-1
0 \;;
#X msg 381 1603 \; f-4-1-1 118 \; f-4-2-1 94 \; f-4-3-1 150 \; f-4-4-1
0 \;;
#X msg 483 1603 \; f-5-1-1 253 \; f-5-2-1 0 \; f-5-3-1 0 \; f-5-4-1
0 \;;
#X msg 585 1604 \; f-6-1-1 74 \; f-6-2-1 218 \; f-6-3-1 0 \; f-6-4-1
0 \;;
#X msg 686 1603 \; f-7-1-1 0 \; f-7-2-1 40 \; f-7-3-1 58 \; f-7-4-1
0 \;;
#X msg 788 1604 \; f-8-1-1 230 \; f-8-2-1 54 \; f-8-3-1 0 \; f-8-4-1
90 \;;
#X msg 884 1606 \; f-9-1-1 0 \; f-9-2-1 253 \; f-9-3-1 0 \; f-9-4-1
0 \;;
#X msg 76 1602 \; f-1-1-1 253 \; f-1-2-1 0 \; f-1-3-1 0 \; f-1-4-1
0 \;;
#X text 96 1735 L1;
#X text 193 1737 L2;
#X text 299 1735 L3;
#X text 396 1737 L4;
#X text 503 1736 L5;
#X text 600 1738 L6;
#X text 706 1736 L7;
#X text 803 1738 L8;
#X obj 23 1745 bng 15 250 50 0 empty empty empty 17 7 0 10 -262144
-1 -1;
#X obj 37 1740 t b b;
#X obj 36 1722 bng 15 250 50 0 empty set9 set9 17 7 0 10 -262144 -1
-1;
#X text 899 1740 L9;
#X msg 277 1759 \; f-3-1-1 186 \; f-3-2-1 0 \; f-3-3-1 0 \; f-3-4-1
0 \;;
#X msg 882 1763 \; f-9-1-1 0 \; f-9-2-1 253 \; f-9-3-1 0 \; f-9-4-1
0 \;;
#X msg 74 1759 \; f-1-1-1 253 \; f-1-2-1 0 \; f-1-3-1 0 \; f-1-4-1
0 \;;
#X text 25 1838 set10;
#X msg 176 1760 \; f-2-1-1 0 \; f-2-2-1 253 \; f-2-3-1 253 \; f-2-4-1
253 \;;
#X msg 379 1760 \; f-4-1-1 132 \; f-4-2-1 28 \; f-4-3-1 60 \; f-4-4-1
0 \;;
#X msg 481 1760 \; f-5-1-1 9 \; f-5-2-1 253 \; f-5-3-1 0 \; f-5-4-1
0 \;;
#X msg 583 1761 \; f-6-1-1 218 \; f-6-2-1 74 \; f-6-3-1 0 \; f-6-4-1
0 \;;
#X msg 684 1760 \; f-7-1-1 160 \; f-7-2-1 122 \; f-7-3-1 0 \; f-7-4-1
0 \;;
#X msg 786 1761 \; f-8-1-1 216 \; f-8-2-1 110 \; f-8-3-1 192 \; f-8-4-1
74 \;;
#X text 98 1876 L1;
#X text 195 1878 L2;
#X text 301 1876 L3;
#X text 398 1878 L4;
#X text 505 1877 L5;
#X text 602 1879 L6;
#X text 708 1877 L7;
#X text 805 1879 L8;
#X obj 25 1886 bng 15 250 50 0 empty empty empty 17 7 0 10 -262144
-1 -1;
#X obj 39 1881 t b b;
#X obj 38 1863 bng 15 250 50 0 empty set10 set10 17 7 0 10 -262144
-1 -1;
#X text 901 1881 L9;
#X msg 883 1904 \; f-9-1-1 0 \; f-9-2-1 253 \; f-9-3-1 0 \; f-9-4-1
0 \;;
#X msg 178 1901 \; f-2-1-1 0 \; f-2-2-1 253 \; f-2-3-1 253 \; f-2-4-1
253 \;;
#X msg 788 1902 \; f-8-1-1 216 \; f-8-2-1 110 \; f-8-3-1 192 \; f-8-4-1
74 \;;
#X msg 76 1900 \; f-1-1-1 32 \; f-1-2-1 0 \; f-1-3-1 0 \; f-1-4-1 0
\;;
#X msg 279 1900 \; f-3-1-1 96 \; f-3-2-1 0 \; f-3-3-1 0 \; f-3-4-1
0 \;;
#X msg 381 1901 \; f-4-1-1 24 \; f-4-2-1 76 \; f-4-3-1 0 \; f-4-4-1
0 \;;
#X msg 483 1901 \; f-5-1-1 2 \; f-5-2-1 0 \; f-5-3-1 253 \; f-5-4-1
0 \;;
#X msg 585 1902 \; f-6-1-1 253 \; f-6-2-1 0 \; f-6-3-1 0 \; f-6-4-1
0 \;;
#X msg 686 1900 \; f-7-1-1 34 \; f-7-2-1 0 \; f-7-3-1 0 \; f-7-4-1
0 \;;
#X text 102 2032 L1;
#X text 199 2034 L2;
#X text 305 2032 L3;
#X text 402 2034 L4;
#X text 509 2033 L5;
#X text 606 2035 L6;
#X text 712 2033 L7;
#X text 809 2035 L8;
#X obj 29 2042 bng 15 250 50 0 empty empty empty 17 7 0 10 -262144
-1 -1;
#X obj 43 2037 t b b;
#X obj 42 2019 bng 15 250 50 0 empty set11 set11 17 7 0 10 -262144
-1 -1;
#X text 905 2037 L9;
#X msg 80 2056 \; f-1-1-1 32 \; f-1-2-1 0 \; f-1-3-1 0 \; f-1-4-1 0
\;;
#X text 29 1994 set11;
#X msg 182 2057 \; f-2-1-1 84 \; f-2-2-1 0 \; f-2-3-1 0 \; f-2-4-1
0 \;;
#X msg 283 2056 \; f-3-1-1 0 \; f-3-2-1 253 \; f-3-3-1 0 \; f-3-4-1
0 \;;
#X msg 385 2057 \; f-4-1-1 253 \; f-4-2-1 106 \; f-4-3-1 0 \; f-4-4-1
0 \;;
#X msg 487 2057 \; f-5-1-1 2 \; f-5-2-1 140 \; f-5-3-1 34 \; f-5-4-1
0 \;;
#X msg 589 2058 \; f-6-1-1 20 \; f-6-2-1 0 \; f-6-3-1 66 \; f-6-4-1
0 \;;
#X msg 690 2056 \; f-7-1-1 46 \; f-7-2-1 58 \; f-7-3-1 244 \; f-7-4-1
26 \;;
#X msg 791 2058 \; f-8-1-1 253 \; f-8-2-1 0 \; f-8-3-1 0 \; f-8-4-1
102 \;;
#X msg 887 2060 \; f-9-1-1 0 \; f-9-2-1 68 \; f-9-3-1 0 \; f-9-4-1
0 \;;
#X text 105 2192 L1;
#X text 202 2194 L2;
#X text 308 2192 L3;
#X text 405 2194 L4;
#X text 512 2193 L5;
#X text 609 2195 L6;
#X text 715 2193 L7;
#X text 812 2195 L8;
#X obj 32 2202 bng 15 250 50 0 empty empty empty 17 7 0 10 -262144
-1 -1;
#X obj 46 2197 t b b;
#X obj 45 2179 bng 15 250 50 0 empty set12 set12 17 7 0 10 -262144
-1 -1;
#X text 908 2197 L9;
#X text 32 2154 set12;
#X msg 83 2216 \; f-1-1-1 112 \; f-1-2-1 48 \; f-1-3-1 0 \; f-1-4-1
0 \;;
#X msg 185 2217 \; f-2-1-1 0 \; f-2-2-1 170 \; f-2-3-1 253 \; f-2-4-1
0 \;;
#X msg 286 2216 \; f-3-1-1 0 \; f-3-2-1 100 \; f-3-3-1 0 \; f-3-4-1
0 \;;
#X msg 388 2217 \; f-4-1-1 0 \; f-4-2-1 28 \; f-4-3-1 0 \; f-4-4-1
0 \;;
#X msg 490 2217 \; f-5-1-1 2 \; f-5-2-1 134 \; f-5-3-1 34 \; f-5-4-1
0 \;;
#X msg 592 2218 \; f-6-1-1 20 \; f-6-2-1 220 \; f-6-3-1 100 \; f-6-4-1
0 \;;
#X msg 693 2216 \; f-7-1-1 0 \; f-7-2-1 32 \; f-7-3-1 14 \; f-7-4-1
0 \;;
#X msg 794 2218 \; f-8-1-1 30 \; f-8-2-1 110 \; f-8-3-1 178 \; f-8-4-1
90 \;;
#X msg 890 2220 \; f-9-1-1 0 \; f-9-2-1 104 \; f-9-3-1 0 \; f-9-4-1
0 \;;
#X text 109 2355 L1;
#X text 206 2357 L2;
#X text 312 2355 L3;
#X text 409 2357 L4;
#X text 516 2356 L5;
#X text 613 2358 L6;
#X text 719 2356 L7;
#X text 816 2358 L8;
#X obj 36 2365 bng 15 250 50 0 empty empty empty 17 7 0 10 -262144
-1 -1;
#X obj 50 2360 t b b;
#X obj 49 2342 bng 15 250 50 0 empty set13 set13 17 7 0 10 -262144
-1 -1;
#X text 912 2360 L9;
#X msg 87 2379 \; f-1-1-1 112 \; f-1-2-1 48 \; f-1-3-1 0 \; f-1-4-1
0 \;;
#X msg 290 2379 \; f-3-1-1 0 \; f-3-2-1 100 \; f-3-3-1 0 \; f-3-4-1
0 \;;
#X msg 894 2383 \; f-9-1-1 0 \; f-9-2-1 104 \; f-9-3-1 0 \; f-9-4-1
0 \;;
#X text 36 2317 set13;
#X msg 189 2380 \; f-2-1-1 234 \; f-2-2-1 20 \; f-2-3-1 250 \; f-2-4-1
0 \;;
#X msg 392 2380 \; f-4-1-1 26 \; f-4-2-1 18 \; f-4-3-1 0 \; f-4-4-1
0 \;;
#X msg 494 2380 \; f-5-1-1 116 \; f-5-2-1 46 \; f-5-3-1 0 \; f-5-4-1
0 \;;
#X msg 596 2381 \; f-6-1-1 66 \; f-6-2-1 0 \; f-6-3-1 78 \; f-6-4-1
4 \;;
#X msg 697 2379 \; f-7-1-1 30 \; f-7-2-1 10 \; f-7-3-1 0 \; f-7-4-1
0 \;;
#X msg 798 2381 \; f-8-1-1 158 \; f-8-2-1 74 \; f-8-3-1 50 \; f-8-4-1
90 \;;
#X text 110 2504 L1;
#X text 207 2506 L2;
#X text 313 2504 L3;
#X text 410 2506 L4;
#X text 517 2505 L5;
#X text 614 2507 L6;
#X text 720 2505 L7;
#X text 817 2507 L8;
#X msg 190 2529 \; f-2-1-1 0 \; f-2-2-1 0 \; f-2-3-1 0 \; f-2-4-1 0
\;;
#X msg 393 2529 \; f-4-1-1 0 \; f-4-2-1 0 \; f-4-3-1 0 \; f-4-4-1 0
\;;
#X msg 495 2529 \; f-5-1-1 0 \; f-5-2-1 0 \; f-5-3-1 0 \; f-5-4-1 0
\;;
#X msg 597 2530 \; f-6-1-1 0 \; f-6-2-1 0 \; f-6-3-1 0 \; f-6-4-1 0
\;;
#X msg 698 2529 \; f-7-1-1 0 \; f-7-2-1 0 \; f-7-3-1 0 \; f-7-4-1 0
\;;
#X msg 800 2530 \; f-8-1-1 0 \; f-8-2-1 0 \; f-8-3-1 0 \; f-8-4-1 0
\;;
#X obj 37 2514 bng 15 250 50 0 empty empty empty 17 7 0 10 -262144
-1 -1;
#X obj 51 2509 t b b;
#X obj 50 2491 bng 15 250 50 0 empty set14 set14 17 7 0 10 -262144
-1 -1;
#X text 913 2509 L9;
#X text 37 2475 set14;
#X msg 88 2528 \; f-1-1-1 253 \; f-1-2-1 0 \; f-1-3-1 0 \; f-1-4-1
0 \;;
#X text 112 2652 L1;
#X text 209 2654 L2;
#X text 315 2652 L3;
#X text 412 2654 L4;
#X text 519 2653 L5;
#X text 616 2655 L6;
#X text 722 2653 L7;
#X text 819 2655 L8;
#X msg 192 2677 \; f-2-1-1 0 \; f-2-2-1 0 \; f-2-3-1 0 \; f-2-4-1 0
\;;
#X msg 395 2677 \; f-4-1-1 0 \; f-4-2-1 0 \; f-4-3-1 0 \; f-4-4-1 0
\;;
#X msg 497 2677 \; f-5-1-1 0 \; f-5-2-1 0 \; f-5-3-1 0 \; f-5-4-1 0
\;;
#X msg 599 2678 \; f-6-1-1 0 \; f-6-2-1 0 \; f-6-3-1 0 \; f-6-4-1 0
\;;
#X msg 700 2677 \; f-7-1-1 0 \; f-7-2-1 0 \; f-7-3-1 0 \; f-7-4-1 0
\;;
#X msg 802 2678 \; f-8-1-1 0 \; f-8-2-1 0 \; f-8-3-1 0 \; f-8-4-1 0
\;;
#X obj 39 2662 bng 15 250 50 0 empty empty empty 17 7 0 10 -262144
-1 -1;
#X msg 1011 2680 \; Transition_Interval 3000;
#X obj 53 2657 t b b;
#X obj 52 2639 bng 15 250 50 0 empty set15 set15 17 7 0 10 -262144
-1 -1;
#X text 915 2657 L9;
#X msg 90 2676 \; f-1-1-1 253 \; f-1-2-1 0 \; f-1-3-1 0 \; f-1-4-1
0 \;;
#X text 39 2623 set15;
#X msg 291 2528 \; f-3-1-1 0 \; f-3-2-1 253 \; f-3-3-1 0 \; f-3-4-1
0 \;;
#X msg 896 2533 \; f-9-1-1 0 \; f-9-2-1 253 \; f-9-3-1 0 \; f-9-4-1
0 \;;
#X msg 293 2676 \; f-3-1-1 0 \; f-3-2-1 0 \; f-3-3-1 0 \; f-3-4-1 0
\;;
#X msg 898 2681 \; f-9-1-1 0 \; f-9-2-1 0 \; f-9-3-1 0 \; f-9-4-1 0
\;;
#X text 118 2804 L1;
#X text 215 2806 L2;
#X text 321 2804 L3;
#X text 418 2806 L4;
#X text 525 2805 L5;
#X text 622 2807 L6;
#X text 728 2805 L7;
#X text 825 2807 L8;
#X msg 198 2829 \; f-2-1-1 0 \; f-2-2-1 0 \; f-2-3-1 0 \; f-2-4-1 0
\;;
#X msg 401 2829 \; f-4-1-1 0 \; f-4-2-1 0 \; f-4-3-1 0 \; f-4-4-1 0
\;;
#X msg 503 2829 \; f-5-1-1 0 \; f-5-2-1 0 \; f-5-3-1 0 \; f-5-4-1 0
\;;
#X msg 605 2830 \; f-6-1-1 0 \; f-6-2-1 0 \; f-6-3-1 0 \; f-6-4-1 0
\;;
#X msg 706 2829 \; f-7-1-1 0 \; f-7-2-1 0 \; f-7-3-1 0 \; f-7-4-1 0
\;;
#X msg 808 2830 \; f-8-1-1 0 \; f-8-2-1 0 \; f-8-3-1 0 \; f-8-4-1 0
\;;
#X obj 45 2814 bng 15 250 50 0 empty empty empty 17 7 0 10 -262144
-1 -1;
#X msg 1017 2832 \; Transition_Interval 3000;
#X obj 59 2809 t b b;
#X obj 58 2791 bng 15 250 50 0 empty set16 set16 17 7 0 10 -262144
-1 -1;
#X text 921 2809 L9;
#X msg 904 2833 \; f-9-1-1 0 \; f-9-2-1 0 \; f-9-3-1 0 \; f-9-4-1 0
\;;
#X text 45 2775 set16;
#X msg 96 2828 \; f-1-1-1 0 \; f-1-2-1 0 \; f-1-3-1 0 \; f-1-4-1 0
\;;
#X msg 299 2828 \; f-3-1-1 0 \; f-3-2-1 253 \; f-3-3-1 0 \; f-3-4-1
0 \;;
#X text 115 2946 L1;
#X text 212 2948 L2;
#X text 318 2946 L3;
#X text 415 2948 L4;
#X text 522 2947 L5;
#X text 619 2949 L6;
#X text 725 2947 L7;
#X text 822 2949 L8;
#X msg 195 2971 \; f-2-1-1 0 \; f-2-2-1 0 \; f-2-3-1 0 \; f-2-4-1 0
\;;
#X msg 398 2971 \; f-4-1-1 0 \; f-4-2-1 0 \; f-4-3-1 0 \; f-4-4-1 0
\;;
#X msg 500 2971 \; f-5-1-1 0 \; f-5-2-1 0 \; f-5-3-1 0 \; f-5-4-1 0
\;;
#X msg 602 2972 \; f-6-1-1 0 \; f-6-2-1 0 \; f-6-3-1 0 \; f-6-4-1 0
\;;
#X msg 703 2971 \; f-7-1-1 0 \; f-7-2-1 0 \; f-7-3-1 0 \; f-7-4-1 0
\;;
#X msg 805 2972 \; f-8-1-1 0 \; f-8-2-1 0 \; f-8-3-1 0 \; f-8-4-1 0
\;;
#X obj 42 2956 bng 15 250 50 0 empty empty empty 17 7 0 10 -262144
-1 -1;
#X msg 1014 2974 \; Transition_Interval 3000;
#X obj 56 2951 t b b;
#X obj 55 2933 bng 15 250 50 0 empty set17 set17 17 7 0 10 -262144
-1 -1;
#X text 918 2951 L9;
#X msg 93 2970 \; f-1-1-1 0 \; f-1-2-1 0 \; f-1-3-1 0 \; f-1-4-1 0
\;;
#X msg 296 2970 \; f-3-1-1 0 \; f-3-2-1 0 \; f-3-3-1 0 \; f-3-4-1 0
\;;
#X msg 901 2975 \; f-9-1-1 0 \; f-9-2-1 253 \; f-9-3-1 0 \; f-9-4-1
0 \;;
#X text 116 3076 L1;
#X text 213 3078 L2;
#X text 319 3076 L3;
#X text 416 3078 L4;
#X text 523 3077 L5;
#X text 620 3079 L6;
#X text 726 3077 L7;
#X text 823 3079 L8;
#X msg 196 3101 \; f-2-1-1 0 \; f-2-2-1 0 \; f-2-3-1 0 \; f-2-4-1 0
\;;
#X msg 399 3101 \; f-4-1-1 0 \; f-4-2-1 0 \; f-4-3-1 0 \; f-4-4-1 0
\;;
#X msg 501 3101 \; f-5-1-1 0 \; f-5-2-1 0 \; f-5-3-1 0 \; f-5-4-1 0
\;;
#X msg 603 3102 \; f-6-1-1 0 \; f-6-2-1 0 \; f-6-3-1 0 \; f-6-4-1 0
\;;
#X msg 704 3101 \; f-7-1-1 0 \; f-7-2-1 0 \; f-7-3-1 0 \; f-7-4-1 0
\;;
#X msg 806 3102 \; f-8-1-1 0 \; f-8-2-1 0 \; f-8-3-1 0 \; f-8-4-1 0
\;;
#X obj 43 3086 bng 15 250 50 0 empty empty empty 17 7 0 10 -262144
-1 -1;
#X msg 1015 3104 \; Transition_Interval 3000;
#X obj 57 3081 t b b;
#X obj 56 3063 bng 15 250 50 0 empty set18 set18 17 7 0 10 -262144
-1 -1;
#X text 919 3081 L9;
#X msg 94 3100 \; f-1-1-1 0 \; f-1-2-1 0 \; f-1-3-1 0 \; f-1-4-1 0
\;;
#X msg 902 3105 \; f-9-1-1 0 \; f-9-2-1 253 \; f-9-3-1 0 \; f-9-4-1
0 \;;
#X text 42 2917 set17;
#X text 43 3047 set18;
#X msg 297 3100 \; f-3-1-1 0 \; f-3-2-1 253 \; f-3-3-1 0 \; f-3-4-1
0 \;;
#X text 119 3208 L1;
#X text 216 3210 L2;
#X text 322 3208 L3;
#X text 419 3210 L4;
#X text 526 3209 L5;
#X text 623 3211 L6;
#X text 729 3209 L7;
#X text 826 3211 L8;
#X obj 46 3218 bng 15 250 50 0 empty empty empty 17 7 0 10 -262144
-1 -1;
#X msg 1018 3236 \; Transition_Interval 3000;
#X obj 60 3213 t b b;
#X obj 59 3195 bng 15 250 50 0 empty set19 set19 17 7 0 10 -262144
-1 -1;
#X text 922 3213 L9;
#X text 46 3179 set19;
#X msg 97 3232 \; f-1-1-1 253 \; f-1-2-1 0 \; f-1-3-1 0 \; f-1-4-1
0 \;;
#X msg 198 3232 \; f-2-1-1 0 \; f-2-2-1 253 \; f-2-3-1 253 \; f-2-4-1
0 \;;
#X msg 300 3232 \; f-3-1-1 0 \; f-3-2-1 0 \; f-3-3-1 0 \; f-3-4-1 0
\;;
#X msg 402 3233 \; f-4-1-1 0 \; f-4-2-1 0 \; f-4-3-1 42 \; f-4-4-1
0 \;;
#X msg 504 3233 \; f-5-1-1 144 \; f-5-2-1 0 \; f-5-3-1 100 \; f-5-4-1
0 \;;
#X msg 606 3234 \; f-6-1-1 0 \; f-6-2-1 186 \; f-6-3-1 0 \; f-6-4-1
0 \;;
#X msg 707 3233 \; f-7-1-1 0 \; f-7-2-1 34 \; f-7-3-1 50 \; f-7-4-1
0 \;;
#X msg 809 3234 \; f-8-1-1 78 \; f-8-2-1 246 \; f-8-3-1 170 \; f-8-4-1
98 \;;
#X msg 905 3237 \; f-9-1-1 0 \; f-9-2-1 0 \; f-9-3-1 0 \; f-9-4-1 0
\;;
#X text 119 3344 L1;
#X text 216 3346 L2;
#X text 322 3344 L3;
#X text 419 3346 L4;
#X text 526 3345 L5;
#X text 623 3347 L6;
#X text 729 3345 L7;
#X text 826 3347 L8;
#X obj 46 3354 bng 15 250 50 0 empty empty empty 17 7 0 10 -262144
-1 -1;
#X msg 1018 3372 \; Transition_Interval 3000;
#X obj 60 3349 t b b;
#X obj 59 3331 bng 15 250 50 0 empty set20 set20 17 7 0 10 -262144
-1 -1;
#X text 922 3349 L9;
#X msg 198 3368 \; f-2-1-1 0 \; f-2-2-1 253 \; f-2-3-1 253 \; f-2-4-1
0 \;;
#X text 46 3316 set20;
#X msg 97 3368 \; f-1-1-1 50 \; f-1-2-1 0 \; f-1-3-1 0 \; f-1-4-1 0
\;;
#X msg 300 3368 \; f-3-1-1 0 \; f-3-2-1 253 \; f-3-3-1 0 \; f-3-4-1
0 \;;
#X msg 402 3369 \; f-4-1-1 2 \; f-4-2-1 28 \; f-4-3-1 0 \; f-4-4-1
0 \;;
#X msg 504 3369 \; f-5-1-1 253 \; f-5-2-1 0 \; f-5-3-1 0 \; f-5-4-1
0 \;;
#X msg 606 3370 \; f-6-1-1 0 \; f-6-2-1 253 \; f-6-3-1 0 \; f-6-4-1
0 \;;
#X msg 707 3369 \; f-7-1-1 20 \; f-7-2-1 34 \; f-7-3-1 0 \; f-7-4-1
0 \;;
#X msg 809 3370 \; f-8-1-1 253 \; f-8-2-1 204 \; f-8-3-1 200 \; f-8-4-1
92 \;;
#X msg 905 3373 \; f-9-1-1 0 \; f-9-2-1 253 \; f-9-3-1 0 \; f-9-4-1
0 \;;
#X text 48 3454 set21;
#X text 127 3493 L1;
#X text 224 3495 L2;
#X text 330 3493 L3;
#X text 427 3495 L4;
#X text 534 3494 L5;
#X text 631 3496 L6;
#X text 737 3494 L7;
#X text 834 3496 L8;
#X obj 54 3503 bng 15 250 50 0 empty empty empty 17 7 0 10 -262144
-1 -1;
#X obj 68 3498 t b b;
#X obj 67 3480 bng 15 250 50 0 empty set21 set21 17 7 0 10 -262144
-1 -1;
#X text 930 3498 L9;
#X msg 105 3517 \; f-1-1-1 112 \; f-1-2-1 48 \; f-1-3-1 0 \; f-1-4-1
0 \;;
#X msg 207 3518 \; f-2-1-1 234 \; f-2-2-1 20 \; f-2-3-1 250 \; f-2-4-1
0 \;;
#X msg 410 3518 \; f-4-1-1 26 \; f-4-2-1 18 \; f-4-3-1 0 \; f-4-4-1
0 \;;
#X msg 512 3518 \; f-5-1-1 116 \; f-5-2-1 46 \; f-5-3-1 0 \; f-5-4-1
0 \;;
#X msg 614 3519 \; f-6-1-1 66 \; f-6-2-1 0 \; f-6-3-1 78 \; f-6-4-1
4 \;;
#X msg 715 3517 \; f-7-1-1 30 \; f-7-2-1 10 \; f-7-3-1 0 \; f-7-4-1
0 \;;
#X msg 816 3519 \; f-8-1-1 158 \; f-8-2-1 74 \; f-8-3-1 50 \; f-8-4-1
90 \;;
#X msg 307 3517 \; f-3-1-1 0 \; f-3-2-1 0 \; f-3-3-1 0 \; f-3-4-1 0
\;;
#X msg 912 3521 \; f-9-1-1 0 \; f-9-2-1 0 \; f-9-3-1 0 \; f-9-4-1 0
\;;
#X text 128 3644 L1;
#X text 225 3646 L2;
#X text 331 3644 L3;
#X text 428 3646 L4;
#X text 535 3645 L5;
#X text 632 3647 L6;
#X text 738 3645 L7;
#X text 835 3647 L8;
#X msg 106 3668 \; f-1-1-1 0 \; f-1-2-1 0 \; f-1-3-1 0 \; f-1-4-1 0
\;;
#X obj 55 3654 bng 15 250 50 0 empty empty empty 17 7 0 10 -262144
-1 -1;
#X obj 69 3649 t b b;
#X obj 68 3631 bng 15 250 50 0 empty set22 set22 17 7 0 10 -262144
-1 -1;
#X text 931 3649 L9;
#X msg 914 3672 \; f-9-1-1 0 \; f-9-2-1 0 \; f-9-3-1 0 \; f-9-4-1 0
\;;
#X msg 208 3669 \; f-2-1-1 226 \; f-2-2-1 0 \; f-2-3-1 0 \; f-2-4-1
0 \;;
#X msg 411 3669 \; f-4-1-1 118 \; f-4-2-1 94 \; f-4-3-1 150 \; f-4-4-1
0 \;;
#X msg 513 3669 \; f-5-1-1 253 \; f-5-2-1 0 \; f-5-3-1 0 \; f-5-4-1
0 \;;
#X msg 615 3670 \; f-6-1-1 74 \; f-6-2-1 218 \; f-6-3-1 0 \; f-6-4-1
0 \;;
#X msg 716 3669 \; f-7-1-1 0 \; f-7-2-1 40 \; f-7-3-1 58 \; f-7-4-1
0 \;;
#X msg 818 3670 \; f-8-1-1 230 \; f-8-2-1 54 \; f-8-3-1 0 \; f-8-4-1
90 \;;
#X text 53 3609 set22;
#X msg 309 3668 \; f-3-1-1 0 \; f-3-2-1 0 \; f-3-3-1 0 \; f-3-4-1 0
\;;
#X text 131 3801 L1;
#X text 228 3803 L2;
#X text 334 3801 L3;
#X text 431 3803 L4;
#X text 538 3802 L5;
#X text 635 3804 L6;
#X text 741 3802 L7;
#X text 838 3804 L8;
#X obj 58 3811 bng 15 250 50 0 empty empty empty 17 7 0 10 -262144
-1 -1;
#X obj 72 3806 t b b;
#X obj 71 3788 bng 15 250 50 0 empty set23 set23 17 7 0 10 -262144
-1 -1;
#X text 934 3806 L9;
#X msg 211 3826 \; f-2-1-1 0 \; f-2-2-1 253 \; f-2-3-1 253 \; f-2-4-1
253 \;;
#X msg 821 3827 \; f-8-1-1 216 \; f-8-2-1 110 \; f-8-3-1 192 \; f-8-4-1
74 \;;
#X msg 109 3825 \; f-1-1-1 32 \; f-1-2-1 0 \; f-1-3-1 0 \; f-1-4-1
0 \;;
#X msg 414 3826 \; f-4-1-1 24 \; f-4-2-1 76 \; f-4-3-1 0 \; f-4-4-1
0 \;;
#X msg 516 3826 \; f-5-1-1 2 \; f-5-2-1 0 \; f-5-3-1 253 \; f-5-4-1
0 \;;
#X msg 618 3827 \; f-6-1-1 253 \; f-6-2-1 0 \; f-6-3-1 0 \; f-6-4-1
0 \;;
#X msg 719 3825 \; f-7-1-1 34 \; f-7-2-1 0 \; f-7-3-1 0 \; f-7-4-1
0 \;;
#X text 58 3763 set23;
#X msg 312 3825 \; f-3-1-1 0 \; f-3-2-1 0 \; f-3-3-1 0 \; f-3-4-1 0
\;;
#X msg 916 3829 \; f-9-1-1 0 \; f-9-2-1 0 \; f-9-3-1 0 \; f-9-4-1 0
\;;
#X msg 986 802 \; Transition_Interval 5000;
#X msg 983 637 \; Transition_Interval 3000;
#X msg 986 1126 \; Transition_Interval 5000;
#X msg 992 1286 \; Transition_Interval 5000;
#X msg 994 1448 \; Transition_Interval 5000;
#X msg 997 1606 \; Transition_Interval 5000;
#X msg 995 1763 \; Transition_Interval 5000;
#X msg 997 1904 \; Transition_Interval 5000;
#X msg 1001 2060 \; Transition_Interval 5000;
#X msg 1004 2220 \; Transition_Interval 5000;
#X msg 1008 2383 \; Transition_Interval 5000;
#X msg 1009 2532 \; Transition_Interval 5000;
#X msg 1026 3521 \; Transition_Interval 5000;
#X msg 1027 3672 \; Transition_Interval 5000;
#X msg 1030 3829 \; Transition_Interval 5000;
#X msg 979 462 \; Transition_Interval 5000;
#X msg 58 458 \; f-1-1-1 0 \; f-1-2-1 0 \; f-1-3-1 0 \; f-1-4-1 0 \;
;
#X connect 17 0 18 0;
#X connect 17 0 19 0;
#X connect 36 0 28 0;
#X connect 36 0 29 0;
#X connect 36 0 30 0;
#X connect 36 0 31 0;
#X connect 36 0 32 0;
#X connect 36 0 33 0;
#X connect 36 0 34 0;
#X connect 36 0 35 0;
#X connect 37 0 0 0;
#X connect 37 0 9 0;
#X connect 37 0 10 0;
#X connect 37 0 11 0;
#X connect 37 0 12 0;
#X connect 37 0 13 0;
#X connect 37 0 14 0;
#X connect 37 0 15 0;
#X connect 37 0 58 0;
#X connect 40 0 36 0;
#X connect 40 0 57 0;
#X connect 40 1 39 0;
#X connect 41 0 40 0;
#X connect 42 0 18 0;
#X connect 42 0 19 0;
#X connect 52 0 575 0;
#X connect 52 0 81 0;
#X connect 52 0 82 0;
#X connect 52 0 83 0;
#X connect 52 0 84 0;
#X connect 52 0 85 0;
#X connect 52 0 86 0;
#X connect 52 0 87 0;
#X connect 53 0 52 0;
#X connect 53 0 88 0;
#X connect 53 1 574 0;
#X connect 54 0 53 0;
#X connect 75 0 68 0;
#X connect 75 0 69 0;
#X connect 75 0 110 0;
#X connect 75 0 70 0;
#X connect 75 0 71 0;
#X connect 75 0 72 0;
#X connect 75 0 73 0;
#X connect 75 0 74 0;
#X connect 76 0 75 0;
#X connect 76 0 80 0;
#X connect 76 1 560 0;
#X connect 77 0 76 0;
#X connect 104 0 97 0;
#X connect 104 0 98 0;
#X connect 104 0 108 0;
#X connect 104 0 99 0;
#X connect 104 0 100 0;
#X connect 104 0 101 0;
#X connect 104 0 102 0;
#X connect 104 0 103 0;
#X connect 105 0 104 0;
#X connect 105 0 131 0;
#X connect 105 1 559 0;
#X connect 106 0 105 0;
#X connect 126 0 119 0;
#X connect 126 0 120 0;
#X connect 126 0 150 0;
#X connect 126 0 121 0;
#X connect 126 0 122 0;
#X connect 126 0 123 0;
#X connect 126 0 124 0;
#X connect 126 0 125 0;
#X connect 127 0 126 0;
#X connect 127 0 151 0;
#X connect 127 1 152 0;
#X connect 128 0 127 0;
#X connect 146 0 140 0;
#X connect 146 0 176 0;
#X connect 146 0 175 0;
#X connect 146 0 141 0;
#X connect 146 0 142 0;
#X connect 146 0 143 0;
#X connect 146 0 144 0;
#X connect 146 0 145 0;
#X connect 147 0 146 0;
#X connect 147 0 177 0;
#X connect 147 1 561 0;
#X connect 148 0 147 0;
#X connect 168 0 195 0;
#X connect 168 0 162 0;
#X connect 168 0 173 0;
#X connect 168 0 163 0;
#X connect 168 0 164 0;
#X connect 168 0 165 0;
#X connect 168 0 166 0;
#X connect 168 0 167 0;
#X connect 169 0 168 0;
#X connect 169 0 172 0;
#X connect 169 1 562 0;
#X connect 170 0 169 0;
#X connect 187 0 186 0;
#X connect 187 0 196 0;
#X connect 187 0 197 0;
#X connect 187 0 198 0;
#X connect 187 0 199 0;
#X connect 187 0 200 0;
#X connect 187 0 201 0;
#X connect 187 0 202 0;
#X connect 188 0 187 0;
#X connect 188 0 191 0;
#X connect 188 1 563 0;
#X connect 189 0 188 0;
#X connect 211 0 223 0;
#X connect 211 0 215 0;
#X connect 211 0 216 0;
#X connect 211 0 217 0;
#X connect 211 0 218 0;
#X connect 211 0 219 0;
#X connect 211 0 220 0;
#X connect 211 0 221 0;
#X connect 212 0 211 0;
#X connect 212 0 222 0;
#X connect 212 1 564 0;
#X connect 213 0 212 0;
#X connect 232 0 238 0;
#X connect 232 0 240 0;
#X connect 232 0 236 0;
#X connect 232 0 241 0;
#X connect 232 0 242 0;
#X connect 232 0 243 0;
#X connect 232 0 244 0;
#X connect 232 0 245 0;
#X connect 233 0 232 0;
#X connect 233 0 237 0;
#X connect 233 1 565 0;
#X connect 234 0 233 0;
#X connect 254 0 261 0;
#X connect 254 0 259 0;
#X connect 254 0 262 0;
#X connect 254 0 263 0;
#X connect 254 0 264 0;
#X connect 254 0 265 0;
#X connect 254 0 266 0;
#X connect 254 0 260 0;
#X connect 255 0 254 0;
#X connect 255 0 258 0;
#X connect 255 1 566 0;
#X connect 256 0 255 0;
#X connect 275 0 279 0;
#X connect 275 0 281 0;
#X connect 275 0 282 0;
#X connect 275 0 283 0;
#X connect 275 0 284 0;
#X connect 275 0 285 0;
#X connect 275 0 286 0;
#X connect 275 0 287 0;
#X connect 276 0 275 0;
#X connect 276 0 288 0;
#X connect 276 1 567 0;
#X connect 277 0 276 0;
#X connect 297 0 302 0;
#X connect 297 0 303 0;
#X connect 297 0 304 0;
#X connect 297 0 305 0;
#X connect 297 0 306 0;
#X connect 297 0 307 0;
#X connect 297 0 308 0;
#X connect 297 0 309 0;
#X connect 298 0 297 0;
#X connect 298 0 310 0;
#X connect 298 1 568 0;
#X connect 299 0 298 0;
#X connect 319 0 323 0;
#X connect 319 0 327 0;
#X connect 319 0 324 0;
#X connect 319 0 328 0;
#X connect 319 0 329 0;
#X connect 319 0 330 0;
#X connect 319 0 331 0;
#X connect 319 0 332 0;
#X connect 320 0 319 0;
#X connect 320 0 325 0;
#X connect 320 1 569 0;
#X connect 321 0 320 0;
#X connect 347 0 352 0;
#X connect 347 0 341 0;
#X connect 347 0 374 0;
#X connect 347 0 342 0;
#X connect 347 0 343 0;
#X connect 347 0 344 0;
#X connect 347 0 345 0;
#X connect 347 0 346 0;
#X connect 348 0 347 0;
#X connect 348 0 375 0;
#X connect 348 1 570 0;
#X connect 349 0 348 0;
#X connect 367 0 372 0;
#X connect 367 0 361 0;
#X connect 367 0 376 0;
#X connect 367 0 362 0;
#X connect 367 0 363 0;
#X connect 367 0 364 0;
#X connect 367 0 365 0;
#X connect 367 0 366 0;
#X connect 369 0 367 0;
#X connect 369 0 377 0;
#X connect 369 1 368 0;
#X connect 370 0 369 0;
#X connect 392 0 399 0;
#X connect 392 0 386 0;
#X connect 392 0 400 0;
#X connect 392 0 387 0;
#X connect 392 0 388 0;
#X connect 392 0 389 0;
#X connect 392 0 390 0;
#X connect 392 0 391 0;
#X connect 394 0 392 0;
#X connect 394 0 397 0;
#X connect 394 1 393 0;
#X connect 395 0 394 0;
#X connect 415 0 420 0;
#X connect 415 0 409 0;
#X connect 415 0 421 0;
#X connect 415 0 410 0;
#X connect 415 0 411 0;
#X connect 415 0 412 0;
#X connect 415 0 413 0;
#X connect 415 0 414 0;
#X connect 417 0 415 0;
#X connect 417 0 422 0;
#X connect 417 1 416 0;
#X connect 418 0 417 0;
#X connect 437 0 442 0;
#X connect 437 0 431 0;
#X connect 437 0 446 0;
#X connect 437 0 432 0;
#X connect 437 0 433 0;
#X connect 437 0 434 0;
#X connect 437 0 435 0;
#X connect 437 0 436 0;
#X connect 439 0 437 0;
#X connect 439 0 443 0;
#X connect 439 1 438 0;
#X connect 440 0 439 0;
#X connect 455 0 461 0;
#X connect 455 0 462 0;
#X connect 455 0 463 0;
#X connect 455 0 464 0;
#X connect 455 0 465 0;
#X connect 455 0 466 0;
#X connect 455 0 467 0;
#X connect 455 0 468 0;
#X connect 457 0 455 0;
#X connect 457 0 469 0;
#X connect 457 1 456 0;
#X connect 458 0 457 0;
#X connect 478 0 485 0;
#X connect 478 0 483 0;
#X connect 478 0 486 0;
#X connect 478 0 487 0;
#X connect 478 0 488 0;
#X connect 478 0 489 0;
#X connect 478 0 490 0;
#X connect 478 0 491 0;
#X connect 480 0 478 0;
#X connect 480 0 492 0;
#X connect 480 1 479 0;
#X connect 481 0 480 0;
#X connect 502 0 506 0;
#X connect 502 0 507 0;
#X connect 502 0 513 0;
#X connect 502 0 508 0;
#X connect 502 0 509 0;
#X connect 502 0 510 0;
#X connect 502 0 511 0;
#X connect 502 0 512 0;
#X connect 503 0 502 0;
#X connect 503 0 514 0;
#X connect 503 1 571 0;
#X connect 504 0 503 0;
#X connect 524 0 523 0;
#X connect 524 0 529 0;
#X connect 524 0 536 0;
#X connect 524 0 530 0;
#X connect 524 0 531 0;
#X connect 524 0 532 0;
#X connect 524 0 533 0;
#X connect 524 0 534 0;
#X connect 525 0 524 0;
#X connect 525 0 528 0;
#X connect 525 1 572 0;
#X connect 526 0 525 0;
#X connect 545 0 551 0;
#X connect 545 0 549 0;
#X connect 545 0 557 0;
#X connect 545 0 552 0;
#X connect 545 0 553 0;
#X connect 545 0 554 0;
#X connect 545 0 555 0;
#X connect 545 0 550 0;
#X connect 546 0 545 0;
#X connect 546 0 558 0;
#X connect 546 1 573 0;
#X connect 547 0 546 0;
#X restore 14 183 pd Control_Messages;
#X text 44 47 2 start clock;
#X text 165 9 1 Open Comport;
#N canvas 54 26 416 506 DMX_data_serial 1;
#X obj 39 306 list prepend 255;
#X obj 39 331 list append 254;
#X obj 38 293 bng 8 250 50 0 empty empty empty 17 7 0 10 -262144 -1
-1;
#X text 121 267 bus 1;
#X text 7 11 control bus;
#X text 30 33 1;
#X msg 228 342 devices;
#X obj 39 432 prepend set;
#X msg 39 456 255 1 4 37 0 0 0 254;
#X msg 348 339 close;
#X obj 78 33 RGBW 1 4 1 1;
#X obj 22 268 r RGBW-OUT-1;
#X obj 78 59 RGBW 5 4 2 1;
#X obj 78 85 RGBW 9 4 3 1;
#X obj 79 111 RGBW 13 4 4 1;
#X obj 78 139 RGBW 17 4 5 1;
#X obj 80 165 RGBW 21 4 6 1;
#X obj 80 190 RGBW 25 4 7 1;
#X obj 80 215 RGBW 29 4 8 1;
#X text 38 479 255 \, DMX_address \, n_channel \, control_1 \, control_2
\, control_3 \, control_4 \, 254, f 80;
#X obj 54 357 print;
#X obj 81 239 RGBW 33 4 9 1;
#X text 37 239 9;
#X msg 291 318 open 1;
#X obj 228 370 comport 1 57600;
#X connect 0 0 1 0;
#X connect 1 0 7 0;
#X connect 1 0 24 0;
#X connect 6 0 24 0;
#X connect 7 0 8 0;
#X connect 9 0 24 0;
#X connect 11 0 2 0;
#X connect 11 0 0 0;
#X connect 23 0 24 0;
#X restore 16 7 pd DMX_data_serial;
#X obj 212 35 loadbang;
#X obj 213 69 delay 2000;
#X msg 213 94 1;
#X connect 0 0 2 0;
#X connect 1 0 0 0;
#X connect 10 0 11 0;
#X connect 11 0 12 0;
#X restore 58 51 pd DMX;
#X obj 58 81 Ladderbot03;
#X text 178 85 5;
#X text 123 53 0;
#N canvas 53 23 910 804 Mixer_New 1;
#X obj 29 15 PresetManager 1;
#X obj 6 116 vsl_pre 1 1 1;
#X obj 105 116 vsl_pre 1 2 1;
#X obj 204 117 vsl_pre 1 3 1;
#X obj 303 117 vsl_pre 1 4 1;
#X obj 431 117 vsl_pre 1 5 2;
#X obj 530 117 vsl_pre 1 6 2;
#X obj 629 118 vsl_pre 1 7 2;
#X obj 728 118 vsl_pre 1 8 2;
#X obj 7 291 vsl_pre 1 9 3;
#X obj 106 291 vsl_pre 1 10 3;
#X obj 205 292 vsl_pre 1 11 3;
#X obj 304 292 vsl_pre 1 12 3;
#X obj 432 292 vsl_pre 1 13 4;
#X obj 531 292 vsl_pre 1 14 4;
#X obj 630 293 vsl_pre 1 15 4;
#X obj 729 293 vsl_pre 1 16 4;
#X obj 6 92 r c1_s1_1;
#X obj 105 91 r c1_s1_2;
#X obj 303 91 r c1_s1_4;
#X obj 204 92 r c1_s1_3;
#X obj 431 94 r c1_s2_1;
#X obj 530 94 r c1_s2_2;
#X obj 629 94 r c1_s2_3;
#X obj 728 93 r c1_s2_4;
#X obj 7 265 r c1_s3_1;
#X obj 106 265 r c1_s3_2;
#X obj 205 265 r c1_s3_3;
#X obj 304 263 r c1_s3_4;
#X obj 432 266 r c1_s4_1;
#X obj 531 266 r c1_s4_2;
#X obj 630 266 r c1_s4_3;
#X obj 729 265 r c1_s4_4;
#X obj 8 439 r c1_s5_1;
#X obj 107 439 r c1_s5_2;
#X obj 206 439 r c1_s5_3;
#X obj 305 438 r c1_s5_4;
#X obj 433 441 r c1_s6_1;
#X obj 532 441 r c1_s6_2;
#X obj 631 441 r c1_s6_3;
#X obj 730 440 r c1_s6_4;
#X obj 9 612 r c1_s7_1;
#X obj 108 612 r c1_s7_2;
#X obj 207 612 r c1_s7_3;
#X obj 306 610 r c1_s7_4;
#X obj 434 613 r c1_s8_1;
#X obj 533 613 r c1_s8_2;
#X obj 632 613 r c1_s8_3;
#X obj 731 612 r c1_s8_4;
#X obj 8 463 vsl_pre 1 17 5;
#X obj 107 463 vsl_pre 1 18 5;
#X obj 206 464 vsl_pre 1 19 5;
#X obj 305 464 vsl_pre 1 20 5;
#X obj 433 464 vsl_pre 1 21 6;
#X obj 532 464 vsl_pre 1 22 6;
#X obj 631 465 vsl_pre 1 23 6;
#X obj 730 465 vsl_pre 1 24 6;
#X obj 9 638 vsl_pre 1 25 7;
#X obj 108 638 vsl_pre 1 26 7;
#X obj 207 639 vsl_pre 1 27 7;
#X obj 306 639 vsl_pre 1 28 7;
#X obj 434 639 vsl_pre 1 29 8;
#X obj 533 639 vsl_pre 1 30 8;
#X obj 632 640 vsl_pre 1 31 8;
#X obj 731 640 vsl_pre 1 32 8;
#X connect 17 0 1 0;
#X connect 18 0 2 0;
#X connect 19 0 4 0;
#X connect 20 0 3 0;
#X connect 21 0 5 0;
#X connect 22 0 6 0;
#X connect 23 0 7 0;
#X connect 24 0 8 0;
#X connect 25 0 9 0;
#X connect 26 0 10 0;
#X connect 27 0 11 0;
#X connect 28 0 12 0;
#X connect 29 0 13 0;
#X connect 30 0 14 0;
#X connect 31 0 15 0;
#X connect 32 0 16 0;
#X connect 33 0 49 0;
#X connect 34 0 50 0;
#X connect 35 0 51 0;
#X connect 36 0 52 0;
#X connect 37 0 53 0;
#X connect 38 0 54 0;
#X connect 39 0 55 0;
#X connect 40 0 56 0;
#X connect 41 0 57 0;
#X connect 42 0 58 0;
#X connect 43 0 59 0;
#X connect 44 0 60 0;
#X connect 45 0 61 0;
#X connect 46 0 62 0;
#X connect 47 0 63 0;
#X connect 48 0 64 0;
#X restore 58 115 pd Mixer_New;
#N canvas 380 147 1440 580 MIDI 1;
#X obj 33 5 ctlin;
#X obj 4 52 pack f f f;
#X obj 4 75 route 1 2 3;
#X text 94 77 channel;
#X obj 5 239 s c1_s1_1;
#X floatatom 5 216 5 0 0 0 - - -;
#X floatatom 42 262 5 0 0 0 - - -;
#X floatatom 80 216 5 0 0 0 - - -;
#X floatatom 118 262 5 0 0 0 - - -;
#X obj 5 167 route 13 29 49 77, f 22;
#X obj 118 192 sc1;
#X obj 80 193 sc1;
#X obj 42 190 sc1;
#X obj 5 191 sc1;
#X floatatom 187 215 5 0 0 0 - - -;
#X floatatom 224 261 5 0 0 0 - - -;
#X floatatom 262 215 5 0 0 0 - - -;
#X floatatom 300 261 5 0 0 0 - - -;
#X obj 300 191 sc1;
#X obj 262 192 sc1;
#X obj 224 189 sc1;
#X obj 187 190 sc1;
#X obj 187 166 route 14 30 50 78, f 22;
#X obj 42 285 s c1_s1_2;
#X obj 80 239 s c1_s1_3;
#X obj 118 285 s c1_s1_4;
#X obj 187 238 s c1_s2_1;
#X obj 262 238 s c1_s2_3;
#X obj 300 284 s c1_s2_4;
#X floatatom 379 215 5 0 0 0 - - -;
#X floatatom 416 261 5 0 0 0 - - -;
#X floatatom 454 215 5 0 0 0 - - -;
#X floatatom 492 261 5 0 0 0 - - -;
#X obj 492 191 sc1;
#X obj 454 192 sc1;
#X obj 416 189 sc1;
#X obj 379 190 sc1;
#X obj 379 166 route 15 31 51 79, f 22;
#X obj 379 238 s c1_s3_1;
#X obj 454 238 s c1_s3_3;
#X obj 492 284 s c1_s3_4;
#X floatatom 564 215 5 0 0 0 - - -;
#X floatatom 601 261 5 0 0 0 - - -;
#X floatatom 639 215 5 0 0 0 - - -;
#X floatatom 677 261 5 0 0 0 - - -;
#X obj 677 191 sc1;
#X obj 639 192 sc1;
#X obj 601 189 sc1;
#X obj 564 190 sc1;
#X obj 564 166 route 16 32 52 80, f 22;
#X obj 564 238 s c1_s4_1;
#X obj 639 238 s c1_s4_3;
#X obj 677 284 s c1_s4_4;
#X floatatom 746 216 5 0 0 0 - - -;
#X floatatom 783 262 5 0 0 0 - - -;
#X floatatom 821 216 5 0 0 0 - - -;
#X floatatom 859 262 5 0 0 0 - - -;
#X obj 859 192 sc1;
#X obj 821 193 sc1;
#X obj 783 190 sc1;
#X obj 746 191 sc1;
#X obj 746 167 route 17 33 53 81, f 22;
#X obj 746 239 s c1_s5_1;
#X obj 821 239 s c1_s5_3;
#X obj 859 285 s c1_s5_4;
#X floatatom 931 217 5 0 0 0 - - -;
#X floatatom 968 263 5 0 0 0 - - -;
#X floatatom 1006 217 5 0 0 0 - - -;
#X floatatom 1044 263 5 0 0 0 - - -;
#X obj 1044 193 sc1;
#X obj 1006 194 sc1;
#X obj 968 191 sc1;
#X obj 931 192 sc1;
#X obj 931 168 route 18 34 54 82, f 22;
#X obj 931 240 s c1_s6_1;
#X obj 1006 240 s c1_s6_3;
#X obj 1044 286 s c1_s6_4;
#X obj 4 100 s ch1;
#X obj 5 141 r ch1;
#X obj 185 141 r ch1;
#X obj 378 142 r ch1;
#X obj 564 142 r ch1;
#X obj 746 144 r ch1;
#X obj 931 144 r ch1;
#X floatatom 1108 214 5 0 0 0 - - -;
#X floatatom 1145 260 5 0 0 0 - - -;
#X floatatom 1183 214 5 0 0 0 - - -;
#X floatatom 1221 260 5 0 0 0 - - -;
#X obj 1221 190 sc1;
#X obj 1183 191 sc1;
#X obj 1145 188 sc1;
#X obj 1108 189 sc1;
#X obj 1108 141 r ch1;
#X obj 1108 165 route 19 35 55 83, f 22;
#X obj 1108 237 s c1_s7_1;
#X obj 1183 237 s c1_s7_3;
#X obj 1221 283 s c1_s7_4;
#X floatatom 1280 212 5 0 0 0 - - -;
#X floatatom 1317 258 5 0 0 0 - - -;
#X floatatom 1355 212 5 0 0 0 - - -;
#X floatatom 1393 258 5 0 0 0 - - -;
#X obj 1393 188 sc1;
#X obj 1355 189 sc1;
#X obj 1317 186 sc1;
#X obj 1280 187 sc1;
#X obj 1280 139 r ch1;
#X obj 1280 163 route 20 36 56 84, f 22;
#X obj 1280 235 s c1_s8_1;
#X obj 1355 235 s c1_s8_3;
#X obj 1393 281 s c1_s8_4;
#X obj 45 101 s ch2;
#X floatatom 5 408 5 0 0 0 - - -;
#X floatatom 42 454 5 0 0 0 - - -;
#X floatatom 80 408 5 0 0 0 - - -;
#X floatatom 118 454 5 0 0 0 - - -;
#X obj 5 359 route 13 29 49 77, f 22;
#X obj 118 384 sc1;
#X obj 80 385 sc1;
#X obj 42 382 sc1;
#X obj 5 383 sc1;
#X floatatom 187 407 5 0 0 0 - - -;
#X floatatom 224 453 5 0 0 0 - - -;
#X floatatom 262 407 5 0 0 0 - - -;
#X floatatom 300 453 5 0 0 0 - - -;
#X obj 300 383 sc1;
#X obj 262 384 sc1;
#X obj 224 381 sc1;
#X obj 187 382 sc1;
#X obj 187 358 route 14 30 50 78, f 22;
#X floatatom 379 407 5 0 0 0 - - -;
#X floatatom 416 453 5 0 0 0 - - -;
#X floatatom 454 407 5 0 0 0 - - -;
#X floatatom 492 453 5 0 0 0 - - -;
#X obj 492 383 sc1;
#X obj 454 384 sc1;
#X obj 416 381 sc1;
#X obj 379 382 sc1;
#X obj 379 358 route 15 31 51 79, f 22;
#X floatatom 564 407 5 0 0 0 - - -;
#X floatatom 601 453 5 0 0 0 - - -;
#X floatatom 639 407 5 0 0 0 - - -;
#X floatatom 677 453 5 0 0 0 - - -;
#X obj 677 383 sc1;
#X obj 639 384 sc1;
#X obj 601 381 sc1;
#X obj 564 382 sc1;
#X obj 564 358 route 16 32 52 80, f 22;
#X floatatom 746 408 5 0 0 0 - - -;
#X floatatom 783 454 5 0 0 0 - - -;
#X floatatom 821 408 5 0 0 0 - - -;
#X floatatom 859 454 5 0 0 0 - - -;
#X obj 859 384 sc1;
#X obj 821 385 sc1;
#X obj 783 382 sc1;
#X obj 746 383 sc1;
#X obj 746 359 route 17 33 53 81, f 22;
#X floatatom 931 409 5 0 0 0 - - -;
#X floatatom 968 455 5 0 0 0 - - -;
#X floatatom 1006 409 5 0 0 0 - - -;
#X floatatom 1044 455 5 0 0 0 - - -;
#X obj 1044 385 sc1;
#X obj 1006 386 sc1;
#X obj 968 383 sc1;
#X obj 931 384 sc1;
#X obj 931 360 route 18 34 54 82, f 22;
#X floatatom 1108 406 5 0 0 0 - - -;
#X floatatom 1145 452 5 0 0 0 - - -;
#X floatatom 1183 406 5 0 0 0 - - -;
#X floatatom 1221 452 5 0 0 0 - - -;
#X obj 1221 382 sc1;
#X obj 1183 383 sc1;
#X obj 1145 380 sc1;
#X obj 1108 381 sc1;
#X obj 1108 357 route 19 35 55 83, f 22;
#X floatatom 1280 404 5 0 0 0 - - -;
#X floatatom 1317 450 5 0 0 0 - - -;
#X floatatom 1355 404 5 0 0 0 - - -;
#X floatatom 1393 450 5 0 0 0 - - -;
#X obj 1393 380 sc1;
#X obj 1355 381 sc1;
#X obj 1317 378 sc1;
#X obj 1280 379 sc1;
#X obj 1280 355 route 20 36 56 84, f 22;
#X obj 5 333 r ch2;
#X obj 185 333 r ch2;
#X obj 378 334 r ch2;
#X obj 564 334 r ch2;
#X obj 746 336 r ch2;
#X obj 931 336 r ch2;
#X obj 1108 333 r ch2;
#X obj 1280 331 r ch2;
#X obj 5 431 s c2_s1_1;
#X obj 42 477 s c2_s1_2;
#X obj 80 431 s c2_s1_3;
#X obj 118 477 s c2_s1_4;
#X obj 187 430 s c2_s2_1;
#X obj 262 430 s c2_s2_3;
#X obj 300 476 s c2_s2_4;
#X obj 379 430 s c2_s3_1;
#X obj 454 430 s c2_s3_3;
#X obj 492 476 s c2_s3_4;
#X obj 564 430 s c2_s4_1;
#X obj 639 430 s c2_s4_3;
#X obj 677 476 s c2_s4_4;
#X obj 746 431 s c2_s5_1;
#X obj 821 431 s c2_s5_3;
#X obj 859 477 s c2_s5_4;
#X obj 931 432 s c2_s6_1;
#X obj 1006 432 s c2_s6_3;
#X obj 1044 478 s c2_s6_4;
#X obj 1108 429 s c2_s7_1;
#X obj 1183 429 s c2_s7_3;
#X obj 1221 475 s c2_s7_4;
#X obj 1280 427 s c2_s8_1;
#X obj 1355 427 s c2_s8_3;
#X obj 1393 473 s c2_s8_4;
#X obj 224 284 s c1_s2_2;
#X obj 416 284 s c1_s3_2;
#X obj 601 284 s c1_s4_2;
#X obj 783 285 s c1_s5_2;
#X obj 968 286 s c1_s6_2;
#X obj 1145 283 s c1_s7_2;
#X obj 1317 281 s c1_s8_2;
#X obj 224 476 s c2_s2_2;
#X obj 416 476 s c2_s3_2;
#X obj 601 476 s c2_s4_2;
#X obj 783 477 s c2_s5_2;
#X obj 968 478 s c2_s6_2;
#X obj 1145 475 s c2_s7_2;
#X obj 1317 473 s c2_s8_2;
#X connect 0 0 1 2;
#X connect 0 1 1 1;
#X connect 0 2 1 0;
#X connect 1 0 2 0;
#X connect 2 0 77 0;
#X connect 2 1 110 0;
#X connect 5 0 4 0;
#X connect 6 0 23 0;
#X connect 7 0 24 0;
#X connect 8 0 25 0;
#X connect 9 0 13 0;
#X connect 9 1 12 0;
#X connect 9 2 11 0;
#X connect 9 3 10 0;
#X connect 10 0 8 0;
#X connect 11 0 7 0;
#X connect 12 0 6 0;
#X connect 13 0 5 0;
#X connect 14 0 26 0;
#X connect 15 0 216 0;
#X connect 16 0 27 0;
#X connect 17 0 28 0;
#X connect 18 0 17 0;
#X connect 19 0 16 0;
#X connect 20 0 15 0;
#X connect 21 0 14 0;
#X connect 22 0 21 0;
#X connect 22 1 20 0;
#X connect 22 2 19 0;
#X connect 22 3 18 0;
#X connect 29 0 38 0;
#X connect 30 0 217 0;
#X connect 31 0 39 0;
#X connect 32 0 40 0;
#X connect 33 0 32 0;
#X connect 34 0 31 0;
#X connect 35 0 30 0;
#X connect 36 0 29 0;
#X connect 37 0 36 0;
#X connect 37 1 35 0;
#X connect 37 2 34 0;
#X connect 37 3 33 0;
#X connect 41 0 50 0;
#X connect 42 0 218 0;
#X connect 43 0 51 0;
#X connect 44 0 52 0;
#X connect 45 0 44 0;
#X connect 46 0 43 0;
#X connect 47 0 42 0;
#X connect 48 0 41 0;
#X connect 49 0 48 0;
#X connect 49 1 47 0;
#X connect 49 2 46 0;
#X connect 49 3 45 0;
#X connect 53 0 62 0;
#X connect 54 0 219 0;
#X connect 55 0 63 0;
#X connect 56 0 64 0;
#X connect 57 0 56 0;
#X connect 58 0 55 0;
#X connect 59 0 54 0;
#X connect 60 0 53 0;
#X connect 61 0 60 0;
#X connect 61 1 59 0;
#X connect 61 2 58 0;
#X connect 61 3 57 0;
#X connect 65 0 74 0;
#X connect 66 0 220 0;
#X connect 67 0 75 0;
#X connect 68 0 76 0;
#X connect 69 0 68 0;
#X connect 70 0 67 0;
#X connect 71 0 66 0;
#X connect 72 0 65 0;
#X connect 73 0 72 0;
#X connect 73 1 71 0;
#X connect 73 2 70 0;
#X connect 73 3 69 0;
#X connect 78 0 9 0;
#X connect 79 0 22 0;
#X connect 80 0 37 0;
#X connect 81 0 49 0;
#X connect 82 0 61 0;
#X connect 83 0 73 0;
#X connect 84 0 94 0;
#X connect 85 0 221 0;
#X connect 86 0 95 0;
#X connect 87 0 96 0;
#X connect 88 0 87 0;
#X connect 89 0 86 0;
#X connect 90 0 85 0;
#X connect 91 0 84 0;
#X connect 92 0 93 0;
#X connect 93 0 91 0;
#X connect 93 1 90 0;
#X connect 93 2 89 0;
#X connect 93 3 88 0;
#X connect 97 0 107 0;
#X connect 98 0 222 0;
#X connect 99 0 108 0;
#X connect 100 0 109 0;
#X connect 101 0 100 0;
#X connect 102 0 99 0;
#X connect 103 0 98 0;
#X connect 104 0 97 0;
#X connect 105 0 106 0;
#X connect 106 0 104 0;
#X connect 106 1 103 0;
#X connect 106 2 102 0;
#X connect 106 3 101 0;
#X connect 111 0 191 0;
#X connect 112 0 192 0;
#X connect 113 0 193 0;
#X connect 114 0 194 0;
#X connect 115 0 119 0;
#X connect 115 1 118 0;
#X connect 115 2 117 0;
#X connect 115 3 116 0;
#X connect 116 0 114 0;
#X connect 117 0 113 0;
#X connect 118 0 112 0;
#X connect 119 0 111 0;
#X connect 120 0 195 0;
#X connect 121 0 223 0;
#X connect 122 0 196 0;
#X connect 123 0 197 0;
#X connect 124 0 123 0;
#X connect 125 0 122 0;
#X connect 126 0 121 0;
#X connect 127 0 120 0;
#X connect 128 0 127 0;
#X connect 128 1 126 0;
#X connect 128 2 125 0;
#X connect 128 3 124 0;
#X connect 129 0 198 0;
#X connect 130 0 224 0;
#X connect 131 0 199 0;
#X connect 132 0 200 0;
#X connect 133 0 132 0;
#X connect 134 0 131 0;
#X connect 135 0 130 0;
#X connect 136 0 129 0;
#X connect 137 0 136 0;
#X connect 137 1 135 0;
#X connect 137 2 134 0;
#X connect 137 3 133 0;
#X connect 138 0 201 0;
#X connect 139 0 225 0;
#X connect 140 0 202 0;
#X connect 141 0 203 0;
#X connect 142 0 141 0;
#X connect 143 0 140 0;
#X connect 144 0 139 0;
#X connect 145 0 138 0;
#X connect 146 0 145 0;
#X connect 146 1 144 0;
#X connect 146 2 143 0;
#X connect 146 3 142 0;
#X connect 147 0 204 0;
#X connect 148 0 226 0;
#X connect 149 0 205 0;
#X connect 150 0 206 0;
#X connect 151 0 150 0;
#X connect 152 0 149 0;
#X connect 153 0 148 0;
#X connect 154 0 147 0;
#X connect 155 0 154 0;
#X connect 155 1 153 0;
#X connect 155 2 152 0;
#X connect 155 3 151 0;
#X connect 156 0 207 0;
#X connect 157 0 227 0;
#X connect 158 0 208 0;
#X connect 159 0 209 0;
#X connect 160 0 159 0;
#X connect 161 0 158 0;
#X connect 162 0 157 0;
#X connect 163 0 156 0;
#X connect 164 0 163 0;
#X connect 164 1 162 0;
#X connect 164 2 161 0;
#X connect 164 3 160 0;
#X connect 165 0 210 0;
#X connect 166 0 228 0;
#X connect 167 0 211 0;
#X connect 168 0 212 0;
#X connect 169 0 168 0;
#X connect 170 0 167 0;
#X connect 171 0 166 0;
#X connect 172 0 165 0;
#X connect 173 0 172 0;
#X connect 173 1 171 0;
#X connect 173 2 170 0;
#X connect 173 3 169 0;
#X connect 174 0 213 0;
#X connect 175 0 229 0;
#X connect 176 0 214 0;
#X connect 177 0 215 0;
#X connect 178 0 177 0;
#X connect 179 0 176 0;
#X connect 180 0 175 0;
#X connect 181 0 174 0;
#X connect 182 0 181 0;
#X connect 182 1 180 0;
#X connect 182 2 179 0;
#X connect 182 3 178 0;
#X connect 183 0 115 0;
#X connect 184 0 128 0;
#X connect 185 0 137 0;
#X connect 186 0 146 0;
#X connect 187 0 155 0;
#X connect 188 0 164 0;
#X connect 189 0 173 0;
#X connect 190 0 182 0;
#X restore 204 53 pd MIDI;
